<?xml version="1.0" encoding="UTF-8"?>
<svg class="handwriting" xmlns="http://www.w3.org/2000/svg" viewBox="0 0 299.14 83.54">
  <g class="handwriting__text" id="text">
    <g>
      <path class="cls-1" d="M70.17,49.6c-.41,0-.72.17-.94.5-.8,1.25-1.78,2.2-2.93,2.86-1.15.65-2.35.98-3.6.98-1.02,0-2.02-.25-3-.76-.99-.51-2-1.21-3.05-2.09-1.04-.89-2.12-1.93-3.22-3.12-1.1-1.19-2.28-2.46-3.53-3.81-1.5-1.62-2.9-3.09-4.19-4.41s-2.63-2.42-4.01-3.3c1.66-.64,3.12-1.37,4.38-2.17s2.38-1.66,3.35-2.56c.98-.91,1.85-1.87,2.61-2.87s1.48-2.03,2.15-3.08c.67-1.04,1.34-2.1,1.99-3.18.65-1.07,1.36-2.13,2.12-3.16.66-.9,1.41-1.71,2.23-2.43.82-.72,1.65-1.35,2.49-1.88.84-.53,1.66-.94,2.45-1.23s1.48-.45,2.07-.47c.31-.02.57-.14.78-.35.21-.21.31-.48.31-.79,0-.33-.12-.59-.37-.78-.24-.19-.51-.28-.81-.28-.86,0-1.78.18-2.75.54-.98.36-1.95.85-2.92,1.46s-1.9,1.34-2.81,2.18c-.91.84-1.71,1.73-2.42,2.67-.68.9-1.34,1.88-1.96,2.94-.63,1.06-1.29,2.14-1.99,3.24-.7,1.09-1.47,2.18-2.3,3.27-.83,1.08-1.78,2.1-2.84,3.05-1.06.95-2.29,1.8-3.66,2.56s-2.96,1.38-4.76,1.85c-1.33-.61-2.62-1.06-3.87-1.36-1.25-.3-2.37-.45-3.37-.45-.22,0-.37,0-.47.03.06-1.05.1-2.11.13-3.16s.06-2.11.1-3.16c.04-1.13.13-2.15.26-3.06.14-.91.31-1.71.53-2.42.21-.7.45-1.32.72-1.86.26-.54.54-1.01.83-1.42,1.04-.06,2.03-.21,2.97-.44.95-.23,1.78-.53,2.49-.88.71-.35,1.28-.74,1.7-1.17.42-.43.63-.88.63-1.35,0-.59-.22-1.07-.67-1.45-.45-.38-.99-.57-1.61-.57-.59,0-1.19.11-1.8.32-.62.22-1.22.49-1.82.83-.6.34-1.16.74-1.68,1.19-.53.45-.98.91-1.35,1.38-.96.08-2.01.06-3.15-.04-1.14-.11-2.34-.23-3.59-.38-1.25-.15-2.53-.29-3.84-.42-1.31-.14-2.6-.21-3.87-.21-1.64,0-3.19.25-4.64.75-1.46.5-2.72,1.2-3.81,2.11s-1.94,1.99-2.56,3.25c-.63,1.26-.94,2.65-.94,4.17,0,1.17.21,2.19.64,3.06.43.87.96,1.6,1.58,2.2.62.6,1.29,1.07,1.99,1.42s1.33.59,1.88.7c.06.02.15.03.26.03.27,0,.53-.1.76-.29s.35-.46.35-.79c0-.25-.08-.48-.23-.69-.16-.21-.36-.34-.62-.4-.06-.02-.32-.11-.78-.26-.46-.16-.96-.43-1.51-.83-.55-.4-1.04-.93-1.48-1.6-.44-.66-.66-1.51-.66-2.55,0-1.19.25-2.29.76-3.28.51-1,1.21-1.85,2.09-2.56.89-.71,1.93-1.26,3.12-1.66,1.19-.39,2.46-.59,3.81-.59,1.05,0,2.14.06,3.25.19,1.11.13,2.23.26,3.34.4,1.11.14,2.21.26,3.28.37,1.07.11,2.1.14,3.08.1-.47.94-.9,2.09-1.29,3.46-.39,1.37-.61,3.06-.64,5.07-.04,1.27-.07,2.5-.1,3.71s-.07,2.38-.13,3.53c-.61.43-.91.98-.91,1.64,0,.27.05.53.16.78.11.24.28.47.51.69-.22,2.62-.58,5-1.08,7.13-.51,2.14-1.27,3.97-2.29,5.51-1.02,1.53-2.35,2.72-4,3.56-1.65.84-3.72,1.26-6.2,1.26-1.97,0-3.86-.32-5.65-.95-1.8-.63-3.33-1.53-4.6-2.68-.2-.2-.45-.29-.76-.29-.29,0-.55.11-.76.34-.22.22-.32.48-.32.78,0,.35.12.62.35.82.72.66,1.54,1.25,2.45,1.77s1.86.96,2.87,1.32c1.01.36,2.05.63,3.13.82s2.18.28,3.3.28c1.95,0,3.68-.23,5.17-.69s2.79-1.1,3.9-1.92c1.1-.82,2.04-1.81,2.81-2.96.77-1.15,1.41-2.43,1.92-3.82.51-1.4.91-2.89,1.22-4.48.3-1.59.53-3.25.69-4.97.27.06.58.1.91.12.33.02.69.03,1.08.03.82,0,1.72-.05,2.7-.15.98-.1,1.99-.27,3.05-.53.82.41,1.61.89,2.37,1.45s1.52,1.18,2.27,1.88c.75.69,1.52,1.46,2.31,2.3s1.64,1.74,2.53,2.7c1.37,1.48,2.66,2.87,3.87,4.15,1.21,1.28,2.39,2.39,3.54,3.34,1.15.95,2.3,1.69,3.46,2.23,1.15.54,2.35.81,3.6.81,1.62,0,3.17-.42,4.66-1.25,1.48-.83,2.72-2.04,3.72-3.62.12-.18.18-.37.18-.59,0-.27-.1-.53-.31-.76s-.47-.35-.81-.35ZM36.59,15.17c.37-.21.74-.41,1.1-.59.36-.18.7-.31,1.03-.41.32-.1.58-.15.78-.15.18,0,.17.09-.01.26-.19.18-.48.37-.89.59-.41.22-.88.42-1.42.62-.54.2-1.06.31-1.57.35.29-.23.62-.46,1-.67ZM35.02,35.92c-.28.02-.58.04-.88.06-.3.02-.58.03-.83.03h-.56c-.76,0-1.29-.04-1.58-.12.02-.1.03-.2.03-.31s0-.21.03-.31c.1-.02.19-.03.28-.04s.18-.01.28-.01c.37,0,.75.02,1.14.06.39.04.76.09,1.11.15s.67.12.97.19.53.13.7.19c-.18.06-.41.1-.69.12Z"/>
      <path class="cls-1" d="M149.33,45.7c-.22,0-.41.05-.59.16s-.31.26-.41.45c-.61,1.21-1.22,2.31-1.85,3.3-.63.99-1.25,1.83-1.86,2.53s-1.22,1.25-1.8,1.64-1.15.59-1.7.59c-.33,0-.68-.06-1.04-.18-.36-.12-.7-.35-1.03-.7s-.59-.84-.79-1.48-.31-1.47-.31-2.5c0-.76.02-1.6.07-2.5.05-.91.11-1.77.18-2.58.07-.81.13-1.51.18-2.09.05-.59.07-.94.07-1.05,0-.29-.1-.55-.29-.78-.2-.22-.44-.34-.73-.34-.33,0-.6.1-.81.31s-.33.44-.37.72c-.21,1.64-.35,3.29-.43,4.94-.05.06-.09.12-.13.19-.25.53-.58,1.1-.97,1.71-.39.62-.82,1.19-1.27,1.73-.46.54-.94.99-1.44,1.35s-.98.54-1.45.54c-.55,0-1.03-.09-1.44-.26s-.76-.38-1.05-.62-.53-.48-.7-.73-.3-.46-.38-.62c.06-.47.09-.95.09-1.44,0-.84-.1-1.67-.29-2.49-.2-.82-.5-1.55-.91-2.2s-.92-1.16-1.54-1.55-1.34-.59-2.18-.59c-.49,0-.95.09-1.39.28s-.83.45-1.17.79c-.34.34-.61.75-.81,1.23-.2.48-.29,1-.29,1.57,0,.35.06.73.18,1.14s.28.8.5,1.16c.21.36.47.66.78.89.3.23.65.35,1.04.35.27,0,.52-.1.75-.29.22-.2.34-.46.34-.79,0-.41-.17-.73-.5-.97-.33-.21-.56-.46-.67-.73s-.18-.55-.18-.82c0-.06,0-.18.03-.35.02-.18.08-.36.18-.54.1-.19.24-.35.44-.5.19-.15.47-.22.82-.22.47,0,.87.14,1.2.41.33.27.61.63.83,1.07.22.44.39.94.5,1.49.11.56.16,1.11.16,1.66,0,.82-.12,1.62-.37,2.4-.24.78-.58,1.48-1.01,2.09-.43.62-.94,1.11-1.52,1.49s-1.21.57-1.88.57-1.25-.2-1.76-.6c-.51-.4-.95-.94-1.32-1.61-.37-.67-.67-1.45-.91-2.31s-.41-1.78-.53-2.74c.86-1.91,1.73-3.94,2.61-6.08s1.67-4.32,2.39-6.53c.71-2.22,1.29-4.44,1.74-6.67.45-2.23.67-4.38.67-6.47,0-1.31-.1-2.51-.29-3.6-.2-1.09-.48-2.03-.86-2.8-.38-.77-.85-1.37-1.41-1.8-.56-.43-1.2-.64-1.92-.64-.45,0-.91.1-1.38.29-.47.2-.93.56-1.38,1.1-.45.54-.87,1.29-1.27,2.26-.4.97-.75,2.23-1.05,3.78-.3,1.55-.54,3.44-.72,5.65-.18,2.22-.26,4.84-.26,7.87,0,1.58.02,3.25.06,5.01.04,1.76.14,3.5.31,5.21.08.79.17,1.57.28,2.33-.04.06-.09.12-.12.19-.16.35-.35.78-.59,1.27s-.51,1.02-.83,1.57-.67,1.09-1.05,1.63-.8,1.02-1.25,1.45c-.45.43-.92.78-1.41,1.04-.49.26-.99.4-1.49.4-.7,0-1.27-.23-1.7-.69-.43-.46-.75-1.01-.97-1.66-.22-.64-.36-1.3-.42-1.96-.07-.66-.08-1.2-.04-1.61l.38-4.86c0-.31-.1-.59-.29-.83-.2-.24-.46-.37-.79-.37-.29,0-.55.1-.76.29-.22.2-.34.44-.38.73l-.44,5.04c-.1.98-.31,1.83-.64,2.55-.33.72-.72,1.32-1.16,1.79s-.89.82-1.35,1.04c-.46.22-.86.34-1.22.34-.84,0-1.49-.3-1.95-.89-.46-.6-.69-1.47-.69-2.62,0-1.02.09-1.92.26-2.71s.38-1.48.62-2.07.46-1.06.67-1.42c.21-.36.37-.63.47-.81.06-.12.11-.23.16-.35.05-.12.07-.23.07-.35,0-.29-.1-.55-.31-.78s-.46-.34-.78-.34c-.16,0-.31.03-.45.09s-.27.15-.37.26c-.55.74-.98,1.47-1.29,2.18-.27.62-.53,1.38-.76,2.26-.1.1-.2.21-.26.36-.45.96-.96,1.86-1.54,2.71-.58.85-1.2,1.67-1.86,2.45-.66.78-1.35,1.53-2.05,2.24s-1.4,1.41-2.08,2.09c.08-1.58.18-3.07.29-4.47s.23-2.62.34-3.68c.11-1.05.2-1.9.28-2.53.08-.63.12-.98.12-1.04,0-.31-.11-.58-.32-.79-.22-.21-.48-.32-.79-.32-.27,0-.51.08-.7.25-.2.17-.31.38-.35.63-.63,3.14-1.39,5.54-2.29,7.19-.9,1.65-1.9,2.48-3.02,2.48-.88,0-1.51-.3-1.9-.91-.39-.61-.59-1.45-.59-2.52s.1-2.06.31-2.96.43-1.67.67-2.31c.24-.64.47-1.14.67-1.48s.3-.5.28-.48c.12-.18.18-.37.18-.59,0-.29-.1-.55-.31-.78s-.47-.34-.81-.34c-.39,0-.69.17-.91.5,0-.02-.12.17-.35.57s-.49.98-.78,1.73c-.28.75-.55,1.65-.79,2.7-.24,1.04-.37,2.2-.37,3.47,0,1.74.42,3.11,1.26,4.1.84,1,2,1.49,3.49,1.49.9,0,1.72-.27,2.48-.82.75-.55,1.38-1.27,1.89-2.17-.06.86-.11,1.79-.16,2.8-.05,1.01-.09,1.98-.13,2.92-.7.82-1.4,1.73-2.08,2.74-.68,1.01-1.33,2.07-1.93,3.18-.61,1.11-1.17,2.26-1.68,3.43-.52,1.17-.96,2.33-1.33,3.47-.37,1.14-.66,2.25-.86,3.33s-.31,2.08-.31,3.02c0,1.72.37,3.06,1.11,4.01.74.96,1.81,1.44,3.19,1.44.84,0,1.57-.21,2.2-.63.62-.42,1.17-1,1.64-1.73s.85-1.6,1.16-2.59c.3-1,.54-2.07.72-3.21s.3-2.34.38-3.59c.08-1.25.12-2.5.12-3.75,0-1.52-.04-2.96-.12-4.32-.08-1.36-.08-2.71,0-4.06.8-.9,1.64-1.79,2.52-2.68s1.75-1.81,2.61-2.75c.82-.9,1.6-1.86,2.35-2.86.05.52.13,1.02.28,1.46.22.7.55,1.3.98,1.8.43.5.94.88,1.52,1.16s1.25.41,1.99.41c.92,0,1.83-.32,2.74-.97s1.7-1.52,2.39-2.64c.37,1.21.94,2.14,1.7,2.8s1.72.98,2.87.98c.84,0,1.63-.19,2.36-.57s1.41-.87,2.04-1.46c.62-.6,1.19-1.25,1.7-1.95.51-.7.94-1.37,1.3-2.01.03-.06.06-.11.09-.17.29,1.16.64,2.2,1.08,3.13.56,1.18,1.25,2.12,2.09,2.83.84.7,1.86,1.05,3.05,1.05.64,0,1.27-.12,1.89-.35s1.2-.56,1.74-.98c.55-.42,1.04-.91,1.49-1.48.45-.57.83-1.19,1.14-1.88.45.45,1.03.85,1.73,1.22s1.56.54,2.58.54c.62,0,1.23-.15,1.82-.44s1.13-.66,1.64-1.11c.51-.45.98-.94,1.41-1.48.12-.15.23-.3.34-.44.04.68.13,1.35.29,1.97.22.85.57,1.59,1.03,2.21.46.62,1.02,1.12,1.68,1.49.66.37,1.44.56,2.31.56.68,0,1.36-.17,2.02-.5.66-.33,1.3-.77,1.9-1.3.6-.54,1.18-1.14,1.71-1.82.54-.67,1.03-1.35,1.48-2.04.45-.68.85-1.35,1.2-1.99s.64-1.19.88-1.64c.08-.14.12-.3.12-.5,0-.27-.1-.53-.31-.76s-.46-.35-.78-.35ZM81.97,72.96c-.18,1.67-.44,3.09-.78,4.26-.34,1.17-.76,2.08-1.26,2.71s-1.07.95-1.71.95c-.72,0-1.25-.29-1.58-.86-.33-.58-.5-1.37-.5-2.39s.15-2.13.44-3.4.7-2.6,1.23-3.98,1.16-2.78,1.89-4.19,1.54-2.74,2.42-4.01c.02.98.04,1.89.07,2.75s.04,1.71.04,2.55c0,2.07-.09,3.94-.26,5.61ZM114.95,27.07c.15-1.99.33-3.7.56-5.11.22-1.42.47-2.58.75-3.5.27-.92.55-1.64.82-2.15.27-.52.53-.88.78-1.08.24-.21.44-.31.6-.31.47,0,.85.22,1.16.64.3.43.54.97.72,1.61s.3,1.35.37,2.12c.07.77.1,1.51.1,2.21,0,1.86-.18,3.74-.53,5.65s-.8,3.81-1.35,5.68c-.55,1.88-1.16,3.72-1.85,5.52-.68,1.81-1.36,3.53-2.02,5.17-.04-.45-.08-1.03-.12-1.73-.04-.7-.07-1.47-.1-2.31s-.05-1.72-.07-2.65c-.02-.93-.03-1.84-.03-2.74,0-2.7.07-5.04.22-7.03Z"/>
      <path class="cls-1" d="M137.81,35.1c.74,0,1.37-.26,1.89-.78.52-.52.78-1.15.78-1.89,0-.37-.07-.72-.21-1.04-.14-.32-.33-.61-.57-.85-.24-.24-.53-.43-.85-.57s-.67-.21-1.04-.21-.72.07-1.04.21-.61.33-.85.57c-.24.24-.44.53-.57.85-.14.32-.21.67-.21,1.04,0,.74.26,1.37.78,1.89.52.52,1.15.78,1.89.78ZM137.11,31.71c.19-.21.43-.31.7-.31s.51.1.72.31.31.44.31.72-.1.51-.31.7-.44.29-.72.29-.51-.1-.7-.29c-.2-.2-.29-.43-.29-.7s.1-.51.29-.72Z"/>
      <path class="cls-1" d="M238.51,53.79c-1.25-.04-2.35-.3-3.3-.79-.95-.49-1.76-1.13-2.45-1.93-.68-.8-1.26-1.73-1.73-2.8s-.84-2.2-1.11-3.41c-.27-1.21-.47-2.47-.59-3.78s-.18-2.61-.18-3.9c0-.82.02-1.64.06-2.45.04-.81.09-1.59.15-2.33.14-1.62.36-3.25.66-4.88.3-1.63.65-3.19,1.04-4.69.39-1.49.79-2.89,1.2-4.19.41-1.3.79-2.43,1.13-3.4.34-.97.62-1.73.85-2.29.22-.56.34-.84.34-.86.06-.14.09-.27.09-.41,0-.29-.1-.55-.31-.78-.21-.22-.47-.34-.81-.34-.31,0-.58.11-.79.32-.04.06-.33.4-.86,1.01-.54.62-1.27,1.57-2.21,2.86s-2.05,2.93-3.34,4.91c-1.29,1.98-2.71,4.36-4.25,7.13-1.09,1.95-2.16,4.03-3.21,6.23-1.04,2.2-2.04,4.36-2.97,6.47s-1.79,4.12-2.55,6.01-1.41,3.49-1.93,4.82c-.27-1.15-.57-2.44-.89-3.87s-.66-2.92-1.01-4.48-.71-3.16-1.08-4.8c-.37-1.64-.73-3.25-1.08-4.82s-.69-3.09-1.03-4.56c-.33-1.46-.63-2.79-.88-3.98.35-1.48.62-2.84.79-4.07s.26-2.31.26-3.25c0-.86-.07-1.54-.21-2.05-.14-.51-.31-.89-.51-1.16s-.43-.43-.67-.51c-.24-.08-.46-.12-.66-.12-.23,0-.48.03-.73.1-.25.07-.49.23-.7.5-.22.26-.39.65-.53,1.16-.14.51-.21,1.19-.21,2.05,0,.8.07,1.81.22,3.02.15,1.21.39,2.68.72,4.39-.39,1.19-.77,2.37-1.14,3.54-.37,1.17-.75,2.27-1.14,3.28-1.29,3.38-2.57,6.31-3.85,8.79-1.28,2.48-2.57,4.6-3.88,6.36-1.31,1.76-2.63,3.18-3.96,4.28-1.33,1.09-2.68,1.95-4.06,2.58s-2.77,1.05-4.19,1.27c-1.42.22-2.87.34-4.35.34-.88,0-1.81-.09-2.8-.28-.99-.19-1.97-.47-2.94-.85-.98-.38-1.91-.86-2.81-1.45-.9-.59-1.69-1.28-2.37-2.08-.68-.8-1.23-1.71-1.64-2.72s-.62-2.14-.62-3.37.27-2.4.81-3.44c.54-1.04,1.26-1.95,2.17-2.71s1.97-1.35,3.19-1.77c1.22-.42,2.51-.63,3.88-.63,1.5,0,2.78.17,3.82.5,1.04.33,1.9.7,2.56,1.11.66.41,1.14.79,1.44,1.13s.45.52.47.54c.23.33.55.5.94.5.33,0,.6-.12.81-.35s.31-.49.31-.76c0-.2-.06-.4-.18-.62-.02,0-.11-.11-.26-.34-.16-.22-.41-.49-.76-.81s-.79-.65-1.32-1.03-1.16-.71-1.9-1.03c-.74-.31-1.6-.57-2.56-.78s-2.06-.31-3.27-.31c-1.66,0-3.24.26-4.73.79s-2.81,1.26-3.94,2.21c-1.13.95-2.03,2.08-2.7,3.4-.66,1.32-1,2.77-1,4.35s.23,2.87.7,4.09,1.1,2.31,1.9,3.28c.8.97,1.72,1.8,2.75,2.5,1.04.7,2.12,1.29,3.25,1.76,1.13.47,2.27.82,3.43,1.04,1.15.22,2.24.34,3.25.34,1.97,0,3.84-.19,5.61-.56,1.77-.37,3.46-.99,5.07-1.86s3.15-2.02,4.63-3.44c1.47-1.43,2.9-3.19,4.29-5.29,1.39-2.1,2.74-4.57,4.06-7.41s2.63-6.11,3.94-9.8c.39,1.78.81,3.65,1.26,5.62.45,1.97.89,3.92,1.33,5.84s.86,3.77,1.26,5.54c.4,1.77.76,3.33,1.07,4.69.31,1.36.56,2.44.75,3.25.19.81.28,1.23.28,1.25.06.25.19.46.38.63.19.17.42.25.67.25.51,0,.86-.24,1.05-.73,0-.02.16-.44.47-1.27.31-.83.74-1.93,1.29-3.31.55-1.38,1.19-2.97,1.93-4.78.74-1.81,1.55-3.69,2.43-5.65s1.8-3.95,2.77-5.95,1.95-3.89,2.94-5.67c1.17-2.13,2.27-4.05,3.31-5.77,1.04-1.72,1.97-3.19,2.81-4.42-.41,1.33-.81,2.76-1.2,4.31-.39,1.54-.73,3.14-1.03,4.79s-.53,3.34-.7,5.08-.26,3.48-.26,5.21c0,1.46.06,2.92.19,4.35.13,1.44.35,2.82.66,4.15.31,1.33.73,2.57,1.25,3.74.52,1.16,1.17,2.2,1.95,3.11.78.91,1.71,1.67,2.78,2.29,1.07.62,2.31,1.02,3.72,1.22.31.06.62.09.94.09.29,0,.55-.11.76-.32.21-.21.32-.46.32-.73s-.09-.53-.28-.78c-.19-.24-.44-.38-.75-.4Z"/>
      <path class="cls-1" d="M243.34,35.1c.74,0,1.37-.26,1.89-.78.52-.52.78-1.15.78-1.89,0-.37-.07-.72-.21-1.04-.14-.32-.33-.61-.57-.85-.24-.24-.53-.43-.85-.57s-.67-.21-1.04-.21-.72.07-1.04.21-.61.33-.85.57c-.24.24-.44.53-.57.85-.14.32-.21.67-.21,1.04,0,.74.26,1.37.78,1.89.52.52,1.15.78,1.89.78ZM242.64,31.71c.19-.21.43-.31.7-.31s.51.1.72.31.31.44.31.72-.1.51-.31.7-.44.29-.72.29-.51-.1-.7-.29c-.2-.2-.29-.43-.29-.7s.1-.51.29-.72Z"/>
      <path class="cls-1" d="M297.2,46.07c-.21-.24-.47-.37-.81-.37-.21,0-.42.06-.6.18s-.33.28-.42.5c-.18.37-.39.81-.64,1.32s-.55,1.04-.88,1.58-.7,1.09-1.1,1.63c-.4.54-.82,1.02-1.26,1.44s-.89.76-1.35,1.01-.92.38-1.39.38c-.72,0-1.29-.24-1.7-.73s-.72-1.06-.92-1.73-.34-1.33-.4-2.01-.1-1.2-.12-1.57c-.02-.27-.13-.52-.34-.73s-.44-.32-.72-.32c-.29,0-.55.09-.76.28s-.34.42-.38.69c-.14,1.02-.38,1.89-.72,2.64s-.72,1.36-1.14,1.85-.86.85-1.32,1.08-.86.35-1.22.35c-.49,0-.9-.1-1.23-.29s-.6-.45-.79-.76-.33-.66-.41-1.04-.12-.76-.12-1.13c0-1.19.19-2.22.57-3.09s.85-1.59,1.42-2.17,1.19-1,1.88-1.27,1.33-.41,1.93-.41c.41,0,.78.04,1.1.13s.6.19.83.31.42.23.56.34.22.18.26.22c.21.21.48.32.79.32.29,0,.55-.11.76-.34s.32-.48.32-.78c0-.27-.11-.54-.32-.79-.02-.02-.13-.11-.32-.28s-.47-.35-.83-.54-.8-.38-1.3-.54-1.06-.25-1.67-.25c-.9,0-1.83.2-2.8.59s-1.85.98-2.65,1.76c-.65.64-1.21,1.41-1.67,2.29-.05.02-.1.04-.15.06-.18.11-.31.27-.41.48-.92,1.95-1.87,3.47-2.84,4.54s-1.9,1.86-2.77,2.36-1.64.79-2.3.88-1.14.13-1.44.13c-.96,0-1.82-.22-2.58-.66s-1.31-1.03-1.64-1.77c.88-.27,1.73-.62,2.56-1.05s1.57-.93,2.21-1.51,1.16-1.23,1.55-1.96.59-1.54.59-2.42c0-.57-.1-1.09-.31-1.58s-.49-.91-.85-1.27-.79-.64-1.27-.85-1.02-.31-1.58-.31c-1.02,0-1.94.3-2.77.91s-1.58,1.38-2.24,2.31-1.24,1.96-1.73,3.06-.89,2.15-1.2,3.15c.02-1.29.04-2.77.06-4.45s.04-3.45.07-5.3.06-3.76.09-5.71.06-3.85.09-5.7.06-3.59.09-5.23.05-3.08.07-4.31.03-2.21.04-2.94.01-1.12.01-1.16c0-.33-.11-.6-.32-.81s-.48-.31-.79-.31c-.27,0-.53.1-.76.31s-.35.46-.35.78c0,.16,0,.64-.01,1.45,0,.81-.02,1.86-.04,3.13-.02,1.28-.04,2.74-.07,4.39-.03,1.65-.05,3.39-.07,5.23-.02,1.84-.05,3.72-.09,5.65s-.07,3.81-.09,5.64c-.02,1.8-.04,3.5-.07,5.11-.06.07-.12.15-.16.24-.61,1.21-1.22,2.31-1.85,3.3s-1.25,1.83-1.86,2.53-1.22,1.25-1.8,1.64-1.15.59-1.7.59c-.33,0-.68-.06-1.04-.18-.36-.12-.7-.35-1.03-.7s-.59-.84-.79-1.48-.31-1.47-.31-2.5c0-.76.02-1.6.07-2.5.05-.91.11-1.77.18-2.58.07-.81.13-1.51.18-2.09.05-.59.07-.94.07-1.05,0-.29-.1-.55-.29-.78-.2-.22-.44-.34-.73-.34-.33,0-.6.1-.81.31s-.33.44-.37.72c-.35,2.79-.53,5.6-.53,8.41,0,.98.11,1.89.34,2.74.22.85.57,1.59,1.03,2.21.46.62,1.02,1.12,1.68,1.49.66.37,1.44.56,2.31.56.68,0,1.36-.17,2.02-.5s1.3-.77,1.9-1.3,1.18-1.14,1.71-1.82,1.03-1.35,1.48-2.04c.07-.11.13-.21.2-.32-.02,1.2-.03,2.18-.04,2.93,0,.78-.01,1.23-.01,1.35,0,.59.14,1,.41,1.25s.56.37.85.37c.31,0,.57-.07.76-.22s.36-.33.5-.56.24-.46.31-.72.13-.49.19-.7c.18-.7.4-1.47.67-2.3s.59-1.67.95-2.5.76-1.65,1.19-2.42.88-1.46,1.36-2.05.97-1.07,1.48-1.44,1.03-.54,1.55-.54.94.17,1.29.5.53.76.53,1.29c0,.61-.14,1.17-.41,1.68s-.65.99-1.14,1.42-1.07.82-1.74,1.16-1.41.63-2.21.86c-.29.1-.52.22-.69.37s-.29.3-.38.47-.14.32-.16.45-.03.24-.03.32c0,.61.16,1.2.48,1.77s.76,1.09,1.32,1.55,1.22.83,1.99,1.1,1.6.41,2.48.41c1.11,0,2.2-.21,3.27-.63s2.08-1.03,3.06-1.82c.91-.74,1.76-1.63,2.56-2.66.05.43.13.85.27,1.24.22.64.54,1.21.95,1.68s.91.85,1.49,1.11,1.24.4,1.96.4c.92,0,1.84-.33,2.75-.98s1.71-1.54,2.37-2.65c.35,1.09.91,2,1.68,2.72s1.72,1.08,2.86,1.08c.8,0,1.56-.19,2.29-.57s1.4-.86,2.02-1.45c.62-.59,1.19-1.23,1.7-1.93s.95-1.38,1.33-2.02.69-1.22.94-1.71.41-.83.48-.98c.06-.14.09-.27.09-.41,0-.27-.1-.53-.31-.78Z"/>
    </g>
  </g>
  <mask class="handwriting__mask" id="mask">
    <g class="handwriting__mask__line">
    <path class="cls-2" d="M14.22,32.07s-8.29-1.73-6.5-8.58c1.79-6.85,8.29-7.39,10.25-7.45s12.1,1.31,15.2.95,7.03-.77,7.39-2.86c.36-2.09-3.87-1.19-6.56,1.73-2.68,2.92-3.75,7.19-3.87,11.54s-.44,13.77-2.19,18.87-4.13,7.62-8.66,8.88-9.3-.24-11.09-1.01c-1.79-.77-4.06-2.45-4.65-3.22S-9.55-2.61,35.23,1.78c44.78,4.39,36.4,8.52,34.93,9.32s-4.39,1.43-7.51,2.74-7.72,8.31-8.99,10.89-8.3,11.17-16.1,11.92c-7.81.75-7.46-.12-8.5-.93-1.04-.81,1.97-2.49,5.49-1.21,3.53,1.27,6.13,1.5,10.81,6.42,4.68,4.91,9.89,12.6,15.73,13.99,5.84,1.39,9.6-4.97,9.6-4.97,0,0,.81-11.04.35-13.82s3.99-3.47,5.15-1.39c1.16,2.08,1.1,5.78,1.1,5.78,0,0-2.37,3.76-2.72,8.9-.35,5.15,3.41,6.36,5.72,4.28,2.31-2.08,3.9-7.87,4.09-10.7s-.71,13.68-1.02,19.23c.84,7.62-.18,19.8-5.27,19.8s-3.7-12.89,6.3-24.23c10-11.33,11.04-16.42,11.04-16.42,0,0-5.44,9.95-.93,12.72s7.86-2.81,8.15-12.33c0,0-2.6,11.52,3.24,12.91,5.84,1.39,13.65-16.42,15.61-28.56,1.97-12.14-3.12-14.57-5.15-10.64-2.02,3.93-4.34,15.61-1.1,35.56,0,0,2.96,7.37,8.1,3.57,5.14-3.81,2.41-12.18-.44-12.44-2.86-.25-3.62,2.16-3.36,3.17s.87,2.69,2.18,2.93,2.45-.33,2.45-.33c0,0,2.03,4.7,6.41,4.76,4.38.06,6.54-6.92,6.54-6.92,0,0,.33-4.21.29-5.63,0,0-1.88,10.83.92,14.32,2.79,3.49,9.33-2.09,11.3-8.69,1.97-6.6,21.43-29.42,36.4-12.99l1.9,5.48-3.18,2.03s-3.18-7.95-14.22-5.92c-11.04,2.03-8.66,14.14-4.42,17.14s20.23,10.87,31.98-11.66c11.75-22.53,6.27-25.97,6.27-25.97,0,0-1.59-.53-.71,6.89.88,7.42,7.42,32.42,7.42,32.42,0,0,13.31-33.1,23.27-42.3,0,0-11.96,24.72-2.86,40.36,0,0,2.1,3.31,8.03,3.69,0,0,1.96-1.66-1.49-11.99-3.45-10.34,5.3-3.49,5.3-3.49,0,0-3.27,14.9,2.12,15.95,5.39,1.06,9.63-9.19,9.63-9.19,0,0,.63-30.22.49-31.85s-.83,41.98-.44,42.13c0,0,3.3-14.86,9.13-14.73,5.83.12,3.09,7.99-3.98,9.49,0,0-.44,3.1,4.06,4.16,4.51,1.06,10.16-4.33,11.31-8.49l3.18-15.99s13.08,5.76,11.84,10.83-4.12,2.56-4.12,2.56c0,0-5.05-5.68-9.67,1.1s.75,11.17,3.98,8.92c3.23-2.25,3.67-7.72,3.67-7.72,0,0,.03,11.26,6.22,7.64,6.19-3.62,5.4-9.18,5.4-9.18l1.4-2.08-5.86-41.49-154.97,2.62-2.35,25.77,1.44,2.36s.42,2.03,1.94,2.03,1.84-1,1.84-1.77-.49-1.94-1.8-2.01c-1.31-.07-3.29,1.98-3.08,3.97.21,1.98,7.24,8.68,11.32,2.47,4.08-6.21,43.29-28.92,43.29-28.92l56.53-2.78-6.54,21.6s1.68,7.08,3.51,7.45c1.83.37,3.73-2.32.79-3.69,0,0-1.25-.27-1.71.7-.46.98-1.01,4.79.64,4.95,1.65.15,7.91-3.73,7.91-3.73"/>
    </g>
  </mask>
</svg>