<?xml version="1.0" encoding="UTF-8"?>
<svg class="handwriting" xmlns="http://www.w3.org/2000/svg" viewBox="0 0 588.28 94.54">
                <g class="handwriting__text" id="text">
                    <g>
                        <path class="cls-1"
                            d="M33.9,28.35c-.29.41-.57.88-.83,1.42-.26.54-.5,1.16-.72,1.86-.22.7-.39,1.51-.53,2.42-.14.91-.22,1.93-.26,3.06-.04,1.05-.07,2.11-.1,3.16s-.07,2.11-.13,3.16c.1-.02.25-.03.47-.03,1,0,2.12.15,3.37.45,1.25.3,2.54.76,3.87,1.36,1.8-.47,3.38-1.08,4.76-1.85s2.6-1.62,3.66-2.56c1.06-.95,2.01-1.96,2.84-3.05.83-1.08,1.6-2.17,2.3-3.27.7-1.09,1.37-2.17,1.99-3.24.62-1.06,1.28-2.05,1.96-2.94.7-.94,1.51-1.83,2.42-2.67.91-.84,1.85-1.57,2.81-2.18s1.94-1.1,2.92-1.46c.98-.36,1.89-.54,2.75-.54.29,0,.56.09.81.28.24.19.37.44.37.78,0,.31-.1.58-.31.79-.21.22-.46.33-.78.35-.59.02-1.27.18-2.07.47s-1.61.7-2.45,1.23c-.84.53-1.67,1.15-2.49,1.88-.82.72-1.56,1.53-2.23,2.43-.76,1.04-1.47,2.09-2.12,3.16-.65,1.07-1.32,2.13-1.99,3.18-.67,1.04-1.39,2.07-2.15,3.08s-1.63,1.96-2.61,2.87c-.98.91-2.09,1.76-3.35,2.56s-2.72,1.52-4.38,2.17c1.39.88,2.72,1.98,4.01,3.3s2.69,2.79,4.19,4.41c1.25,1.35,2.43,2.62,3.53,3.81,1.1,1.19,2.18,2.23,3.22,3.12,1.04.89,2.06,1.59,3.05,2.09.99.51,1.99.76,3,.76,1.25,0,2.45-.33,3.6-.98,1.15-.65,2.13-1.61,2.93-2.86.21-.33.53-.5.94-.5.33,0,.6.12.81.35s.31.49.31.76c0,.21-.06.41-.18.59-1,1.58-2.24,2.79-3.72,3.62-1.48.83-3.04,1.25-4.66,1.25-1.25,0-2.45-.27-3.6-.81-1.15-.54-2.3-1.28-3.46-2.23-1.15-.95-2.33-2.06-3.54-3.34-1.21-1.28-2.5-2.66-3.87-4.15-.9-.96-1.74-1.86-2.53-2.7s-1.56-1.61-2.31-2.3c-.75-.69-1.51-1.32-2.27-1.88s-1.55-1.04-2.37-1.45c-1.05.25-2.07.43-3.05.53-.98.1-1.88.15-2.7.15-.39,0-.75,0-1.08-.03-.33-.02-.63-.06-.91-.12-.16,1.72-.39,3.37-.69,4.97-.3,1.59-.71,3.09-1.22,4.48-.51,1.4-1.15,2.67-1.92,3.82-.77,1.15-1.71,2.14-2.81,2.96-1.1.82-2.4,1.46-3.9,1.92s-3.22.69-5.17.69c-1.11,0-2.21-.09-3.3-.28s-2.13-.46-3.13-.82c-1.01-.36-1.96-.8-2.87-1.32s-1.72-1.11-2.45-1.77c-.23-.2-.35-.47-.35-.82,0-.29.11-.55.32-.78.21-.22.47-.34.76-.34.31,0,.57.1.76.29,1.27,1.15,2.8,2.05,4.6,2.68,1.8.63,3.68.95,5.65.95,2.48,0,4.55-.42,6.2-1.26,1.65-.84,2.98-2.03,4-3.56,1.02-1.53,1.78-3.37,2.29-5.51.51-2.14.87-4.52,1.08-7.13-.23-.21-.41-.44-.51-.69-.11-.24-.16-.5-.16-.78,0-.66.3-1.21.91-1.64.06-1.15.1-2.33.13-3.53s.06-2.44.1-3.71c.04-2.01.25-3.7.64-5.07.39-1.37.82-2.52,1.29-3.46-.98.04-2,0-3.08-.1-1.07-.11-2.17-.23-3.28-.37-1.11-.14-2.23-.27-3.34-.4-1.11-.13-2.2-.19-3.25-.19-1.35,0-2.62.2-3.81.59-1.19.39-2.23.94-3.12,1.66-.89.71-1.59,1.57-2.09,2.56-.51,1-.76,2.09-.76,3.28,0,1.04.22,1.89.66,2.55.44.66.93,1.2,1.48,1.6.55.4,1.05.68,1.51.83.46.16.72.24.78.26.25.06.46.19.62.4.16.21.23.43.23.69,0,.33-.12.6-.35.79s-.49.29-.76.29c-.12,0-.21,0-.26-.03-.55-.12-1.17-.35-1.88-.7s-1.37-.83-1.99-1.42c-.63-.6-1.15-1.33-1.58-2.2-.43-.87-.64-1.89-.64-3.06,0-1.52.31-2.92.94-4.17.62-1.26,1.48-2.34,2.56-3.25s2.35-1.61,3.81-2.11c1.45-.5,3-.75,4.64-.75,1.27,0,2.56.07,3.87.21,1.31.14,2.59.28,3.84.42,1.25.15,2.45.27,3.59.38,1.14.11,2.19.12,3.15.04.37-.47.82-.93,1.35-1.38.53-.45,1.09-.84,1.68-1.19.6-.34,1.2-.62,1.82-.83.62-.21,1.22-.32,1.8-.32.62,0,1.16.19,1.61.57.45.38.67.86.67,1.45,0,.47-.21.92-.63,1.35-.42.43-.99.82-1.7,1.17-.71.35-1.54.64-2.49.88-.95.23-1.94.38-2.97.44ZM35.71,46.04c-.18-.06-.41-.12-.7-.19s-.62-.13-.97-.19-.72-.11-1.11-.15c-.39-.04-.77-.06-1.14-.06-.1,0-.19,0-.28.01s-.18.02-.28.04c-.02.1-.03.2-.03.31s-.01.21-.03.31c.29.08.82.12,1.58.12h.56c.25,0,.53,0,.83-.03.3-.02.6-.04.88-.06.28-.02.51-.06.69-.12ZM39.49,24.28c-.2,0-.45.05-.78.15-.32.1-.66.23-1.03.41-.36.18-.73.37-1.1.59-.37.22-.7.44-1,.67.51-.04,1.03-.16,1.57-.35.54-.19,1.01-.4,1.42-.62.41-.21.71-.41.89-.59.19-.18.19-.26.01-.26Z" />
                        <path class="cls-1"
                            d="M84.46,66.08c.68-.68,1.38-1.38,2.08-2.09s1.39-1.46,2.05-2.24c.66-.78,1.28-1.6,1.86-2.45.58-.85,1.09-1.75,1.54-2.71.1-.21.23-.38.41-.48s.37-.16.59-.16c.33,0,.6.12.81.35s.31.5.31.79c0,.16-.03.3-.09.44-.61,1.27-1.3,2.43-2.08,3.49-.78,1.05-1.6,2.06-2.46,3-.86.95-1.73,1.87-2.61,2.75s-1.72,1.78-2.52,2.68c-.08,1.35-.08,2.7,0,4.06.08,1.36.12,2.8.12,4.32,0,1.25-.04,2.5-.12,3.75-.08,1.25-.21,2.45-.38,3.59s-.42,2.21-.72,3.21c-.3,1-.69,1.86-1.16,2.59s-1.02,1.31-1.64,1.73c-.63.42-1.36.63-2.2.63-1.39,0-2.45-.48-3.19-1.44-.74-.96-1.11-2.29-1.11-4.01,0-.94.1-1.94.31-3.02s.49-2.18.86-3.33c.37-1.14.82-2.3,1.33-3.47.52-1.17,1.08-2.31,1.68-3.43.6-1.11,1.25-2.17,1.93-3.18.68-1.01,1.38-1.92,2.08-2.74.04-.94.08-1.91.13-2.92.05-1.01.1-1.94.16-2.8-.51.9-1.14,1.62-1.89,2.17-.75.55-1.58.82-2.48.82-1.48,0-2.65-.5-3.49-1.49-.84-1-1.26-2.36-1.26-4.1,0-1.27.12-2.43.37-3.47.24-1.04.51-1.94.79-2.7.28-.75.54-1.33.78-1.73s.35-.59.35-.57c.21-.33.52-.5.91-.5.33,0,.6.11.81.34s.31.48.31.78c0,.21-.06.41-.18.59.02-.02-.07.14-.28.48s-.43.83-.67,1.48c-.24.64-.47,1.42-.67,2.31s-.31,1.88-.31,2.96.19,1.91.59,2.52c.39.61,1.03.91,1.9.91,1.11,0,2.12-.83,3.02-2.48.9-1.65,1.66-4.05,2.29-7.19.04-.25.16-.46.35-.63.19-.17.43-.25.7-.25.31,0,.58.11.79.32.21.21.32.48.32.79,0,.06-.04.41-.12,1.04-.08.63-.17,1.48-.28,2.53-.11,1.05-.22,2.28-.34,3.68s-.22,2.89-.29,4.47ZM82.12,72.29c-.88,1.27-1.68,2.61-2.42,4.01s-1.36,2.8-1.89,4.19-.94,2.71-1.23,3.98-.44,2.4-.44,3.4.17,1.81.5,2.39c.33.58.86.86,1.58.86.64,0,1.22-.32,1.71-.95s.92-1.54,1.26-2.71c.34-1.17.6-2.59.78-4.26s.26-3.54.26-5.61c0-.84-.01-1.69-.04-2.55s-.05-1.78-.07-2.75Z" />
                        <path class="cls-1"
                            d="M101.72,62.39c-.68,1.11-1.48,1.99-2.39,2.64s-1.82.97-2.74.97c-.74,0-1.41-.14-1.99-.41s-1.09-.66-1.52-1.16c-.43-.5-.76-1.1-.98-1.8-.22-.7-.34-1.49-.34-2.37,0-1.37.13-2.58.4-3.63s.55-1.94.86-2.65c.31-.71.74-1.44,1.29-2.18.1-.12.22-.21.37-.26s.3-.09.45-.09c.31,0,.57.11.78.34s.31.48.31.78c0,.12-.02.23-.07.35-.05.12-.1.23-.16.35-.1.18-.25.44-.47.81-.22.36-.44.83-.67,1.42s-.44,1.27-.62,2.07-.26,1.69-.26,2.71c0,1.15.23,2.03.69,2.62.46.6,1.11.89,1.95.89.35,0,.76-.11,1.22-.34.46-.22.91-.57,1.35-1.04s.82-1.06,1.16-1.79c.33-.72.55-1.57.64-2.55l.44-5.04c.04-.29.17-.54.38-.73.21-.2.47-.29.76-.29.33,0,.6.12.79.37.19.24.29.52.29.83l-.38,4.86c-.04.41-.02.95.04,1.61.07.66.21,1.32.42,1.96.21.64.54,1.2.97,1.66.43.46,1,.69,1.7.69.51,0,1.01-.13,1.49-.4.49-.26.96-.61,1.41-1.04.45-.43.86-.91,1.25-1.45s.73-1.08,1.05-1.63.6-1.07.83-1.57.43-.92.59-1.27c.1-.21.23-.38.41-.5s.37-.18.59-.18c.35,0,.62.12.82.35.19.23.29.49.29.76,0,.16-.03.3-.09.44-.08.16-.23.48-.45.98-.22.5-.52,1.06-.88,1.7-.36.63-.8,1.3-1.3,2.01-.51.7-1.07,1.35-1.7,1.95-.63.6-1.3,1.08-2.04,1.46s-1.52.57-2.36.57c-1.15,0-2.11-.33-2.87-.98s-1.33-1.59-1.7-2.8Z" />
                        <path class="cls-1"
                            d="M137.7,57.56c-.06.12-.19.36-.38.72-.2.36-.45.78-.76,1.26-.31.48-.68.99-1.11,1.52-.43.54-.9,1.03-1.41,1.48-.51.45-1.05.82-1.64,1.11s-1.19.44-1.82.44c-1.02,0-1.88-.18-2.58-.54s-1.28-.77-1.73-1.22c-.31.68-.69,1.31-1.14,1.88-.45.57-.95,1.06-1.49,1.48-.55.42-1.13.75-1.74.98s-1.25.35-1.89.35c-1.19,0-2.21-.35-3.05-1.05-.84-.7-1.54-1.65-2.09-2.83s-.99-2.55-1.3-4.12c-.31-1.56-.55-3.2-.72-4.92-.17-1.72-.27-3.46-.31-5.21-.04-1.76-.06-3.43-.06-5.01,0-3.03.09-5.65.26-7.87.18-2.22.41-4.1.72-5.65.3-1.55.65-2.81,1.05-3.78.4-.97.82-1.72,1.27-2.26.45-.54.91-.9,1.38-1.1.47-.19.93-.29,1.38-.29.72,0,1.36.22,1.92.64.56.43,1.03,1.03,1.41,1.8.38.77.67,1.7.86,2.8.19,1.09.29,2.3.29,3.6,0,2.09-.22,4.25-.67,6.47-.45,2.23-1.03,4.45-1.74,6.67-.71,2.22-1.51,4.39-2.39,6.53s-1.75,4.17-2.61,6.08c.12.96.29,1.87.53,2.74s.54,1.64.91,2.31c.37.67.81,1.21,1.32,1.61.51.4,1.09.6,1.76.6s1.29-.19,1.88-.57,1.09-.88,1.52-1.49c.43-.62.77-1.31,1.01-2.09.24-.78.37-1.58.37-2.4,0-.55-.05-1.1-.16-1.66-.11-.56-.27-1.05-.5-1.49-.22-.44-.5-.8-.83-1.07-.33-.27-.73-.41-1.2-.41-.35,0-.63.07-.82.22-.2.15-.34.31-.44.5-.1.19-.16.37-.18.54-.02.18-.03.29-.03.35,0,.27.06.55.18.82s.34.52.67.73c.33.23.5.56.5.97,0,.33-.11.6-.34.79-.22.2-.47.29-.75.29-.39,0-.74-.12-1.04-.35-.3-.23-.56-.53-.78-.89-.22-.36-.38-.75-.5-1.16s-.18-.79-.18-1.14c0-.57.1-1.09.29-1.57.19-.48.46-.89.81-1.23.34-.34.73-.61,1.17-.79s.9-.28,1.39-.28c.84,0,1.57.2,2.18.59s1.13.91,1.54,1.55.71,1.38.91,2.2c.19.82.29,1.65.29,2.49,0,.49-.03.97-.09,1.44.08.16.21.36.38.62s.41.5.7.73.64.44,1.05.62.89.26,1.44.26c.47,0,.95-.18,1.45-.54s.98-.81,1.44-1.35c.46-.54.88-1.11,1.27-1.73.39-.62.71-1.19.97-1.71.1-.2.23-.35.41-.45s.37-.16.59-.16c.33,0,.6.12.81.35s.31.5.31.79c0,.12-.04.27-.12.47ZM115.05,53.78c.66-1.64,1.34-3.36,2.02-5.17.68-1.81,1.3-3.65,1.85-5.52.55-1.88,1-3.77,1.35-5.68s.53-3.8.53-5.65c0-.7-.03-1.44-.1-2.21-.07-.77-.19-1.48-.37-2.12s-.42-1.18-.72-1.61c-.3-.43-.69-.64-1.16-.64-.16,0-.36.1-.6.31-.24.21-.5.57-.78,1.08-.27.52-.55,1.24-.82,2.15-.27.92-.52,2.08-.75,3.5-.22,1.42-.41,3.12-.56,5.11s-.22,4.34-.22,7.03c0,.9,0,1.81.03,2.74.02.93.04,1.81.07,2.65s.06,1.61.1,2.31c.04.7.08,1.28.12,1.73Z" />
                        <path class="cls-1"
                            d="M140.48,42.67c0,.74-.26,1.37-.78,1.89-.52.52-1.15.78-1.89.78s-1.37-.26-1.89-.78c-.52-.52-.78-1.15-.78-1.89,0-.37.07-.72.21-1.04.14-.32.33-.61.57-.85.24-.24.53-.43.85-.57s.67-.21,1.04-.21.72.07,1.04.21.6.33.85.57c.24.24.43.53.57.85.14.32.21.67.21,1.04ZM135.73,59.84c0-2.81.18-5.62.53-8.41.04-.27.16-.51.37-.72s.47-.31.81-.31c.29,0,.54.11.73.34.19.22.29.48.29.78,0,.12-.02.47-.07,1.05-.05.59-.11,1.28-.18,2.09-.07.81-.13,1.67-.18,2.58-.05.91-.07,1.74-.07,2.5,0,1.04.1,1.87.31,2.5s.47,1.13.79,1.48.66.59,1.03.7c.36.12.71.18,1.04.18.55,0,1.11-.2,1.7-.59s1.19-.94,1.8-1.64,1.23-1.55,1.86-2.53c.62-.99,1.24-2.08,1.85-3.3.1-.2.23-.35.41-.45s.37-.16.59-.16c.31,0,.57.12.78.35s.31.49.31.76c0,.2-.04.36-.12.5-.23.45-.53,1-.88,1.64s-.75,1.31-1.2,1.99c-.45.68-.94,1.36-1.48,2.04-.54.67-1.11,1.28-1.71,1.82-.61.54-1.24.97-1.9,1.3-.66.33-1.34.5-2.02.5-.88,0-1.65-.19-2.31-.56-.66-.37-1.23-.87-1.68-1.49-.46-.62-.8-1.36-1.03-2.21-.22-.85-.34-1.76-.34-2.74ZM138.84,42.67c0-.27-.1-.51-.31-.72s-.44-.31-.72-.31-.51.1-.7.31c-.2.21-.29.44-.29.72s.1.51.29.7c.19.2.43.29.7.29s.51-.1.72-.29.31-.43.31-.7Z" />
                        <path class="cls-1"
                            d="M230.16,27.94c-.84,1.23-1.78,2.71-2.81,4.42-1.04,1.72-2.14,3.64-3.31,5.77-1,1.78-1.98,3.67-2.94,5.67s-1.89,3.98-2.77,5.95-1.69,3.85-2.43,5.65c-.74,1.81-1.39,3.4-1.93,4.78-.55,1.38-.98,2.48-1.29,3.31-.31.83-.47,1.25-.47,1.27-.2.49-.55.73-1.05.73-.25,0-.48-.08-.67-.25-.2-.17-.32-.38-.38-.63,0-.02-.09-.43-.28-1.25-.19-.81-.44-1.89-.75-3.25-.31-1.36-.67-2.92-1.07-4.69-.4-1.77-.82-3.61-1.26-5.54s-.88-3.87-1.33-5.84c-.45-1.97-.87-3.85-1.26-5.62-1.31,3.69-2.62,6.96-3.94,9.8s-2.67,5.31-4.06,7.41c-1.39,2.1-2.82,3.86-4.29,5.29-1.48,1.43-3.02,2.57-4.63,3.44s-3.3,1.49-5.07,1.86c-1.77.37-3.64.56-5.61.56-1.02,0-2.1-.11-3.25-.34-1.15-.22-2.3-.57-3.43-1.04-1.13-.47-2.22-1.05-3.25-1.76-1.04-.7-1.95-1.54-2.75-2.5-.8-.97-1.44-2.06-1.9-3.28s-.7-2.58-.7-4.09c0-1.58.33-3.03,1-4.35.66-1.32,1.56-2.45,2.7-3.4,1.13-.95,2.45-1.68,3.94-2.21s3.07-.79,4.73-.79c1.21,0,2.3.1,3.27.31s1.82.46,2.56.78c.74.31,1.38.65,1.9,1.03s.97.71,1.32,1.03.6.58.76.81c.16.22.24.34.26.34.12.21.18.42.18.62,0,.27-.1.53-.31.76s-.47.35-.81.35c-.39,0-.7-.17-.94-.5-.02-.02-.18-.2-.47-.54s-.77-.72-1.44-1.13c-.66-.41-1.52-.78-2.56-1.11-1.04-.33-2.32-.5-3.82-.5-1.37,0-2.66.21-3.88.63-1.22.42-2.29,1.01-3.19,1.77s-1.63,1.67-2.17,2.71c-.54,1.04-.81,2.19-.81,3.44s.21,2.35.62,3.37.96,1.92,1.64,2.72c.68.8,1.47,1.49,2.37,2.08.9.59,1.84,1.07,2.81,1.45.98.38,1.96.66,2.94.85.99.19,1.92.28,2.8.28,1.48,0,2.93-.11,4.35-.34,1.42-.22,2.81-.65,4.19-1.27s2.73-1.48,4.06-2.58c1.33-1.09,2.65-2.52,3.96-4.28,1.31-1.76,2.6-3.88,3.88-6.36,1.28-2.48,2.56-5.41,3.85-8.79.39-1.02.77-2.11,1.14-3.28.37-1.17.75-2.35,1.14-3.54-.33-1.72-.57-3.18-.72-4.39-.15-1.21-.22-2.22-.22-3.02,0-.86.07-1.54.21-2.05.14-.51.31-.89.53-1.16.21-.26.45-.43.7-.5.25-.07.5-.1.73-.1.19,0,.41.04.66.12.24.08.47.25.67.51s.38.65.51,1.16c.14.51.21,1.19.21,2.05,0,.94-.09,2.02-.26,3.25s-.44,2.59-.79,4.07c.25,1.19.55,2.52.88,3.98.33,1.46.67,2.98,1.03,4.56s.71,3.18,1.08,4.82c.37,1.64.73,3.24,1.08,4.8s.69,3.06,1.01,4.48.62,2.71.89,3.87c.53-1.33,1.17-2.93,1.93-4.82s1.61-3.89,2.55-6.01,1.93-4.28,2.97-6.47c1.04-2.2,2.11-4.27,3.21-6.23,1.54-2.77,2.96-5.15,4.25-7.13,1.29-1.98,2.4-3.62,3.34-4.91s1.67-2.24,2.21-2.86c.54-.62.82-.95.86-1.01.21-.21.48-.32.79-.32.33,0,.6.11.81.34.21.22.31.48.31.78,0,.14-.03.27-.09.41,0,.02-.11.31-.34.86-.22.56-.51,1.32-.85,2.29-.34.97-.72,2.1-1.13,3.4-.41,1.3-.81,2.7-1.2,4.19-.39,1.49-.74,3.06-1.04,4.69-.3,1.63-.52,3.26-.66,4.88-.06.74-.11,1.52-.15,2.33-.04.81-.06,1.63-.06,2.45,0,1.29.06,2.59.18,3.9s.31,2.57.59,3.78c.27,1.21.64,2.35,1.11,3.41s1.04,2,1.73,2.8c.68.8,1.5,1.45,2.45,1.93.95.49,2.05.75,3.3.79.31.02.56.15.75.4.19.24.28.5.28.78s-.11.52-.32.73c-.22.21-.47.32-.76.32-.31,0-.63-.03-.94-.09-1.41-.2-2.65-.6-3.72-1.22-1.07-.62-2-1.38-2.78-2.29-.78-.91-1.43-1.94-1.95-3.11-.52-1.16-.93-2.41-1.25-3.74-.31-1.33-.53-2.71-.66-4.15-.13-1.44-.19-2.89-.19-4.35,0-1.74.09-3.48.26-5.21s.41-3.43.7-5.08.63-3.25,1.03-4.79c.39-1.54.79-2.98,1.2-4.31Z" />
                        <path class="cls-1"
                            d="M246.01,42.67c0,.74-.26,1.37-.78,1.89-.52.52-1.15.78-1.89.78s-1.37-.26-1.89-.78c-.52-.52-.78-1.15-.78-1.89,0-.37.07-.72.21-1.04.14-.32.33-.61.57-.85.24-.24.53-.43.85-.57s.67-.21,1.04-.21.72.07,1.04.21.6.33.85.57c.24.24.43.53.57.85.14.32.21.67.21,1.04ZM241.26,59.84c0-2.81.18-5.62.53-8.41.04-.27.16-.51.37-.72s.47-.31.81-.31c.29,0,.54.11.73.34.19.22.29.48.29.78,0,.12-.02.47-.07,1.05-.05.59-.11,1.28-.18,2.09-.07.81-.13,1.67-.18,2.58-.05.91-.07,1.74-.07,2.5,0,1.04.1,1.87.31,2.5s.47,1.13.79,1.48.66.59,1.03.7c.36.12.71.18,1.04.18.55,0,1.11-.2,1.7-.59s1.19-.94,1.8-1.64,1.24-1.55,1.86-2.53,1.24-2.08,1.85-3.3c.1-.2.23-.35.41-.45s.37-.16.59-.16c.31,0,.57.12.78.35s.31.49.31.76c0,.2-.04.36-.12.5-.23.45-.53,1-.88,1.64s-.75,1.31-1.2,1.99-.94,1.36-1.48,2.04-1.11,1.28-1.71,1.82-1.24.97-1.9,1.3-1.34.5-2.02.5c-.88,0-1.65-.19-2.31-.56-.66-.37-1.23-.87-1.68-1.49-.46-.62-.8-1.36-1.03-2.21-.22-.85-.34-1.76-.34-2.74ZM244.37,42.67c0-.27-.1-.51-.31-.72s-.44-.31-.72-.31-.51.1-.7.31c-.2.21-.29.44-.29.72s.1.51.29.7c.19.2.43.29.7.29s.51-.1.72-.29.31-.43.31-.7Z" />
                        <path class="cls-1"
                            d="M261.21,62.07c.33.74.88,1.33,1.64,1.77s1.62.66,2.58.66c.29,0,.77-.04,1.44-.13s1.43-.38,2.3-.88,1.79-1.28,2.77-2.36,1.92-2.59,2.84-4.54c.1-.21.23-.38.41-.48s.37-.16.59-.16c.33,0,.6.12.81.35s.31.49.31.76c0,.12-.04.27-.12.47-.68,1.43-1.45,2.7-2.29,3.82s-1.75,2.08-2.72,2.87-2,1.4-3.06,1.82-2.15.63-3.27.63c-.88,0-1.7-.14-2.48-.41s-1.44-.64-1.99-1.1-1-.98-1.32-1.55-.48-1.17-.48-1.77c0-.08,0-.19.03-.32s.07-.29.16-.45.21-.32.38-.47.4-.27.69-.37c.8-.23,1.54-.52,2.21-.86s1.25-.73,1.74-1.16.87-.9,1.14-1.42.41-1.08.41-1.68c0-.53-.18-.96-.53-1.29s-.78-.5-1.29-.5-1.04.18-1.55.54-1,.84-1.48,1.44-.93,1.28-1.36,2.05-.83,1.58-1.19,2.42-.68,1.67-.95,2.5-.5,1.6-.67,2.3c-.06.21-.12.45-.19.7s-.17.49-.31.72-.3.41-.5.56-.45.22-.76.22c-.29,0-.58-.12-.85-.37s-.41-.66-.41-1.25c0-.12,0-.57.01-1.35s.02-1.8.04-3.06.04-2.71.07-4.34.05-3.36.07-5.19.05-3.71.09-5.64.07-3.82.09-5.65c.02-1.84.04-3.58.07-5.23.03-1.65.05-3.12.07-4.39.02-1.28.03-2.32.04-3.13,0-.81.01-1.29.01-1.45,0-.31.12-.57.35-.78s.49-.31.76-.31c.31,0,.58.1.79.31s.32.47.32.81c0,.04,0,.42-.01,1.16s-.02,1.71-.04,2.94-.04,2.67-.07,4.31-.06,3.38-.09,5.23-.06,3.75-.09,5.7-.06,3.86-.09,5.71-.05,3.62-.07,5.3-.04,3.16-.06,4.45c.31-1,.71-2.05,1.2-3.15s1.06-2.12,1.73-3.06,1.41-1.71,2.24-2.31,1.75-.91,2.77-.91c.57,0,1.09.1,1.58.31s.91.49,1.27.85.64.79.85,1.27.31,1.02.31,1.58c0,.88-.2,1.68-.59,2.42s-.91,1.39-1.55,1.96-1.38,1.08-2.21,1.51-1.68.78-2.56,1.05Z" />
                        <path class="cls-1"
                            d="M297.42,57.5c-.08.16-.24.48-.48.98s-.56,1.07-.94,1.71-.83,1.32-1.33,2.02-1.07,1.35-1.7,1.93c-.62.59-1.3,1.07-2.02,1.45s-1.48.57-2.29.57c-1.13,0-2.08-.36-2.86-1.08s-1.33-1.63-1.68-2.72c-.66,1.11-1.46,2-2.37,2.65s-1.84.98-2.75.98c-.72,0-1.38-.13-1.96-.4s-1.08-.63-1.49-1.11-.73-1.04-.95-1.68-.34-1.35-.34-2.11c0-1.52.26-2.87.78-4.03s1.18-2.13,1.98-2.92,1.68-1.37,2.65-1.76,1.9-.59,2.8-.59c.61,0,1.16.08,1.67.25s.94.35,1.3.54.64.38.83.54.3.26.32.28c.21.25.32.52.32.79,0,.29-.11.55-.32.78s-.47.34-.76.34c-.31,0-.58-.11-.79-.32-.04-.04-.13-.11-.26-.22s-.32-.22-.56-.34-.51-.22-.83-.31-.69-.13-1.1-.13c-.61,0-1.25.14-1.93.41s-1.31.7-1.88,1.27-1.04,1.3-1.42,2.17-.57,1.9-.57,3.09c0,.37.04.75.12,1.13s.21.73.41,1.04.46.57.79.76.74.29,1.23.29c.35,0,.76-.12,1.22-.35s.9-.6,1.32-1.08.8-1.1,1.14-1.85.58-1.62.72-2.64c.04-.27.17-.5.38-.69s.47-.28.76-.28c.27,0,.51.11.72.32s.32.46.34.73c.02.37.06.89.12,1.57s.19,1.34.4,2.01.51,1.24.92,1.73.98.73,1.7.73c.47,0,.93-.13,1.39-.38s.91-.59,1.35-1.01.86-.9,1.26-1.44c.4-.54.77-1.08,1.1-1.63s.62-1.07.88-1.58.47-.95.64-1.32c.1-.21.24-.38.42-.5s.39-.18.6-.18c.33,0,.6.12.81.37s.31.5.31.78c0,.14-.03.27-.09.41Z" />
                        <path class="cls-1"
                            d="M362.64,36.76c0,2.36-.45,4.48-1.35,6.34s-2.17,3.45-3.81,4.75-3.6,2.29-5.89,2.99-4.8,1.04-7.56,1.04c-.33,0-.62-.09-.86-.28s-.37-.46-.37-.83c0-.29.11-.55.32-.76s.48-.32.79-.32c2.46,0,4.71-.28,6.74-.85s3.77-1.4,5.21-2.5,2.57-2.46,3.37-4.06,1.2-3.44,1.2-5.51-.46-3.98-1.39-5.62-2.23-3.03-3.9-4.16c-1.67-1.13-3.66-1.99-5.98-2.58s-4.86-.88-7.63-.88c-2.62,0-5.15.22-7.6.64-2.45.43-4.75,1.04-6.9,1.82-2.15.78-4.11,1.72-5.87,2.81-1.77,1.09-3.28,2.3-4.54,3.6-1.26,1.31-2.24,2.71-2.94,4.2s-1.05,3.04-1.05,4.64c0,1.41.24,2.64.73,3.69s1.14,1.94,1.95,2.65,1.74,1.25,2.8,1.6,2.16.53,3.31.53c1.37,0,2.58-.15,3.65-.44s1.96-.62,2.7-.97,1.29-.68,1.68-.98.61-.47.64-.51c.21-.21.47-.32.76-.32s.55.11.78.34.34.48.34.78c0,.33-.12.6-.35.79-.04.04-.29.24-.75.62s-1.12.78-1.99,1.22-1.93.83-3.18,1.19-2.68.53-4.28.53c-1.46,0-2.87-.24-4.2-.73s-2.51-1.2-3.52-2.12-1.81-2.05-2.4-3.37-.89-2.81-.89-4.47c0-1.82.38-3.57,1.13-5.26.75-1.69,1.81-3.27,3.16-4.75,1.36-1.47,2.98-2.82,4.88-4.04,1.89-1.22,3.99-2.27,6.3-3.13,2.3-.87,4.78-1.54,7.41-2.02,2.64-.48,5.37-.72,8.2-.72,3.11,0,5.96.35,8.55,1.05s4.83,1.72,6.69,3.05c1.87,1.33,3.32,2.94,4.35,4.85s1.55,4.07,1.55,6.49ZM345.23,29.78c.29,0,.55.1.78.31s.34.47.34.81c0,.2-.05.37-.16.53-.11.16-.24.3-.4.44-1.09.86-1.97,1.79-2.62,2.78s-1.15,2.07-1.49,3.21-.57,2.36-.67,3.65-.16,2.64-.16,4.04v3.69c0,2.42-.21,4.72-.64,6.9s-1.16,4.09-2.18,5.73-2.4,2.94-4.12,3.91-3.88,1.45-6.47,1.45c-1.17,0-2.32-.14-3.44-.42s-2.18-.69-3.18-1.23-1.91-1.2-2.75-1.98-1.56-1.66-2.17-2.64c-.04-.08-.08-.17-.12-.28s-.06-.21-.06-.31c0-.27.1-.52.31-.75s.47-.34.81-.34c.2,0,.38.05.54.16s.31.24.42.4c1.25,1.74,2.67,3.04,4.25,3.91s3.38,1.3,5.39,1.3c2.3,0,4.18-.42,5.64-1.27s2.6-2.01,3.43-3.49,1.4-3.2,1.7-5.17.45-4.07.45-6.3v-3.72c0-1.31.06-2.66.18-4.06s.39-2.76.81-4.1c.42-1.34,1.03-2.61,1.82-3.81s1.86-2.26,3.21-3.18c.08-.04.18-.08.29-.12.12-.04.21-.06.29-.06Z" />
                        <path class="cls-1"
                            d="M378.13,62.45c-.49,0-.92-.04-1.29-.12-.29.59-.64,1.13-1.05,1.63s-.88.93-1.42,1.3-1.14.66-1.8.88-1.39.32-2.17.32c-.92,0-1.76-.16-2.52-.48s-1.43-.77-1.99-1.35-1.01-1.27-1.32-2.08-.47-1.7-.47-2.68c0-1.25.22-2.34.67-3.27s.97-1.7,1.55-2.31,1.17-1.07,1.76-1.38,1.03-.45,1.32-.45c.33,0,.58.09.75.26s.25.41.25.7c0,.33-.1.58-.31.75s-.46.33-.78.48-.64.38-1,.66-.68.64-.98,1.07-.55.94-.75,1.52-.29,1.24-.29,1.96c0,.64.1,1.25.29,1.8s.48,1.04.85,1.44.81.71,1.32.94,1.07.34,1.7.34c1.11,0,2.04-.26,2.77-.78s1.29-1.18,1.68-1.98c-1.15-.61-2.1-1.46-2.84-2.58s-1.11-2.36-1.11-3.75c0-1.11.27-2.02.81-2.72s1.25-1.05,2.12-1.05c.53,0,1.03.13,1.49.38s.88.65,1.25,1.2.65,1.25.86,2.11.32,1.88.32,3.08c0,.62-.08,1.28-.23,1.96.12.02.23.03.35.03h.38c.66,0,1.26-.08,1.79-.23s1.01-.39,1.44-.7.82-.71,1.16-1.2.67-1.05.98-1.7c.06-.12.19-.23.38-.34s.39-.16.59-.16c.25,0,.49.1.72.31s.34.47.34.81c0,.16-.04.33-.12.51s-.16.36-.23.51c-.33.59-.72,1.15-1.16,1.68s-.96,1.01-1.55,1.41-1.26.72-2.01.95-1.57.34-2.49.32ZM373.12,55.07c0,.37.05.76.15,1.17s.25.82.45,1.22.46.78.76,1.14.66.67,1.07.92c.06-.41.09-.81.09-1.2,0-.53-.04-1.06-.12-1.61s-.19-1.05-.34-1.51-.33-.83-.54-1.11-.47-.42-.76-.42c-.12,0-.27.09-.47.26s-.29.56-.29,1.14Z" />
                        <path class="cls-1"
                            d="M386.66,53.63c-.08.53-.18,1.02-.29,1.48s-.23.86-.34,1.2-.2.62-.28.83-.13.33-.15.35c-.2.45-.54.67-1.03.67-.27,0-.53-.1-.76-.31s-.35-.46-.35-.78c0-.12.02-.21.06-.26s.1-.18.18-.35.18-.47.29-.88.26-1.04.44-1.9c-.33,0-.67,0-1.03-.03s-.68-.09-.98-.21-.55-.3-.75-.56-.29-.61-.29-1.05c0-.33.09-.78.28-1.35s.43-1.12.75-1.67.66-1.02,1.05-1.42.78-.6,1.17-.6c.45,0,.82.17,1.1.5s.5.74.66,1.22.27.98.34,1.51.1.99.1,1.38c.33,0,.66,0,.98-.01s.63-.01.92-.01c1.11,0,1.96.24,2.55.73s.88,1.29.88,2.4c0,.45-.03.92-.09,1.41s-.13.99-.21,1.51-.15,1.03-.21,1.54-.09,1.01-.09,1.49c0,.7.1,1.28.29,1.74s.44.83.73,1.1.61.46.94.57.63.16.91.16c.84,0,1.63-.27,2.37-.82s1.43-1.21,2.05-1.98,1.19-1.59,1.68-2.45.91-1.61,1.25-2.26c.1-.18.23-.31.41-.41s.36-.15.56-.15c.35,0,.62.11.82.34s.29.47.29.75c0,.2-.04.37-.12.53-.45.8-.97,1.7-1.57,2.71s-1.27,1.95-2.04,2.83-1.62,1.62-2.56,2.23-1.99.91-3.12.91c-.7,0-1.37-.13-1.99-.4s-1.17-.64-1.63-1.14-.83-1.11-1.1-1.85-.41-1.56-.41-2.48c0-.98.1-1.95.29-2.92s.29-1.89.29-2.77c0-.37-.08-.65-.25-.83s-.53-.28-1.1-.28h-.89c-.32,0-.67,0-1.04.03ZM384.7,51.46c0-.14,0-.32-.01-.54s-.03-.44-.06-.66-.07-.4-.12-.56-.1-.23-.16-.23-.13.07-.22.22-.18.32-.28.53-.19.42-.26.66-.14.43-.18.59h1.29Z" />
                        <path class="cls-1"
                            d="M425.51,36.35c0,.31-.11.56-.32.75-.21.19-.48.28-.79.28h-14.85v.32c0,1.19-.09,2.46-.26,3.81s-.42,2.69-.72,4.03-.64,2.64-1.03,3.91-.77,2.44-1.17,3.52-.8,2.01-1.19,2.8-.74,1.38-1.05,1.77c.25.9.56,1.73.91,2.5s.75,1.45,1.19,2.02.91,1.03,1.42,1.36,1.05.5,1.64.5c.68,0,1.36-.29,2.04-.86s1.3-1.26,1.88-2.05,1.08-1.59,1.52-2.4.76-1.46.95-1.95c.2-.47.54-.7,1.03-.7.33,0,.6.12.81.35s.31.49.31.76c0,.14-.03.27-.09.41s-.2.45-.42.94-.52,1.05-.88,1.7-.78,1.32-1.26,2.04-1.02,1.36-1.61,1.95-1.24,1.07-1.92,1.46-1.41.59-2.17.59c-1.35,0-2.56-.44-3.63-1.32s-1.99-2.11-2.74-3.69-1.32-3.46-1.71-5.62-.59-4.54-.59-7.12c0-.64,0-1.4.03-2.27s.06-1.79.12-2.75.15-1.96.26-2.99.27-2.03.47-3h-10.52c-.31,0-.58-.09-.79-.28-.21-.19-.32-.43-.32-.75s.11-.56.32-.75c.21-.19.48-.28.79-.28h11.02c.2-.7.42-1.35.69-1.93s.57-1.09.91-1.52c.34-.43.72-.77,1.14-1.01.42-.24.88-.37,1.39-.37s.91.12,1.27.37c.36.24.67.58.92,1.01.25.43.45.94.6,1.52s.26,1.23.34,1.93h14.97c.31,0,.58.09.79.28.21.19.32.44.32.75ZM403.45,54.6c.59-1.29,1.12-2.68,1.6-4.17s.89-3,1.23-4.53.61-3.02.79-4.48.28-2.81.28-4.04h-3.46c-.27,1.21-.49,2.71-.66,4.5s-.25,3.96-.25,6.52c0,1.43.04,2.62.12,3.59s.2,1.84.35,2.62ZM406.17,32.68c-.18,0-.43.19-.76.57s-.66,1.07-1,2.07h2.81c-.1-.82-.24-1.46-.42-1.93s-.4-.7-.63-.7Z" />
                        <path class="cls-1"
                            d="M418.07,67.11c1.45-.64,2.76-1.39,3.94-2.23s2.24-1.72,3.16-2.65,1.72-1.88,2.37-2.84,1.18-1.89,1.57-2.77c.18-.43.51-.64,1-.64.33,0,.6.11.81.34s.31.47.31.75c0,.16-.03.3-.09.44-.43.96-.98,1.95-1.64,2.97s-1.47,2.03-2.42,3.02-2.06,1.94-3.33,2.86-2.72,1.76-4.37,2.52c1.05,1.09,1.97,2.31,2.75,3.65s1.43,2.73,1.95,4.17.91,2.91,1.17,4.38.4,2.89.4,4.23c0,1.23-.11,2.39-.34,3.47s-.56,2.03-1,2.83-.97,1.43-1.6,1.89-1.34.69-2.14.69c-1.17,0-2.08-.43-2.72-1.3s-1.12-2.07-1.42-3.6-.48-3.34-.53-5.42-.07-4.34-.07-6.78v-4.23c0-1.61,0-3.34.01-5.19s.02-3.78.03-5.8.02-4.05.04-6.08.04-4.03.06-5.99.05-3.82.09-5.58c.06-3.36.18-6.36.35-8.99s.46-4.86.85-6.68.92-3.2,1.6-4.15c.67-.95,1.53-1.42,2.56-1.42.82,0,1.51.23,2.08.69.57.46,1.03,1.07,1.38,1.85.35.77.61,1.67.76,2.71.16,1.04.23,2.12.23,3.25,0,2.38-.21,4.69-.62,6.91s-.97,4.38-1.67,6.47-1.53,4.13-2.48,6.12-1.96,3.96-3.03,5.89v5.38c0,.93,0,1.82-.01,2.67s-.01,1.59-.01,2.21ZM418.07,70.71c0,1.23,0,2.38-.01,3.44s-.01,2.04-.01,2.92c0,1.82,0,3.61.03,5.39s.11,3.37.28,4.79.42,2.56.76,3.43.83,1.3,1.48,1.3c.59,0,1.06-.26,1.44-.79s.66-1.15.86-1.88.35-1.46.42-2.21.12-1.36.12-1.83c0-1.19-.11-2.44-.34-3.75s-.57-2.6-1.03-3.88-1.02-2.51-1.68-3.71-1.44-2.27-2.31-3.22ZM418.15,52.34c.8-1.5,1.54-3.09,2.21-4.76s1.25-3.39,1.74-5.17.87-3.59,1.14-5.45.41-3.72.41-5.6c0-.94-.04-1.79-.13-2.55s-.22-1.41-.41-1.95c-.19-.54-.42-.96-.7-1.26-.28-.3-.61-.45-.98-.45-.39,0-.73.23-1.03.7s-.55,1.09-.76,1.88c-.21.78-.4,1.68-.54,2.7-.15,1.02-.27,2.08-.37,3.18-.1,1.1-.18,2.21-.23,3.31-.06,1.1-.1,2.14-.13,3.11s-.05,1.82-.06,2.56-.01,1.3-.01,1.67c-.02.78-.03,1.47-.04,2.08s-.02,1.2-.04,1.79-.03,1.21-.04,1.88-.01,1.45-.01,2.34Z" />
                        <path class="cls-1"
                            d="M442.62,62.45c-.49,0-.92-.04-1.29-.12-.29.59-.64,1.13-1.05,1.63s-.88.93-1.42,1.3-1.14.66-1.8.88-1.39.32-2.17.32c-.92,0-1.76-.16-2.52-.48s-1.43-.77-1.99-1.35-1.01-1.27-1.32-2.08-.47-1.7-.47-2.68c0-1.25.22-2.34.67-3.27s.97-1.7,1.55-2.31,1.17-1.07,1.76-1.38,1.03-.45,1.32-.45c.33,0,.58.09.75.26s.25.41.25.7c0,.33-.1.58-.31.75s-.46.33-.78.48-.64.38-1,.66-.68.64-.98,1.07-.55.94-.75,1.52-.29,1.24-.29,1.96c0,.64.1,1.25.29,1.8s.48,1.04.85,1.44.81.71,1.32.94,1.07.34,1.7.34c1.11,0,2.04-.26,2.77-.78s1.29-1.18,1.68-1.98c-1.15-.61-2.1-1.46-2.84-2.58s-1.11-2.36-1.11-3.75c0-1.11.27-2.02.81-2.72s1.25-1.05,2.12-1.05c.53,0,1.03.13,1.49.38s.88.65,1.25,1.2.65,1.25.86,2.11.32,1.88.32,3.08c0,.62-.08,1.28-.23,1.96.12.02.23.03.35.03h.38c.66,0,1.26-.08,1.79-.23s1.01-.39,1.44-.7.82-.71,1.16-1.2.67-1.05.98-1.7c.06-.12.19-.23.38-.34s.39-.16.59-.16c.25,0,.49.1.72.31s.34.47.34.81c0,.16-.04.33-.12.51s-.16.36-.23.51c-.33.59-.72,1.15-1.16,1.68s-.96,1.01-1.55,1.41-1.26.72-2.01.95-1.57.34-2.49.32ZM437.61,55.07c0,.37.05.76.15,1.17s.25.82.45,1.22.46.78.76,1.14.66.67,1.07.92c.06-.41.09-.81.09-1.2,0-.53-.04-1.06-.12-1.61s-.19-1.05-.34-1.51-.33-.83-.54-1.11-.47-.42-.76-.42c-.12,0-.27.09-.47.26s-.29.56-.29,1.14Z" />
                        <path class="cls-1"
                            d="M464.74,57.56c-.21.45-.48.98-.81,1.6s-.69,1.25-1.1,1.92-.87,1.32-1.38,1.98-1.06,1.24-1.66,1.76-1.23.94-1.9,1.26-1.39.48-2.15.48c-1.17,0-2.18-.36-3.02-1.08s-1.55-1.67-2.14-2.84-1.06-2.5-1.42-4-.64-3.02-.83-4.57-.33-3.06-.4-4.53-.1-2.76-.1-3.9c0-1.64.05-3.34.16-5.1s.28-3.48.51-5.16c.23-1.68.53-3.27.89-4.78.36-1.5.79-2.82,1.29-3.96.5-1.13,1.07-2.03,1.71-2.7.64-.66,1.38-1,2.2-1,.64,0,1.23.15,1.74.45.52.3.95.8,1.3,1.48.35.68.62,1.57.82,2.67.2,1.09.29,2.43.29,4.01,0,1.95-.21,3.97-.62,6.05s-.97,4.17-1.67,6.28-1.53,4.21-2.49,6.31-1.98,4.15-3.08,6.14c.49,2.48,1.14,4.43,1.96,5.84s1.81,2.12,2.96,2.12c.78,0,1.53-.31,2.26-.92s1.39-1.34,1.99-2.18,1.14-1.69,1.6-2.56.82-1.57,1.07-2.09c.1-.2.23-.35.41-.45s.37-.16.59-.16c.33,0,.6.12.81.35s.31.5.31.79c0,.12-.04.27-.12.47ZM450.06,45.78c0,1.25.03,2.45.09,3.6s.14,2.26.23,3.31c.82-1.58,1.6-3.27,2.34-5.05s1.4-3.59,1.96-5.42,1.02-3.64,1.36-5.45c.34-1.81.51-3.53.51-5.17,0-2.3-.19-3.96-.56-4.95s-.87-1.49-1.49-1.49c-.41,0-.81.28-1.19.85-.38.57-.74,1.34-1.07,2.31-.33.98-.63,2.13-.91,3.46-.27,1.33-.5,2.75-.69,4.28s-.33,3.12-.44,4.78-.16,3.31-.16,4.95Z" />
                        <path class="cls-1"
                            d="M467.52,42.67c0,.74-.26,1.37-.78,1.89s-1.15.78-1.89.78-1.37-.26-1.89-.78-.78-1.15-.78-1.89c0-.37.07-.72.21-1.04s.33-.61.57-.85.53-.43.85-.57.67-.21,1.04-.21.72.07,1.04.21.61.33.85.57.43.53.57.85.21.67.21,1.04ZM462.77,59.84c0-2.81.18-5.62.53-8.41.04-.27.16-.51.37-.72s.47-.31.81-.31c.29,0,.54.11.73.34s.29.48.29.78c0,.12-.02.47-.07,1.05s-.11,1.28-.18,2.09-.13,1.67-.18,2.58-.07,1.74-.07,2.5c0,1.04.1,1.87.31,2.5s.47,1.13.79,1.48.66.59,1.03.7.71.18,1.04.18c.55,0,1.11-.2,1.7-.59s1.19-.94,1.8-1.64,1.24-1.55,1.86-2.53,1.24-2.08,1.85-3.3c.1-.2.23-.35.41-.45s.37-.16.59-.16c.31,0,.57.12.78.35s.31.49.31.76c0,.2-.04.36-.12.5-.23.45-.53,1-.88,1.64s-.75,1.31-1.2,1.99-.94,1.36-1.48,2.04-1.11,1.28-1.71,1.82-1.24.97-1.9,1.3-1.34.5-2.02.5c-.88,0-1.65-.19-2.31-.56s-1.23-.87-1.68-1.49-.8-1.36-1.03-2.21-.34-1.76-.34-2.74ZM465.88,42.67c0-.27-.1-.51-.31-.72s-.44-.31-.72-.31-.51.1-.7.31-.29.44-.29.72.1.51.29.7.43.29.7.29.51-.1.72-.29.31-.43.31-.7Z" />
                        <path class="cls-1"
                            d="M488.85,62.45c-.49,0-.92-.04-1.29-.12-.29.59-.64,1.13-1.05,1.63s-.88.93-1.42,1.3-1.14.66-1.8.88-1.39.32-2.17.32c-.92,0-1.76-.16-2.52-.48s-1.43-.77-1.99-1.35-1.01-1.27-1.32-2.08-.47-1.7-.47-2.68c0-1.25.22-2.34.67-3.27s.97-1.7,1.55-2.31,1.17-1.07,1.76-1.38,1.03-.45,1.32-.45c.33,0,.58.09.75.26s.25.41.25.7c0,.33-.1.58-.31.75s-.46.33-.78.48-.64.38-1,.66-.68.64-.98,1.07-.55.94-.75,1.52-.29,1.24-.29,1.96c0,.64.1,1.25.29,1.8s.48,1.04.85,1.44.81.71,1.32.94,1.07.34,1.7.34c1.11,0,2.04-.26,2.77-.78s1.29-1.18,1.68-1.98c-1.15-.61-2.1-1.46-2.84-2.58s-1.11-2.36-1.11-3.75c0-1.11.27-2.02.81-2.72s1.25-1.05,2.12-1.05c.53,0,1.03.13,1.49.38s.88.65,1.25,1.2.65,1.25.86,2.11.32,1.88.32,3.08c0,.62-.08,1.28-.23,1.96.12.02.23.03.35.03h.38c.66,0,1.26-.08,1.79-.23s1.01-.39,1.44-.7.82-.71,1.16-1.2.67-1.05.98-1.7c.06-.12.19-.23.38-.34s.39-.16.59-.16c.25,0,.49.1.72.31s.34.47.34.81c0,.16-.04.33-.12.51s-.16.36-.23.51c-.33.59-.72,1.15-1.16,1.68s-.96,1.01-1.55,1.41-1.26.72-2.01.95-1.57.34-2.49.32ZM483.84,55.07c0,.37.05.76.15,1.17s.25.82.45,1.22.46.78.76,1.14.66.67,1.07.92c.06-.41.09-.81.09-1.2,0-.53-.04-1.06-.12-1.61s-.19-1.05-.34-1.51-.33-.83-.54-1.11-.47-.42-.76-.42c-.12,0-.27.09-.47.26s-.29.56-.29,1.14Z" />
                        <path class="cls-1"
                            d="M546.33,34.91c-.06.27-.19.49-.38.64-.2.16-.41.23-.64.23-.35,0-.63-.11-.85-.34-.21-.22-.32-.48-.32-.78s.03-.58.09-.86c.06-.28.09-.56.09-.83,0-1.43-.44-2.71-1.32-3.84-.88-1.13-2.12-2.08-3.74-2.86-1.61-.77-3.57-1.36-5.87-1.77s-4.87-.62-7.71-.62c-2.17,0-4.35.14-6.55.42-2.2.28-4.31.69-6.33,1.23-2.02.54-3.91,1.21-5.67,2.02-1.76.81-3.29,1.75-4.58,2.81-1.3,1.06-2.32,2.25-3.06,3.54-.74,1.3-1.11,2.72-1.11,4.26,0,1.19.26,2.24.78,3.15s1.23,1.7,2.12,2.37,1.96,1.25,3.18,1.73,2.54.88,3.97,1.2,2.91.59,4.45.79,3.1.38,4.66.51l4.51.38c2.25.2,4.26.4,6.04.62s3.34.49,4.69.82c2.25.57,3.91,1.38,4.98,2.43s1.61,2.46,1.61,4.22-.47,3.19-1.41,4.48-2.22,2.37-3.84,3.25-3.52,1.54-5.68,1.99-4.49.67-6.97.67c-2.7,0-5.06-.18-7.1-.54s-3.75-.76-5.13-1.2-2.43-.84-3.15-1.22-1.11-.58-1.17-.62c-.35-.2-.53-.51-.53-.94,0-.33.12-.6.35-.81s.49-.31.76-.31c.21,0,.41.06.59.18.02,0,.36.17,1.01.51s1.63.72,2.93,1.13,2.91.78,4.82,1.11,4.14.5,6.68.5,4.75-.21,6.68-.62,3.56-.98,4.88-1.71,2.31-1.59,2.99-2.58,1.01-2.06,1.01-3.21c0-.68-.12-1.27-.37-1.77s-.58-.93-1.01-1.29-.94-.67-1.54-.92-1.25-.47-1.95-.64c-.74-.2-1.54-.36-2.39-.5s-1.72-.25-2.62-.35-1.8-.19-2.71-.26-1.8-.16-2.68-.23l-4.51-.38c-3.55-.29-6.66-.75-9.3-1.36s-4.85-1.41-6.61-2.37-3.08-2.12-3.96-3.47-1.32-2.92-1.32-4.72.42-3.52,1.25-5.05c.83-1.53,1.96-2.92,3.4-4.15s3.12-2.3,5.04-3.21,3.98-1.67,6.17-2.27c2.19-.6,4.45-1.06,6.8-1.36,2.34-.3,4.65-.45,6.91-.45,2.83,0,5.3.17,7.4.51,2.1.34,3.9.78,5.39,1.32,1.49.54,2.72,1.15,3.68,1.83.96.68,1.73,1.36,2.31,2.02,1.39,1.62,2.08,3.47,2.08,5.54,0,.68-.07,1.34-.21,1.96Z" />
                        <path class="cls-1"
                            d="M548.32,42.67c0,.74-.26,1.37-.78,1.89s-1.15.78-1.89.78-1.37-.26-1.89-.78-.78-1.15-.78-1.89c0-.37.07-.72.21-1.04s.33-.61.57-.85.53-.43.85-.57.67-.21,1.04-.21.72.07,1.04.21.61.33.85.57.43.53.57.85.21.67.21,1.04ZM543.57,59.84c0-2.81.18-5.62.53-8.41.04-.27.16-.51.37-.72s.47-.31.81-.31c.29,0,.54.11.73.34s.29.48.29.78c0,.12-.02.47-.07,1.05s-.11,1.28-.18,2.09-.13,1.67-.18,2.58-.07,1.74-.07,2.5c0,1.04.1,1.87.31,2.5s.47,1.13.79,1.48.66.59,1.03.7.71.18,1.04.18c.55,0,1.11-.2,1.7-.59s1.19-.94,1.8-1.64,1.24-1.55,1.86-2.53,1.24-2.08,1.85-3.3c.1-.2.23-.35.41-.45s.37-.16.59-.16c.31,0,.57.12.78.35s.31.49.31.76c0,.2-.04.36-.12.5-.23.45-.53,1-.88,1.64s-.75,1.31-1.2,1.99-.94,1.36-1.48,2.04-1.11,1.28-1.71,1.82-1.24.97-1.9,1.3-1.34.5-2.02.5c-.88,0-1.65-.19-2.31-.56s-1.23-.87-1.68-1.49-.8-1.36-1.03-2.21-.34-1.76-.34-2.74ZM546.68,42.67c0-.27-.1-.51-.31-.72s-.44-.31-.72-.31-.51.1-.7.31-.29.44-.29.72.1.51.29.7.43.29.7.29.51-.1.72-.29.31-.43.31-.7Z" />
                        <path class="cls-1"
                            d="M579.87,36.35c0,.31-.11.56-.32.75-.21.19-.48.28-.79.28h-14.85v.32c0,1.19-.09,2.46-.26,3.81s-.42,2.69-.72,4.03-.64,2.64-1.03,3.91-.77,2.44-1.17,3.52-.8,2.01-1.19,2.8-.74,1.38-1.05,1.77c.25.9.56,1.73.91,2.5s.75,1.45,1.19,2.02.91,1.03,1.42,1.36,1.05.5,1.64.5c.68,0,1.36-.29,2.04-.86s1.3-1.26,1.88-2.05,1.08-1.59,1.52-2.4.76-1.46.95-1.95c.2-.47.54-.7,1.03-.7.33,0,.6.12.81.35s.31.49.31.76c0,.14-.03.27-.09.41s-.2.45-.42.94-.52,1.05-.88,1.7-.78,1.32-1.26,2.04-1.02,1.36-1.61,1.95-1.24,1.07-1.92,1.46-1.41.59-2.17.59c-1.35,0-2.56-.44-3.63-1.32s-1.99-2.11-2.74-3.69-1.32-3.46-1.71-5.62-.59-4.54-.59-7.12c0-.64,0-1.4.03-2.27s.06-1.79.12-2.75.15-1.96.26-2.99.27-2.03.47-3h-10.52c-.31,0-.58-.09-.79-.28-.21-.19-.32-.43-.32-.75s.11-.56.32-.75c.21-.19.48-.28.79-.28h11.02c.2-.7.42-1.35.69-1.93s.57-1.09.91-1.52c.34-.43.72-.77,1.14-1.01.42-.24.88-.37,1.39-.37s.91.12,1.27.37c.36.24.67.58.92,1.01.25.43.45.94.6,1.52s.26,1.23.34,1.93h14.97c.31,0,.58.09.79.28.21.19.32.44.32.75ZM557.81,54.6c.59-1.29,1.12-2.68,1.6-4.17s.89-3,1.23-4.53.61-3.02.79-4.48.28-2.81.28-4.04h-3.46c-.27,1.21-.49,2.71-.66,4.5s-.25,3.96-.25,6.52c0,1.43.04,2.62.12,3.59s.2,1.84.35,2.62ZM560.54,32.68c-.18,0-.43.19-.76.57s-.66,1.07-1,2.07h2.81c-.1-.82-.24-1.46-.42-1.93s-.4-.7-.63-.7Z" />
                        <path class="cls-1"
                            d="M573.66,62.45c.41.57.94,1.02,1.58,1.36s1.44.51,2.37.51,1.83-.23,2.61-.69,1.49-1.06,2.14-1.8,1.22-1.57,1.73-2.49.97-1.84,1.38-2.75c.1-.21.23-.38.41-.48s.37-.16.59-.16c.33,0,.6.12.81.35s.31.49.31.76c0,.1,0,.18-.03.25s-.05.14-.09.22c-1.35,2.97-2.82,5.21-4.41,6.71s-3.39,2.28-5.41,2.31c-1.29,0-2.4-.25-3.34-.75s-1.71-1.14-2.31-1.93-1.05-1.68-1.35-2.68-.44-1.99-.44-2.99.12-1.91.37-2.75.6-1.57,1.05-2.2,1.01-1.11,1.64-1.46,1.33-.53,2.09-.53c.45,0,.89.09,1.33.28s.83.45,1.19.79.63.76.85,1.25.32,1.04.32,1.67c0,.8-.14,1.55-.41,2.26s-.65,1.36-1.13,1.96-1.05,1.16-1.71,1.67-1.38.95-2.14,1.32ZM572.78,60.55c.61-.25,1.16-.58,1.66-.97s.92-.82,1.27-1.29.62-.96.82-1.48.29-1.04.29-1.57c0-.59-.15-1.03-.44-1.33s-.63-.45-1.03-.45c-.53,0-.98.15-1.35.44s-.67.67-.91,1.14-.41.99-.51,1.57-.16,1.15-.16,1.71c0,.35.03.72.1,1.11s.15.76.25,1.11Z" />
                    </g>
                </g>
                <mask class="handwriting__mask" id="mask">
                    <g class="handwriting__mask__line">
                        <path class="cls-2"
                            d="M312.16,56.27l3.76,2.89s7.6,12.77,19.62,4.22c0,0,5.35-5.16,4.32-20.84,0,0-.28-9.1,6.1-11.83s-13.18-4.49-12.16,4.6-1.48,11.43-1.48,11.43c0,0-10.92,9.27-19.25.16,0,0-8.46-10.58,11.32-21.19,0,0,21.34-8.64,33.2,1.77s-1.44,25.36-14.79,23.27c0,0-4.88,6.71.53,7.64s25.01-10.56,25.97-10.13.85,4.45.85,4.45c0,0-10.16,5.3-1.98,12.34,0,0,10.18,3.48,7.92-10.36,0,0-.96-2.87-2.87-1.83s-1.31,9.66,6.79,8.27,4.79-13.31,4.79-13.31c0,0-2.52,1.33-2.09,4.19,0,0-.09.6,5.4.6,0,0,4.53-1.22,2.52,5.57s5.66,10.96,11.49.52,7.31-19.32,5.74-25.41-5.22,2.35-5.4,5.05-2.44,21.49,4.79,25.85,16.02-19.71,17.15-26.83.17-15.47-4.62-12.42c0,0-1.65,1.44-2.09,6.66s-1.22,52.13-.35,57.09,5.22,6.7,6.79-.35-3.31-16.36-6.44-19.67c0,0,.7-.09,4-2.09s7.76-6.32,8.44-9.31,3.92-3.92,3.92-3.92c0,0-7.48,5.48-2.7,10.53s9.92-1.91,9.92-5.48-2-8.15-4.61-4.51c0,0-.61,9.03,7.57,7.21s15.09-25.2,13.2-32.48-4.37-4.51-5.24-2.99-5.17,17.12-2.91,28.26,4.95,11.61,5.97,11.77,1.53-.05,3.2-.93,5.32-6.48,5.46-6.99.57-7.35.57-7.35c0,0-2.17,11.93,1.18,14.34s5.61.87,9.76-6.77c0,0,3.42-4.36,5.24-4.88,0,0-9.03,5.24-2.62,11.43,0,0,7.65,4.15,9.25-4.95s-5.61-7.94-4.51-3.64,5.02,6.33,7.79,5.32,4.59-2.62,5.1-5.17,2.27-3.68,2.27-3.68c0,0-31.09-48.85-42.63-50.81s-72.92,28.97-72.92,28.97l5.55,5.89,40.04-.08,20.48-21.29s17.35,6.16,17.23,17.23l-4.91,9.53,2.38.7s-.36,1.28,1.28,1.9,2.04-.81,2.23-1.48-.59-1.87-1.4-2.12-1.45-.03-1.79.84-2.96,5.14-.7,5.22" />
                        <path class="cls-2"
                            d="M14.22,42.31s-8.29-1.73-6.5-8.58,8.29-7.39,10.25-7.45,12.1,1.31,15.2.95,7.03-.77,7.39-2.86-3.87-1.19-6.56,1.73-3.4,7.21-3.52,11.56-.12,13.71-2.03,18.78-4.65,7.69-9.18,8.94-9.3-.24-11.09-1.01-4.06-2.45-4.65-3.22S-9.55,7.63,35.23,12.03s36.4,8.52,34.93,9.32-4.39,1.43-7.51,2.74-7.72,8.31-8.99,10.89-8.3,11.17-16.1,11.92-7.46-.12-8.5-.93,1.97-2.49,5.49-1.21,6.13,1.5,10.81,6.42,9.89,12.6,15.73,13.99,9.6-4.97,9.6-4.97c0,0,.81-11.04.35-13.82s3.99-3.47,5.15-1.39,1.1,5.78,1.1,5.78c0,0-2.37,3.76-2.72,8.9s3.41,6.36,5.72,4.28,3.9-7.87,4.09-10.7-1.55,14.81-1.08,20.42-.12,18.62-5.2,18.62-3.7-12.89,6.3-24.23,11.04-16.42,11.04-16.42c0,0-5.44,9.95-.93,12.72s7.86-2.81,8.15-12.33c0,0-2.6,11.52,3.24,12.91s13.65-16.42,15.61-28.56-3.12-14.57-5.15-10.64-4.34,15.61-1.1,35.56c0,0,2.96,7.37,8.1,3.57s2.41-12.18-.44-12.44-3.62,2.16-3.36,3.17.87,2.69,2.18,2.93,2.45-.33,2.45-.33c0,0,2.03,4.7,6.41,4.76s6.54-6.92,6.54-6.92c0,0,.33-4.21.29-5.63,0,0-1.88,10.83.92,14.32s9.33-2.09,11.3-8.69,21.43-29.42,36.4-12.99l1.9,5.48-3.18,2.03s-3.18-7.95-14.22-5.92-8.66,14.14-4.42,17.14,20.23,10.87,31.98-11.66c11.75-22.53,6.27-25.97,6.27-25.97,0,0-1.59-.53-.71,6.89s7.42,32.42,7.42,32.42c0,0,13.31-33.1,23.27-42.3,0,0-11.96,24.72-2.86,40.36,0,0,2.1,3.31,8.03,3.69,0,0,1.96-1.66-1.49-11.99s5.12-4.42,5.12-4.42c0,0-3.09,15.82,2.3,16.88s9.63-9.19,9.63-9.19c0,0,.63-30.22.49-31.85s-.83,41.98-.44,42.13c0,0,3.3-14.86,9.13-14.73s3.09,7.99-3.98,9.49c0,0-.44,3.1,4.06,4.16s10.16-4.33,11.31-8.49l3.18-15.99s13.08,5.76,11.84,10.83-4.12,2.56-4.12,2.56c0,0-5.05-5.68-9.67,1.1s.75,11.17,3.98,8.92,3.67-7.72,3.67-7.72c0,0,.03,11.26,6.22,7.64s5.62-8.57,5.62-8.57l1.18-2.69-5.86-41.49-154.97,2.62-2.35,25.77,1.44,2.36s.42,2.03,1.94,2.03,1.84-1,1.84-1.77-.49-1.94-1.8-2.01-3.29,1.98-3.08,3.97,7.24,8.68,11.32,2.47,43.29-28.92,43.29-28.92l56.53-2.78-6.54,21.6s1.68,7.08,3.51,7.45,3.73-2.32.79-3.69c0,0-1.25-.27-1.71.7s-1.01,4.79.64,4.95,7.91-3.73,7.91-3.73" />
                        <path class="cls-2"
                            d="M502.21,59.53l2.19,2.01s11.28,6.71,23.88,3.76,12.28-13.04,4.01-14.42-24.6-.94-33.03-7.52c0,0-5.67-4.27,1.59-13.1,4.23-5.15,17.87-7.45,23.19-7.45s18.8.24,21.04,7.73c0,0,.58,2.65,0,4.89s-5.24.06-3.91,7.25,4.17,7.37,4.17,7.37c0,0-1.23,6.22-.6,10.01s3.74,10.19,10.01,1.32,8.4-17.55,8.23-22.96-1.04-6.79-2.3-6.79-5.18,3.57-4.55,17.67,5.24,15.65,7.25,15.88c0,0,1.9.29,3.28-1.09s4.83-6.85,4.95-7.94-1.04,5.67,1.73,5.19,5.18-4.28,4.64-6.75-4.55-3.98-6.39.6,1.69,10.44,5.48,10.49,9.16-4.65,9.7-9.59v-2.46l-5.28-36.23-45.09,15.97,7.53,10.04s.68,1.12,1.71,1.08,1.71-.68,1.75-1.75-.96-1.95-1.75-1.95-1.79.64-1.75,1.63,1.27,6.33,2.91,6.25,4.06-8.25,4.06-8.25c0,0-21.47-3.98-5.58-4.06s36.96-.08,36.96-.08" />
                    </g>
                </mask>
            </svg>