<?xml version="1.0" encoding="UTF-8"?>
<svg class="handwritingPortfolio" xmlns="http://www.w3.org/2000/svg" viewBox="0 0 190.22 94.54">
  <g class="handwritingPortfolio__text" id="textPortfolio">
    <g>
      <path class="cls-1" d="M36.02,31.86c.16-.14.29-.28.4-.44.11-.16.16-.33.16-.53,0-.33-.11-.6-.34-.81s-.48-.31-.78-.31c-.08,0-.18.02-.29.06-.12.04-.21.08-.29.12-1.35.92-2.42,1.98-3.21,3.18s-1.4,2.47-1.82,3.81c-.42,1.34-.69,2.71-.81,4.1s-.18,2.75-.18,4.06v3.72c0,2.23-.15,4.33-.45,6.3s-.87,3.7-1.7,5.17-1.97,2.64-3.43,3.49-3.33,1.27-5.64,1.27c-2.01,0-3.81-.43-5.39-1.3s-3-2.17-4.25-3.91c-.12-.16-.26-.29-.42-.4s-.35-.16-.54-.16c-.33,0-.6.11-.81.34s-.31.47-.31.75c0,.1.02.2.06.31s.08.2.12.28c.61.98,1.33,1.86,2.17,2.64s1.76,1.44,2.75,1.98,2.06.95,3.18,1.23,2.27.42,3.44.42c2.6,0,4.76-.48,6.47-1.45s3.09-2.27,4.12-3.91,1.75-3.55,2.18-5.73.64-4.48.64-6.9v-3.69c0-1.41.05-2.75.16-4.04s.33-2.5.67-3.65.84-2.21,1.49-3.21,1.53-1.92,2.62-2.78Z"/>
      <path class="cls-1" d="M46.96,25.42c-1.87-1.33-4.1-2.34-6.69-3.05s-5.45-1.05-8.55-1.05c-2.83,0-5.57.24-8.2.72-2.64.48-5.11,1.15-7.41,2.02-2.3.87-4.4,1.91-6.3,3.13-1.89,1.22-3.52,2.57-4.88,4.04-1.36,1.48-2.41,3.06-3.16,4.75-.75,1.69-1.13,3.44-1.13,5.26,0,1.66.3,3.15.89,4.47s1.4,2.44,2.4,3.37,2.18,1.64,3.52,2.12,2.74.73,4.2.73c1.6,0,3.03-.18,4.28-.53s2.31-.75,3.18-1.19,1.53-.84,1.99-1.22.71-.58.75-.62c.23-.2.35-.46.35-.79,0-.29-.11-.55-.34-.78s-.48-.34-.78-.34-.55.11-.76.32c-.04.04-.25.21-.64.51s-.95.63-1.68.98-1.63.67-2.7.97-2.28.44-3.65.44c-1.15,0-2.26-.18-3.31-.53s-1.99-.88-2.8-1.6-1.46-1.6-1.95-2.65-.73-2.29-.73-3.69c0-1.6.35-3.15,1.05-4.64s1.68-2.9,2.94-4.2c1.26-1.31,2.77-2.51,4.54-3.6,1.77-1.09,3.73-2.03,5.87-2.81,2.15-.78,4.45-1.39,6.9-1.82,2.45-.43,4.99-.64,7.6-.64,2.77,0,5.32.29,7.63.88s4.31,1.45,5.98,2.58c1.67,1.13,2.97,2.52,3.9,4.16s1.39,3.52,1.39,5.62-.4,3.91-1.2,5.51-1.92,2.95-3.37,4.06-3.18,1.94-5.21,2.5-4.28.85-6.74.85c-.31,0-.58.11-.79.32s-.32.47-.32.76c0,.37.12.65.37.83s.53.28.86.28c2.75,0,5.27-.35,7.56-1.04s4.25-1.69,5.89-2.99,2.91-2.88,3.81-4.75,1.35-3.98,1.35-6.34-.52-4.58-1.55-6.49-2.49-3.52-4.35-4.85Z"/>
      <path class="cls-1" d="M155.08,45.34c.74,0,1.37-.26,1.89-.78s.78-1.15.78-1.89c0-.37-.07-.72-.21-1.04s-.33-.61-.57-.85-.53-.43-.85-.57-.67-.21-1.04-.21-.72.07-1.04.21-.61.33-.85.57-.43.53-.57.85-.21.67-.21,1.04c0,.74.26,1.37.78,1.89s1.15.78,1.89.78ZM154.38,41.96c.2-.21.43-.31.7-.31s.51.1.72.31.31.44.31.72-.1.51-.31.7-.44.29-.72.29-.51-.1-.7-.29-.29-.43-.29-.7.1-.51.29-.72Z"/>
      <path class="cls-1" d="M186.3,56.25c-.22-.21-.46-.31-.72-.31-.2,0-.39.05-.59.16s-.32.22-.38.34c-.31.64-.64,1.21-.98,1.7s-.73.89-1.16,1.2-.91.55-1.44.7-1.12.23-1.79.23h-.38c-.12,0-.23,0-.35-.03.16-.68.23-1.34.23-1.96,0-1.19-.11-2.22-.32-3.08s-.5-1.56-.86-2.11-.78-.95-1.25-1.2-.97-.38-1.49-.38c-.88,0-1.59.35-2.12,1.05s-.81,1.61-.81,2.72c0,1.39.37,2.64,1.11,3.75s1.69,1.97,2.84,2.58c-.39.8-.95,1.46-1.68,1.98s-1.66.78-2.77.78c-.62,0-1.19-.11-1.7-.34s-.95-.54-1.32-.94-.65-.88-.85-1.44-.29-1.16-.29-1.8c0-.72.1-1.38.29-1.96s.44-1.09.75-1.52.63-.79.98-1.07.68-.5,1-.66.57-.32.78-.48.31-.42.31-.75c0-.29-.08-.53-.25-.7s-.42-.26-.75-.26c-.29,0-.73.15-1.32.45s-1.17.76-1.76,1.38c-.49.51-.92,1.14-1.32,1.86-.15.1-.27.24-.35.41-.61,1.21-1.22,2.31-1.85,3.3s-1.25,1.83-1.86,2.53-1.22,1.25-1.8,1.64-1.15.59-1.7.59c-.33,0-.68-.06-1.04-.18s-.7-.35-1.03-.7-.59-.84-.79-1.48-.31-1.47-.31-2.5c0-.76.02-1.6.07-2.5s.11-1.77.18-2.58.13-1.51.18-2.09.07-.94.07-1.05c0-.29-.1-.55-.29-.78s-.44-.34-.73-.34c-.33,0-.6.1-.81.31s-.33.44-.37.72c-.21,1.64-.35,3.29-.43,4.94-.05.06-.09.12-.13.19-.25.53-.61,1.23-1.07,2.09s-.99,1.72-1.6,2.56-1.27,1.57-1.99,2.18-1.47.92-2.26.92c-1.15,0-2.14-.71-2.96-2.12s-1.47-3.36-1.96-5.84c1.09-1.99,2.12-4.04,3.08-6.14s1.79-4.2,2.49-6.31,1.26-4.2,1.67-6.28.62-4.1.62-6.05c0-1.58-.1-2.92-.29-4.01-.2-1.09-.47-1.98-.82-2.67-.35-.68-.79-1.18-1.3-1.48-.52-.3-1.1-.45-1.74-.45-.82,0-1.55.33-2.2,1-.64.66-1.22,1.56-1.71,2.7-.5,1.13-.93,2.45-1.29,3.96-.36,1.5-.66,3.1-.89,4.78-.23,1.68-.41,3.4-.51,5.16s-.16,3.46-.16,5.1c0,1.13.03,2.43.1,3.9s.2,2.97.4,4.53c.08.68.19,1.34.31,2.01-.03.02-.07.02-.1.04-.2.11-.32.22-.38.34-.31.64-.64,1.21-.98,1.7s-.73.89-1.16,1.2-.91.55-1.44.7-1.12.23-1.79.23h-.38c-.12,0-.23,0-.35-.03.16-.68.23-1.34.23-1.96,0-1.19-.11-2.22-.32-3.08s-.5-1.56-.86-2.11-.78-.95-1.25-1.2-.97-.38-1.49-.38c-.88,0-1.59.35-2.12,1.05s-.81,1.61-.81,2.72c0,1.39.37,2.64,1.11,3.75s1.69,1.97,2.84,2.58c-.39.8-.95,1.46-1.68,1.98s-1.66.78-2.77.78c-.62,0-1.19-.11-1.7-.34s-.95-.54-1.32-.94-.65-.88-.85-1.44-.29-1.16-.29-1.8c0-.72.1-1.38.29-1.96s.44-1.09.75-1.52.63-.79.98-1.07.68-.5,1-.66.57-.32.78-.48.31-.42.31-.75c0-.29-.08-.53-.25-.7s-.42-.26-.75-.26c-.29,0-.73.15-1.32.45s-1.17.76-1.76,1.38c-.48.51-.91,1.12-1.3,1.84-.17.11-.31.27-.4.49-.39.88-.91,1.8-1.57,2.77s-1.45,1.91-2.37,2.84-1.98,1.81-3.16,2.65-2.5,1.58-3.94,2.23c0-.62,0-1.36.01-2.21s.01-1.74.01-2.67v-5.38c1.07-1.93,2.08-3.9,3.03-5.89s1.77-4.03,2.48-6.12,1.26-4.25,1.67-6.47.62-4.53.62-6.91c0-1.13-.08-2.22-.23-3.25-.16-1.04-.41-1.94-.76-2.71-.35-.77-.81-1.39-1.38-1.85-.57-.46-1.26-.69-2.08-.69-1.04,0-1.89.47-2.56,1.42-.67.95-1.21,2.33-1.6,4.15s-.67,4.04-.85,6.68c0,.04,0,.08,0,.12h-7c-.08-.7-.19-1.35-.34-1.93s-.35-1.09-.6-1.52c-.25-.43-.56-.77-.92-1.01-.36-.24-.79-.37-1.27-.37s-.97.12-1.39.37c-.42.24-.8.58-1.14,1.01-.34.43-.64.94-.91,1.52s-.49,1.23-.69,1.93h-11.02c-.31,0-.58.09-.79.28-.21.19-.32.44-.32.75s.11.56.32.75c.21.19.48.28.79.28h10.52c-.2.98-.35,1.98-.47,3s-.21,2.02-.26,2.99-.1,1.88-.12,2.75-.03,1.63-.03,2.27c0,2.58.2,4.95.59,7.12.08.46.18.9.28,1.33-.3.58-.66,1.22-1.08,1.95-.5.86-1.06,1.67-1.68,2.45s-1.31,1.43-2.05,1.98-1.53.82-2.37.82c-.27,0-.58-.05-.91-.16s-.64-.3-.94-.57-.54-.64-.73-1.1-.29-1.04-.29-1.74c0-.49.03-.99.09-1.49s.13-1.02.21-1.54.15-1.02.21-1.51.09-.96.09-1.41c0-1.11-.29-1.91-.88-2.4s-1.44-.73-2.55-.73c-.29,0-.6,0-.92.01s-.65.01-.98.01c0-.39-.03-.85-.1-1.38s-.18-1.03-.34-1.51-.38-.88-.66-1.22-.65-.5-1.1-.5c-.39,0-.78.2-1.17.6s-.74.87-1.05,1.42-.56,1.1-.75,1.67-.28,1.02-.28,1.35c0,.45.1.8.29,1.05s.44.44.75.56.63.19.98.21.69.03,1.03.03c-.18.86-.32,1.49-.44,1.9-.1.34-.18.58-.25.76-.03.03-.06.06-.08.09-.31.64-.64,1.21-.98,1.7s-.73.89-1.16,1.2-.91.55-1.44.7-1.12.23-1.79.23h-.38c-.12,0-.23,0-.35-.03.16-.68.23-1.34.23-1.96,0-1.19-.11-2.22-.32-3.08s-.5-1.56-.86-2.11-.78-.95-1.25-1.2-.97-.38-1.49-.38c-.88,0-1.59.35-2.12,1.05s-.81,1.61-.81,2.72c0,1.39.37,2.64,1.11,3.75s1.69,1.97,2.84,2.58c-.39.8-.95,1.46-1.68,1.98s-1.66.78-2.77.78c-.62,0-1.19-.11-1.7-.34s-.95-.54-1.32-.94-.65-.88-.85-1.44-.29-1.16-.29-1.8c0-.72.1-1.38.29-1.96s.44-1.09.75-1.52.63-.79.98-1.07.68-.5,1-.66.57-.32.78-.48.31-.42.31-.75c0-.29-.08-.53-.25-.7s-.42-.26-.75-.26c-.29,0-.73.15-1.32.45s-1.17.76-1.76,1.38-1.1,1.39-1.55,2.31-.67,2.02-.67,3.27c0,.98.16,1.87.47,2.68s.75,1.5,1.32,2.08,1.23,1.03,1.99,1.35,1.6.48,2.52.48c.78,0,1.5-.11,2.17-.32s1.26-.51,1.8-.88,1.01-.81,1.42-1.3.76-1.04,1.05-1.63c.37.08.8.12,1.29.12.92.02,1.75-.09,2.49-.32s1.41-.55,2.01-.95,1.11-.87,1.55-1.41.83-1.1,1.16-1.68c.08-.16.16-.33.23-.51,0-.02.01-.04.02-.05,0,0,0-.01.01-.02.02-.02.07-.14.15-.35s.17-.49.28-.83.22-.74.34-1.2.21-.95.29-1.48c.37-.02.72-.03,1.04-.03h.89c.57,0,.93.09,1.1.28s.25.46.25.83c0,.88-.1,1.8-.29,2.77s-.29,1.94-.29,2.92c0,.92.14,1.74.41,2.48s.64,1.35,1.1,1.85,1,.88,1.63,1.14,1.29.4,1.99.4c1.13,0,2.17-.3,3.12-.91s1.8-1.35,2.56-2.23,1.44-1.82,2.04-2.83c.11-.18.2-.35.31-.53.18.47.37.93.57,1.36.75,1.58,1.67,2.81,2.74,3.69s2.29,1.32,3.63,1.32c.76,0,1.48-.2,2.17-.59s1.32-.88,1.92-1.46,1.13-1.24,1.61-1.95c.27-.4.51-.78.74-1.15,0,.29,0,.57,0,.86,0,2.02-.02,3.96-.03,5.8s-.01,3.57-.01,5.19v4.23c0,2.44.02,4.7.07,6.78s.22,3.89.53,5.42.78,2.73,1.42,3.6,1.55,1.3,2.72,1.3c.8,0,1.51-.23,2.14-.69s1.16-1.09,1.6-1.89.77-1.74,1-2.83.34-2.24.34-3.47c0-1.35-.13-2.76-.4-4.23s-.65-2.93-1.17-4.38-1.17-2.84-1.95-4.17-1.7-2.55-2.75-3.65c1.64-.76,3.1-1.6,4.37-2.52s2.38-1.87,3.33-2.86c.63-.65,1.17-1.32,1.68-1.99.08.36.17.72.3,1.06.31.81.75,1.5,1.32,2.08s1.23,1.03,1.99,1.35,1.6.48,2.52.48c.78,0,1.5-.11,2.17-.32s1.26-.51,1.8-.88,1.01-.81,1.42-1.3.76-1.04,1.05-1.63c.37.08.8.12,1.29.12.92.02,1.75-.09,2.49-.32s1.41-.55,2.01-.95,1.11-.87,1.55-1.41c.21-.26.41-.52.59-.79.35,1.35.79,2.57,1.33,3.65.59,1.17,1.3,2.12,2.14,2.84s1.85,1.08,3.02,1.08c.76,0,1.48-.16,2.15-.48s1.31-.74,1.9-1.26,1.15-1.1,1.66-1.76.97-1.31,1.38-1.98c0,0,0-.01.01-.02.05.53.14,1.04.27,1.53.22.85.57,1.59,1.03,2.21s1.02,1.12,1.68,1.49,1.44.56,2.31.56c.68,0,1.36-.17,2.02-.5s1.3-.77,1.9-1.3,1.18-1.14,1.71-1.82c.44-.55.84-1.11,1.22-1.66.07.34.17.67.29.99.31.81.75,1.5,1.32,2.08s1.23,1.03,1.99,1.35,1.6.48,2.52.48c.78,0,1.5-.11,2.17-.32s1.26-.51,1.8-.88,1.01-.81,1.42-1.3.76-1.04,1.05-1.63c.37.08.8.12,1.29.12.92.02,1.75-.09,2.49-.32s1.41-.55,2.01-.95,1.11-.87,1.55-1.41.83-1.1,1.16-1.68c.08-.16.16-.33.23-.51s.12-.36.12-.51c0-.33-.11-.6-.34-.81ZM65.78,59.52c-.41-.25-.77-.56-1.07-.92s-.56-.74-.76-1.14-.36-.81-.45-1.22-.15-.8-.15-1.17c0-.59.1-.97.29-1.14s.35-.26.47-.26c.29,0,.55.14.76.42s.4.65.54,1.11.26.96.34,1.51.12,1.08.12,1.61c0,.39-.03.79-.09,1.2ZM73.63,51.46c.04-.16.1-.35.18-.59s.17-.45.26-.66.19-.38.28-.53.16-.22.22-.22.11.08.16.23.09.34.12.56.05.43.06.66.01.41.01.54h-1.29ZM110.59,47.58c-.67,1.67-1.41,3.26-2.21,4.76,0-.9,0-1.68.01-2.34s.02-1.29.04-1.88.03-1.18.04-1.79.02-1.3.04-2.08c0-.37,0-.93.01-1.67s.03-1.6.06-2.56c.03-.83.06-1.72.11-2.65h4.69c-.27,1.71-.62,3.39-1.07,5.04-.49,1.78-1.07,3.5-1.74,5.17ZM108.97,33.61c.1-1.1.22-2.16.37-3.18.15-1.02.33-1.91.54-2.7.21-.78.47-1.41.76-1.88s.63-.7,1.03-.7.7.15.98.45c.28.3.52.72.7,1.26.19.54.32,1.19.41,1.95s.13,1.61.13,2.55c0,1.32-.09,2.64-.23,3.96h-4.81c.04-.57.07-1.14.12-1.71ZM95.64,33.26c.33-.38.59-.57.76-.57.23,0,.44.23.63.7s.33,1.11.42,1.93h-2.81c.33-1,.66-1.68,1-2.07ZM93.45,41.87c.17-1.79.39-3.29.66-4.5h3.46c0,1.23-.09,2.58-.28,4.04s-.45,2.96-.79,4.48-.75,3.03-1.23,4.53-1.01,2.89-1.6,4.17c-.16-.78-.27-1.66-.35-2.62s-.12-2.16-.12-3.59c0-2.56.08-4.73.25-6.52ZM105.89,56.65c-.2.49-.51,1.14-.95,1.95s-.95,1.61-1.52,2.4-1.2,1.47-1.88,2.05-1.35.86-2.04.86c-.59,0-1.13-.17-1.64-.5s-.98-.79-1.42-1.36-.83-1.25-1.19-2.02-.65-1.61-.91-2.5c.31-.39.66-.98,1.05-1.77s.79-1.72,1.19-2.8.79-2.25,1.17-3.52.72-2.57,1.03-3.91.54-2.68.72-4.03.26-2.62.26-3.81v-.32h6.76c-.11,2.08-.18,4.35-.23,6.83-.04,1.76-.07,3.62-.09,5.58s-.04,3.96-.06,5.99c0,.16,0,.33,0,.49-.1.11-.19.23-.26.39ZM110.61,73.93c.66,1.19,1.23,2.43,1.68,3.71s.8,2.57,1.03,3.88.34,2.56.34,3.75c0,.47-.04,1.08-.12,1.83s-.22,1.49-.42,2.21-.49,1.35-.86,1.88-.85.79-1.44.79c-.64,0-1.14-.43-1.48-1.3s-.6-2.01-.76-3.43-.26-3.01-.28-4.79-.03-3.57-.03-5.39c0-.88,0-1.85.01-2.92s.01-2.21.01-3.44c.88.96,1.65,2.03,2.31,3.22ZM130.27,59.52c-.41-.25-.77-.56-1.07-.92s-.56-.74-.76-1.14-.36-.81-.45-1.22-.15-.8-.15-1.17c0-.59.1-.97.29-1.14s.35-.26.47-.26c.29,0,.55.14.76.42s.4.65.54,1.11.26.96.34,1.51.12,1.08.12,1.61c0,.39-.03.79-.09,1.2ZM140.61,52.69c-.1-1.05-.18-2.16-.23-3.31s-.09-2.35-.09-3.6c0-1.64.05-3.29.16-4.95s.25-3.25.44-4.78.42-2.95.69-4.28c.27-1.33.58-2.48.91-3.46.33-.98.69-1.75,1.07-2.31.38-.57.78-.85,1.19-.85.62,0,1.12.5,1.49,1.49s.56,2.65.56,4.95c0,1.64-.17,3.36-.51,5.17-.34,1.81-.8,3.62-1.36,5.45s-1.22,3.63-1.96,5.42-1.52,3.47-2.34,5.05ZM176.5,59.52c-.41-.25-.77-.56-1.07-.92s-.56-.74-.76-1.14-.36-.81-.45-1.22-.15-.8-.15-1.17c0-.59.1-.97.29-1.14s.35-.26.47-.26c.29,0,.55.14.76.42s.4.65.54,1.11.26.96.34,1.51.12,1.08.12,1.61c0,.39-.03.79-.09,1.2Z"/>
    </g>
  </g>
  <mask class="handwritingPortfolio__mask" id="maskPortfolio">
    <g class="handwritingPortfolio__mask__line">
      <path class="cls-2" d="M2.39,56.27l3.76,2.89s7.6,12.77,19.62,4.22c0,0,5.35-5.16,4.32-20.84,0,0-.28-9.1,6.1-11.83s-13.18-4.49-12.16,4.6-1.48,11.43-1.48,11.43c0,0-10.92,9.27-19.25.16,0,0-8.46-10.58,11.32-21.19,0,0,21.34-8.64,33.2,1.77s-1.44,25.36-14.79,23.27c0,0-4.88,6.71.53,7.64s25.01-10.56,25.97-10.13.85,4.45.85,4.45c0,0-10.16,5.3-1.98,12.34,0,0,10.18,3.48,7.92-10.36,0,0-.96-2.87-2.87-1.83s-1.31,9.66,6.79,8.27,4.79-13.31,4.79-13.31c0,0-2.52,1.33-2.09,4.19,0,0-.09.6,5.4.6,0,0,4.53-1.22,2.52,5.57s5.66,10.96,11.49.52,7.31-19.32,5.74-25.41-5.22,2.35-5.4,5.05-2.44,21.49,4.79,25.85,16.02-19.71,17.15-26.83.17-15.47-4.62-12.42c0,0-1.65,1.44-2.09,6.66s-1.22,52.13-.35,57.09,5.22,6.7,6.79-.35-3.31-16.36-6.44-19.67c0,0,.7-.09,4-2.09s7.76-6.32,8.44-9.31,3.92-3.92,3.92-3.92c0,0-7.48,5.48-2.7,10.53s9.92-1.91,9.92-5.48-2-8.15-4.61-4.51c0,0-.61,9.03,7.57,7.21s15.09-25.2,13.2-32.48-4.37-4.51-5.24-2.99-5.17,17.12-2.91,28.26,4.95,11.61,5.97,11.77,1.53-.05,3.2-.93,5.32-6.48,5.46-6.99.57-7.35.57-7.35c0,0-2.17,11.93,1.18,14.34s5.61.87,9.76-6.77c0,0,3.42-4.36,5.24-4.88,0,0-9.03,5.24-2.62,11.43,0,0,7.65,4.15,9.25-4.95s-5.61-7.94-4.51-3.64,5.02,6.33,7.79,5.32,4.59-2.62,5.1-5.17,2.27-3.68,2.27-3.68c0,0-31.09-48.85-42.63-50.81s-72.92,28.97-72.92,28.97l5.55,5.89,40.04-.08,20.48-21.29s17.35,6.16,17.23,17.23l-4.91,9.53,2.38.7s-.36,1.28,1.28,1.9,2.04-.81,2.23-1.48-.59-1.87-1.4-2.12-1.45-.03-1.79.84-2.96,5.14-.7,5.22"/>
    </g>
  </mask>
</svg>