<?xml version="1.0" encoding="UTF-8"?>
<svg id="_レイヤー_2" data-name="レイヤー_2" xmlns="http://www.w3.org/2000/svg" viewBox="0 0 510.64 510.64">
  <defs>
    <style>
      .cls-1 {
        fill: #fff;
      }
    </style>
  </defs>
  <g id="_レイヤー_6" data-name="レイヤー_6">
    <g>
      <polygon points="258.14 230.67 179.63 118.37 137.75 118.37 235.03 257.52 247.26 275.01 247.26 275.02 330.54 394.14 372.42 394.14 270.37 248.16 258.14 230.67"/>
      <path d="M0,0v510.64h510.64V0H0ZM317.71,413.73l-84.28-122.65-105.51,122.65h-27.27l120.67-140.26L100.65,97.84h92.04l79.8,116.14,99.91-116.14h27.27l-115.07,133.76h0l125.15,182.13h-92.04Z"/>
      <path class="cls-1" d="M284.61,231.6l115.07-133.76h-27.27l-99.91,116.14-79.8-116.14h-92.04l120.67,175.62-120.67,140.26h27.27l105.51-122.65,84.28,122.65h92.04l-125.15-182.13h0ZM372.42,394.14h-41.88l-83.28-119.12h0s-12.23-17.49-12.23-17.49l-97.28-139.15h41.88l78.51,112.3,12.23,17.49,102.05,145.98Z"/>
    </g>
  </g>
</svg>