<svg width="491" height="130" viewBox="0 0 491 130" fill="none" xmlns="http://www.w3.org/2000/svg">
<path d="M268.394 93.944H269.798L280.094 119H278.654L275.27 110.72H262.922L259.502 119H258.098L268.394 93.944ZM263.462 109.424H274.73L269.078 95.672L263.462 109.424ZM300.766 94.664C301.894 95.24 302.758 96.032 303.358 97.04C303.982 98.048 304.294 99.176 304.294 100.424C304.294 101.6 303.982 102.692 303.358 103.7C302.758 104.684 301.918 105.464 300.838 106.04C302.11 106.472 303.166 107.264 304.006 108.416C304.846 109.568 305.266 110.84 305.266 112.232C305.266 113.48 304.954 114.632 304.33 115.688C303.706 116.744 302.878 117.56 301.846 118.136C301.318 118.424 300.73 118.64 300.082 118.784C299.434 118.928 298.57 119 297.49 119H286.978V93.944H296.986C298.57 93.944 299.83 94.184 300.766 94.664ZM300.19 104.996C301.054 104.564 301.738 103.94 302.242 103.124C302.746 102.308 302.998 101.408 302.998 100.424C302.998 99.32 302.71 98.36 302.134 97.544C301.558 96.704 300.826 96.092 299.938 95.708C299.266 95.42 298.138 95.276 296.554 95.276H288.274V105.572H297.202C298.45 105.572 299.446 105.38 300.19 104.996ZM301.054 117.128C301.942 116.672 302.65 116.012 303.178 115.148C303.706 114.26 303.97 113.3 303.97 112.268C303.97 111.188 303.694 110.216 303.142 109.352C302.59 108.464 301.846 107.804 300.91 107.372C300.19 107.036 299.218 106.868 297.994 106.868H288.274V117.704H297.526C298.438 117.704 299.158 117.656 299.686 117.56C300.214 117.464 300.67 117.32 301.054 117.128ZM322.375 93.404C324.247 93.404 325.975 93.872 327.559 94.808C329.143 95.72 330.391 96.968 331.303 98.552C332.239 100.136 332.707 101.864 332.707 103.736V109.208C332.707 111.08 332.239 112.808 331.303 114.392C330.391 115.976 329.143 117.236 327.559 118.172C325.975 119.084 324.247 119.54 322.375 119.54C320.503 119.54 318.775 119.084 317.191 118.172C315.607 117.236 314.347 115.976 313.411 114.392C312.499 112.808 312.043 111.08 312.043 109.208V103.736C312.043 101.864 312.499 100.136 313.411 98.552C314.347 96.968 315.607 95.72 317.191 94.808C318.775 93.872 320.503 93.404 322.375 93.404ZM313.375 109.208C313.375 110.84 313.771 112.352 314.563 113.744C315.379 115.112 316.471 116.204 317.839 117.02C319.231 117.812 320.743 118.208 322.375 118.208C324.007 118.208 325.507 117.812 326.875 117.02C328.267 116.204 329.359 115.112 330.151 113.744C330.967 112.352 331.375 110.84 331.375 109.208V103.736C331.375 102.104 330.967 100.604 330.151 99.236C329.359 97.844 328.267 96.752 326.875 95.96C325.507 95.144 324.007 94.736 322.375 94.736C320.743 94.736 319.231 95.144 317.839 95.96C316.471 96.752 315.379 97.844 314.563 99.236C313.771 100.604 313.375 102.104 313.375 103.736V109.208ZM338.907 93.944H340.239V109.424C340.239 111.008 340.635 112.472 341.427 113.816C342.219 115.16 343.287 116.228 344.631 117.02C345.975 117.812 347.439 118.208 349.023 118.208C350.607 118.208 352.071 117.812 353.415 117.02C354.759 116.228 355.827 115.16 356.619 113.816C357.411 112.472 357.807 111.008 357.807 109.424V93.944H359.139V109.424C359.139 111.248 358.683 112.94 357.771 114.5C356.859 116.036 355.623 117.26 354.063 118.172C352.527 119.084 350.847 119.54 349.023 119.54C347.199 119.54 345.507 119.084 343.947 118.172C342.411 117.26 341.187 116.036 340.275 114.5C339.363 112.94 338.907 111.248 338.907 109.424V93.944ZM385.788 93.944V95.276H376.32V119H375.024V95.276H365.556V93.944H385.788Z" fill="#C2678B"/>
<g clip-path="url(#clip0_55_325)">
<path d="M76.8345 80.1218C76.8345 80.1218 76.5327 79.9568 75.7094 79.8744L76.8345 80.1218Z" fill="#5E3449"/>
<path d="M434.719 70.8865C434.719 70.8865 434.636 70.8865 434.581 70.8865C429.917 72.8655 423.742 74.0474 419.544 73.6076C415.839 73.2228 414.467 71.876 413.26 69.7046C413.013 69.7046 412.766 69.6496 412.601 69.6222L412.766 69.5672C408.266 69.952 403.573 68.6327 399.21 69.045C399.375 68.99 399.485 68.7701 400.472 68.7976C397.317 68.7976 393.009 68.7976 392.789 68.3578C385.27 68.2479 374.76 67.8356 369.931 68.5502L370.26 68.4128C367.516 68.88 366.693 68.4677 363.647 68.6876C363.482 68.6327 363.263 68.6052 363.29 68.5777C360.299 69.045 354.564 68.7151 352.149 68.935L351.984 68.6327L346.03 68.7426L348.252 68.7976C347.484 69.6496 343.752 68.3028 339.444 68.9075C335.41 68.9075 331.294 70.8865 327.096 70.5842C325.12 71.0239 328.824 69.897 325.861 70.2818C325.751 69.842 327.26 69.9795 326.464 69.6496C323.528 69.952 321.635 69.2923 318.013 69.7871L317.848 69.4572C313.156 70.3093 308.93 69.4023 305.801 70.1444C300.944 70.6391 302.481 69.2923 297.459 70.2543L295.456 69.9245C293.288 69.9795 293.947 70.5842 291.532 70.5017C291.669 70.1994 288.486 70.4467 289.858 70.0894C284.37 69.9245 278.854 71.5462 271.637 71.2988C270.128 71.9585 266.506 71.9585 265.381 72.4807C265.161 72.2608 258.164 73.0579 262.17 72.1784C262.527 72.0959 263.131 72.0684 263.103 72.1784L263.57 71.7936C259.426 71.5187 256.188 72.783 252.154 73.0579C253.362 73.0579 254.953 72.893 253.911 73.2228L250.151 73.5252L250.892 73.1679L245.294 73.5252L246.09 73.8C243.346 73.8825 242.331 73.3603 239.285 74.1573C237.913 74.5696 241.919 74.3772 239.038 74.762C235.361 74.872 229.872 75.0369 225.207 75.3667C225.674 75.7241 224.439 75.834 223.149 76.0264L222.957 75.6966C218.073 76.6311 221.091 75.1194 216.207 75.9439L215.384 76.4937C211.021 77.5656 212.941 75.9989 208.112 77.3732C210.06 77.1258 209.1 78.0604 206.685 78.0879L207.261 77.703C205.944 77.8955 205.505 78.0604 204.627 78.0604C205.395 77.813 205.011 77.5381 203.063 77.758L204.325 77.2358L200.703 78.1428C197.849 78.0329 193.376 78.8575 192.169 78.4727C192.169 78.4727 186.049 78.6925 184.677 79.2972C185.885 78.8849 182.509 79.0224 183.442 78.5826C181.878 79.0499 177.241 79.682 175.347 79.3797L175.704 79.3247C168.762 79.2972 163.904 80.5616 157.675 80.2593C157.977 80.6441 154.684 80.5341 155.508 81.0289C149.086 81.7985 143.763 80.3417 141.458 81.9084C138.522 82.0184 137.973 81.5786 136.464 81.5236L137.15 81.4411C131.661 81.6335 130.07 81.6885 126.009 81.5786C123.978 81.716 123.649 82.4306 119.999 82.2108C121.179 81.9359 119.697 81.9634 118.325 81.9634C119.203 81.9359 119.478 81.826 117.694 81.6061C117.447 81.6885 117.063 81.7435 116.679 81.771C116.679 81.771 116.596 81.716 116.624 81.6885C114.346 81.771 114.73 81.8534 115.801 81.9084C115.746 81.9634 115.828 82.0184 116.157 82.1008C113.797 81.7435 109.572 81.9634 109.297 81.4411C102.464 81.2762 97.5524 81.661 91.8447 81.5786C91.2136 81.2762 92.5582 81.1388 94.2046 81.1113L90.1708 81.0014C90.2257 80.6441 92.5033 80.9189 93.7381 80.9189C88.9634 80.0668 83.8045 80.9739 78.2066 80.0394L77.0266 80.2593L76.6973 80.1768C76.6973 80.3417 75.435 80.4517 74.5844 80.4517C73.816 80.0668 74.6941 79.7095 71.9226 79.5171C69.7548 79.0499 65.6661 79.1598 62.7573 79.0774C64.294 79.2698 63.8001 79.4072 63.1141 79.4622C61.7146 79.3522 60.9462 78.9399 59.8486 78.9949L59.7663 78.5551C60.2877 79.0224 56.0892 78.6651 55.5678 78.775C54.7995 78.3902 57.7631 78.72 58.1198 78.5001C52.5493 77.9779 55.3209 78.2528 49.7504 77.7305C46.7319 77.7305 50.2443 78.1978 48.7899 78.4177C46.1556 78.2253 43.5487 78.2253 40.5851 77.6206L41.4906 78.1153C36.5238 77.8405 33.5877 77.4282 30.3222 76.6036C11.7722 75.6966 9.68664 76.2463 12.2386 77.3732C14.7907 78.4727 22.0076 79.792 22.0076 79.792C36.4141 82.6231 44.0426 82.4306 61.4127 83.75C76.6424 85.2342 80.6488 86.3062 96.5096 86.7734C104.083 87.0758 112.151 87.3506 119.56 87.2682C123.072 86.691 129.274 87.4606 133.445 86.8834L135.064 87.1857C136.491 86.9933 138.165 86.8834 139.619 87.0208L139.537 87.1308C141.677 86.8559 144.092 86.9933 145.135 86.8559L145.053 86.9658L147.659 86.8834L147.22 87.0483C150.952 86.6635 154.794 86.4986 158.169 86.5261L157.867 86.1413C165.112 86.3886 167.719 85.3167 174.277 85.5091L174.195 85.619C182.372 84.1348 187.257 85.4816 195.681 83.8599C194.638 84.0798 196.148 84.0248 196.065 84.1348C199.962 83.695 204.105 83.2827 204.105 82.4856C206.959 82.2657 206.438 82.5406 206.85 82.8154C206.795 82.4856 209.264 82.1283 211.46 81.8809L210.444 82.1008L216.783 81.3862L215.466 80.8639C218.841 80.7265 216.399 81.5786 219.61 81.1113L219.527 80.5891C224.192 80.2592 226.991 80.809 231.546 80.7815C250.261 79.2148 270.238 75.9989 287.718 75.7515L288.514 76.1089C288.898 76.6861 293.261 74.927 293.947 75.4492L295.95 75.0644C296.526 75.1468 297.734 75.1743 296.718 75.3667C298.584 75.2843 298.639 75.1743 299.984 74.8995L302.015 75.1468C309.424 75.0919 315.68 74.0474 323.473 73.91C328.166 74.1573 334.889 73.9649 341.722 73.6901C348.554 73.4977 355.497 73.1679 360.573 72.9205C374.87 72.0409 391.39 74.7346 406.016 74.3772C406.482 74.4872 407.717 74.3498 407.717 74.2673L421.053 75.0369C421.053 75.0369 424.73 75.2568 429.67 75.5317C431.234 73.8275 432.935 72.2608 434.636 70.969L434.719 70.8865Z" fill="#5E3449"/>
<path d="M216.289 75.9165L216.673 75.6416L216.289 75.9165Z" fill="#5E3449"/>
<path d="M401.762 5.3323C397.427 4.3428 394.929 3.54571 390.951 7.47621C387.411 10.9669 383.898 17.5361 382.307 23.2257C382.608 17.3437 381.374 9.94995 379.151 5.5247C376.626 0.494759 374.019 0.467273 369.574 1.07363e-05C367.955 -0.164905 366.391 0.63219 365.568 2.03398C363.29 5.85454 361.753 7.97096 364.278 13.0009C366.501 17.4536 371.66 22.8409 376.571 26.1117C371.083 24.0228 363.674 22.8959 358.79 23.638C353.247 24.4901 352.396 26.9638 350.612 31.0317C349.954 32.516 350.201 34.2476 351.271 35.4845C354.207 38.8378 355.744 40.9542 361.287 40.1296C366.199 39.3875 372.894 36.1441 377.532 32.4885C373.827 37.0787 370.507 43.7578 369.684 48.6503C368.778 54.2025 370.891 55.7692 374.184 58.7377C375.392 59.8096 377.12 60.112 378.602 59.4798C382.691 57.7207 385.188 56.9236 386.093 51.3714C386.889 46.4789 385.901 39.0852 383.843 33.533C387.054 38.453 392.377 43.7303 396.768 45.9841C401.762 48.5678 403.875 47.0286 407.744 44.8022C409.144 43.9777 409.967 42.411 409.802 40.8168C409.391 36.3915 409.391 33.7529 404.424 31.1692C400.006 28.8878 392.679 27.541 386.779 27.7884C392.46 26.2492 399.1 22.8134 402.613 19.3227C406.619 15.3647 405.823 12.8635 404.89 8.52068C404.561 6.92649 403.326 5.68962 401.735 5.3323H401.762Z" fill="#C2678B"/>
<path d="M43.5213 46.9187C40.9693 44.8297 39.5972 43.4554 35.6457 44.7473C32.1607 45.8742 27.633 49.0626 24.6968 52.2784C26.8372 48.4854 28.4837 43.1806 28.4837 39.5249C28.4837 35.347 26.7549 34.4675 23.9834 32.7084C22.968 32.0487 21.6783 32.0762 20.663 32.7084C17.8915 34.495 16.1627 35.3745 16.1627 39.5249C16.1627 43.208 17.7817 48.4854 19.9495 52.2784C17.0134 49.0626 12.4856 45.8742 9.00062 44.7198C5.04913 43.4279 3.67709 44.8022 1.12508 46.8912C0.192093 47.6608 -0.21952 48.8976 0.0823297 50.0521C0.905557 53.2404 1.20741 55.1645 5.18634 56.4563C8.67133 57.5832 14.187 57.6932 18.4677 56.8136C14.5162 58.6277 10.0708 61.926 7.93043 64.8945C5.48819 68.2753 6.36629 70.0069 7.57369 73.0579C8.01275 74.1848 9.0555 74.9544 10.2629 75.0094C13.5558 75.2018 15.4767 75.5041 17.9189 72.1233C20.0867 69.1549 21.8704 63.9325 22.3643 59.5897C22.8583 63.9325 24.6419 69.1549 26.7823 72.1233C29.2246 75.5041 31.1454 75.2018 34.4383 75.0094C35.6457 74.9269 36.6885 74.1848 37.1275 73.0579C38.3349 69.9794 39.213 68.2478 36.7708 64.8945C34.603 61.926 30.2124 58.6002 26.2335 56.7861C30.4868 57.6657 36.0299 57.5832 39.5149 56.4563C43.4664 55.1645 43.7682 53.2404 44.6189 50.0521C44.9208 48.8976 44.5091 47.6333 43.6036 46.8912L43.5213 46.9187Z" fill="#C2678B"/>
<path d="M491 42.9882C491.137 39.9372 489.491 37.0787 486.774 35.6769C479.365 31.8563 475.249 29.1627 466.139 34.44C458.098 39.1126 448.576 49.3374 442.978 58.9026C446.299 48.3754 447.561 34.385 445.64 25.3146C443.445 14.9799 438.698 13.7155 430.904 10.7745C428.051 9.70256 424.84 10.3897 422.672 12.5336C416.745 18.3882 412.931 21.4941 415.126 31.8288C417.074 40.9267 423.852 53.158 431.206 61.4313C422.233 55.027 409.363 49.4749 400.143 48.5128C389.661 47.4134 386.999 51.5363 381.785 58.0505C379.892 60.4143 379.535 63.7126 380.907 66.4337C384.639 73.9099 386.423 78.5001 396.905 79.5995C406.153 80.5616 419.873 77.8954 429.999 73.4427C421.135 80.0118 411.915 90.5665 408.129 99.0597C403.848 108.707 406.921 112.528 411.504 119.482C413.178 122.01 416.169 123.385 419.187 122.918C427.447 121.653 432.331 121.406 436.64 111.758C440.426 103.238 442.1 89.3571 441.003 78.3352C444.488 88.8074 451.677 100.874 458.565 107.086C466.386 114.149 470.968 112.39 479.008 110.164C481.945 109.367 484.14 106.893 484.634 103.897C485.978 95.6514 487.241 90.8963 479.42 83.8599C472.505 77.6206 459.855 71.7385 449.043 69.3747C460.074 69.2923 473.74 66.1864 481.752 61.5412C490.863 56.2639 490.616 51.3439 491 43.0156V42.9882ZM458.922 65.2243C455.19 67.3683 448.851 68.825 443.747 68.8525C448.769 69.9519 454.641 72.7006 457.824 75.5866C461.446 78.8574 460.87 81.0563 460.239 84.8769C460.019 86.2786 458.977 87.4056 457.632 87.7904C453.9 88.8074 451.787 89.632 448.137 86.3611C444.927 83.4751 441.606 77.8954 439.987 73.0304C440.481 78.1428 439.713 84.5745 437.957 88.5325C435.981 93.0127 433.703 93.1227 429.862 93.6999C428.462 93.9198 427.063 93.2876 426.294 92.1057C424.181 88.8623 422.727 87.1032 424.73 82.623C426.486 78.6925 430.767 73.8 434.883 70.749C430.191 72.8105 423.825 74.0474 419.544 73.6076C414.687 73.0854 413.864 70.9689 412.135 67.5057C411.504 66.2413 411.668 64.7296 412.546 63.6302C414.961 60.6067 416.196 58.6827 421.053 59.2049C425.334 59.6447 431.316 62.2284 435.46 65.1969C432.057 61.3488 428.901 55.6867 427.996 51.4538C426.98 46.6713 428.737 45.242 431.508 42.5209C432.496 41.5314 434.005 41.2016 435.322 41.6963C438.945 43.0706 441.14 43.6478 442.155 48.4304C443.061 52.6357 442.457 59.1225 440.92 64.015C443.5 59.5897 447.918 54.8346 451.65 52.6632C455.876 50.217 457.797 51.4538 461.227 53.2404C462.489 53.9001 463.257 55.2194 463.175 56.6212C463.01 60.4968 463.12 62.7781 458.894 65.2243H458.922Z" fill="#C2678B"/>
</g>
<path d="M84.4 58.92C84.4 59.7467 84.0667 60.4533 83.4 61.04C82.76 61.6 82.0933 62.04 81.4 62.36C80.04 63 78.5867 63.48 77.04 63.8C75.52 64.0933 74.0133 64.24 72.52 64.24C71.24 64.24 69.96 64.12 68.68 63.88C67.4267 63.64 66.24 63.24 65.12 62.68C64 62.12 63.0533 61.3733 62.28 60.44C61.5067 59.48 60.9733 58.2933 60.68 56.88C60.8667 56.7467 61.2 56.5067 61.68 56.16C62.1867 55.7867 62.6933 55.44 63.2 55.12C63.7067 54.8 64.0533 54.64 64.24 54.64C64.48 54.64 64.64 54.7867 64.72 55.08C64.8533 55.48 64.9867 55.8667 65.12 56.24C65.2533 56.5867 65.4267 56.9467 65.64 57.32C66.4933 58.76 67.7067 59.8667 69.28 60.64C70.8533 61.4133 72.4533 61.8 74.08 61.8C75.1733 61.8 76.2267 61.72 77.24 61.56C78.28 61.3733 79.3067 61.1067 80.32 60.76C80.1333 60.5467 79.96 60.2933 79.8 60C79.6667 59.68 79.6 59.3733 79.6 59.08C79.6 58.4933 79.84 57.9867 80.32 57.56C80.8 57.1067 81.32 56.88 81.88 56.88C82.4133 56.88 82.96 57.0667 83.52 57.44C84.1067 57.8133 84.4 58.3067 84.4 58.92ZM82.32 39.28C82.32 39.92 82.04 40.6 81.48 41.32C80.92 42.0133 80.2667 42.6533 79.52 43.24C78.8 43.8267 78.1867 44.28 77.68 44.6C77.4933 44.7333 77.28 44.88 77.04 45.04C76.8267 45.1733 76.6133 45.2933 76.4 45.4C76.2133 45.48 76 45.52 75.76 45.52C75.5733 45.52 75.4133 45.48 75.28 45.4C75.1467 45.2933 75.08 45.1467 75.08 44.96C75.08 44.7467 75.1733 44.44 75.36 44.04C75.5467 43.6133 75.7333 43.16 75.92 42.68C76.1067 42.1733 76.2 41.72 76.2 41.32C76.2 40.84 76.0533 40.5067 75.76 40.32C75.4933 40.1067 75.16 39.9733 74.76 39.92C74.3867 39.84 74.0267 39.7867 73.68 39.76C73.3333 39.7333 72.96 39.72 72.56 39.72C72.1867 39.6933 71.8133 39.68 71.44 39.68C70.0533 39.68 68.6533 39.7467 67.24 39.88C65.8533 40.0133 64.4667 40.16 63.08 40.32L63.12 37.84C65.9733 37.6 68.84 37.48 71.72 37.48C73.32 37.48 74.92 37.5333 76.52 37.64C78.1467 37.72 79.7467 37.9333 81.32 38.28C81.5333 38.3067 81.7333 38.3867 81.92 38.52C82.1867 38.6267 82.32 38.88 82.32 39.28ZM89.88 41.44C89.88 41.52 89.8267 41.6133 89.72 41.72C89.64 41.8 89.5467 41.84 89.44 41.84C89.2533 41.84 88.9333 41.76 88.48 41.6C88.0267 41.44 87.52 41.24 86.96 41C86.4267 40.76 85.9067 40.5333 85.4 40.32C84.92 40.1067 84.5467 39.96 84.28 39.88C84.2 39.8533 84.0933 39.8133 83.96 39.76C83.8533 39.7067 83.8 39.6267 83.8 39.52C83.8 39.36 83.96 39.0933 84.28 38.72C84.6 38.32 84.9333 37.96 85.28 37.64C85.6533 37.2933 85.92 37.12 86.08 37.12C86.3733 37.12 86.7333 37.2933 87.16 37.64C87.5867 37.96 88 38.3733 88.4 38.88C88.8267 39.36 89.1733 39.84 89.44 40.32C89.7333 40.7733 89.88 41.1467 89.88 41.44ZM92.36 37.72C92.36 37.8 92.3067 37.8933 92.2 38C92.12 38.08 92.0267 38.12 91.92 38.12C91.84 38.12 91.6133 38.04 91.24 37.88C90.8933 37.6933 90.4933 37.4933 90.04 37.28C89.5867 37.04 89.16 36.8133 88.76 36.6C88.3867 36.3867 88.1333 36.24 88 36.16C87.8933 36.1067 87.6933 36.04 87.4 35.96C87.1333 35.8533 86.88 35.7333 86.64 35.6C86.4 35.4667 86.28 35.3467 86.28 35.24C86.28 35.08 86.44 34.8133 86.76 34.44C87.08 34.0667 87.4267 33.72 87.8 33.4C88.2 33.08 88.48 32.92 88.64 32.92C88.96 32.92 89.3333 33.1067 89.76 33.48C90.1867 33.8533 90.5867 34.32 90.96 34.88C91.36 35.4133 91.6933 35.9467 91.96 36.48C92.2267 36.9867 92.36 37.4 92.36 37.72ZM143.52 49.6V43.56H141.72V49.6H143.52ZM149.32 43.56H147.84V49.64C148.453 49.64 148.853 49.4267 149.04 49C149.227 48.5467 149.32 48.0667 149.32 47.56V43.56ZM166.68 42.04H159.32V46.12H162.52C162.6 45.72 162.813 45.3867 163.16 45.12C163.507 44.8533 163.88 44.72 164.28 44.72C164.653 44.72 165 44.8667 165.32 45.16C165.667 45.4267 165.84 45.76 165.84 46.16C165.84 46.6667 165.667 47.0533 165.32 47.32C165 47.5867 164.6 47.72 164.12 47.72H159.32V51.2H162.48C162.56 50.8 162.773 50.4667 163.12 50.2C163.467 49.9333 163.84 49.8 164.24 49.8C164.64 49.8 165 49.9467 165.32 50.24C165.64 50.5333 165.8 50.88 165.8 51.28C165.8 51.7867 165.627 52.1733 165.28 52.44C164.933 52.68 164.533 52.8 164.08 52.8H159.32V56.84H164.08C164.987 56.84 165.64 56.52 166.04 55.88C166.467 55.24 166.68 54.5067 166.68 53.68V42.04ZM161.76 61.64C161.76 61.72 161.627 61.88 161.36 62.12C161.093 62.36 160.813 62.6 160.52 62.84C160.253 63.0533 160.067 63.2 159.96 63.28C158.627 64.1333 157.2 64.8933 155.68 65.56C155.307 65.72 154.773 65.92 154.08 66.16C153.413 66.4267 152.747 66.6533 152.08 66.84C151.413 67.0267 150.88 67.12 150.48 67.12C150.373 67.12 150.253 67.08 150.12 67C150.013 66.9467 149.96 66.8533 149.96 66.72C149.96 66.6133 150.04 66.5067 150.2 66.4C150.493 66.1867 150.773 65.9867 151.04 65.8C151.333 65.6133 151.613 65.4133 151.88 65.2C153.053 64.2933 154.147 63.3067 155.16 62.24C156.2 61.1467 157.147 60 158 58.8C158.133 58.88 158.387 59.0533 158.76 59.32C159.16 59.5867 159.587 59.8933 160.04 60.24C160.52 60.56 160.92 60.8533 161.24 61.12C161.587 61.3867 161.76 61.56 161.76 61.64ZM154 37.28C154 37.76 153.813 38.1733 153.44 38.52C153.067 38.8667 152.64 39.04 152.16 39.04H147.92V42.12H153.52V47.16C153.52 48.3867 153.253 49.28 152.72 49.84C152.213 50.4 151.533 50.76 150.68 50.92C149.853 51.0533 148.933 51.1333 147.92 51.16V54L150.32 52.84C150.853 53.9067 151.387 54.96 151.92 56C152.453 57.0133 153 58.04 153.56 59.08C153.613 59.1867 153.667 59.2933 153.72 59.4C153.773 59.48 153.8 59.5867 153.8 59.72C153.8 59.9067 153.72 60.04 153.56 60.12C153.427 60.2 153.293 60.24 153.16 60.24C152.867 60.24 152.48 60.1067 152 59.84C151.52 59.5467 151.013 59.2 150.48 58.8C149.947 58.3733 149.44 57.9733 148.96 57.6C148.507 57.2 148.16 56.9067 147.92 56.72V67.16H143.44V56.32C142.773 57.5467 142.013 58.8 141.16 60.08C140.333 61.36 139.373 62.4533 138.28 63.36C138.093 63.52 137.827 63.72 137.48 63.96C137.133 64.2 136.787 64.4133 136.44 64.6C136.093 64.8133 135.787 64.92 135.52 64.92C135.28 64.92 135.16 64.8133 135.16 64.6C135.16 64.52 135.213 64.4 135.32 64.24C135.453 64.08 135.547 63.96 135.6 63.88C136.293 62.92 136.907 61.7733 137.44 60.44C138 59.1067 138.48 57.7333 138.88 56.32C139.28 54.9067 139.6 53.6267 139.84 52.48L143.44 53.36V51.16H137.52V42.12H143.44V39.04H136.56V37.24H143.4V30.92H147.96V37.24H149.92C150 36.7333 150.24 36.3067 150.64 35.96C151.04 35.6133 151.493 35.44 152 35.44C152.453 35.44 152.893 35.6267 153.32 36C153.773 36.3733 154 36.8 154 37.28ZM174.76 65.8C174.76 66.3067 174.56 66.72 174.16 67.04C173.787 67.3867 173.36 67.56 172.88 67.56C172.267 67.56 171.547 67.3467 170.72 66.92C169.893 66.52 169.053 66.0133 168.2 65.4C167.347 64.7867 166.56 64.1733 165.84 63.56C165.12 62.9467 164.547 62.4267 164.12 62C164.04 61.92 163.947 61.8267 163.84 61.72C163.76 61.5867 163.72 61.4667 163.72 61.36C163.72 61.2 163.8 61.0667 163.96 60.96C164.413 60.5867 165.013 60.1733 165.76 59.72C166.507 59.24 167.133 58.8667 167.64 58.6C168.12 59.6667 168.653 60.72 169.24 61.76C169.827 62.7733 170.493 63.7467 171.24 64.68C171.453 64.3867 171.707 64.1867 172 64.08C172.293 63.9733 172.613 63.92 172.96 63.92C173.413 63.92 173.827 64.12 174.2 64.52C174.573 64.92 174.76 65.3467 174.76 65.8ZM173.92 33.32C173.92 33.88 173.747 34.3467 173.4 34.72C173.053 35.0933 172.587 35.28 172 35.28H166.2C165.667 36.1867 165.053 37.0533 164.36 37.88C163.693 38.68 163.013 39.4933 162.32 40.32H171.4C171.4 42.4533 171.4 44.5867 171.4 46.72C171.427 48.8533 171.44 50.9867 171.44 53.12C171.44 54.64 171.133 55.8 170.52 56.6C169.907 57.4 169.08 57.9467 168.04 58.24C167 58.5333 165.813 58.68 164.48 58.68H155V40.32H159.44C159.6 39.4667 159.747 38.6267 159.88 37.8C160.013 36.9467 160.12 36.1067 160.2 35.28H153.12V33.48L169.6 33.44C169.68 32.8533 169.907 32.3733 170.28 32C170.68 31.6 171.173 31.4 171.76 31.4C172.293 31.4 172.787 31.5867 173.24 31.96C173.693 32.3067 173.92 32.76 173.92 33.32ZM191.24 59.16C191.24 59.2667 191.227 59.3467 191.2 59.4C190.853 60.1467 190.373 60.9333 189.76 61.76C189.173 62.5867 188.48 63.2933 187.68 63.88C186.907 64.44 186.067 64.72 185.16 64.72C184.173 64.72 183.387 64.44 182.8 63.88C182.24 63.32 181.827 62.6267 181.56 61.8C181.293 60.9467 181.12 60.0667 181.04 59.16C180.987 58.2533 180.96 57.4533 180.96 56.76C180.96 55.96 180.96 55.2267 180.96 54.56C180.96 53.8667 180.96 53.1333 180.96 52.36C180.987 51.5867 181.027 50.68 181.08 49.64C181.187 47.72 181.293 45.8 181.4 43.88C181.507 41.9333 181.64 40 181.8 38.08L186.64 38.32C186.293 41.7067 186.013 45.08 185.8 48.44C185.613 51.7733 185.52 55.1467 185.52 58.56C185.52 58.8 185.52 59.0667 185.52 59.36C185.547 59.6533 185.6 59.9467 185.68 60.24C185.787 60.6133 185.933 60.9333 186.12 61.2C186.333 61.4667 186.587 61.6 186.88 61.6C187.333 61.6 187.787 61.4667 188.24 61.2C188.693 60.9067 189.107 60.5867 189.48 60.24C189.88 59.8667 190.187 59.5467 190.4 59.28C190.64 58.9867 190.827 58.84 190.96 58.84C191.04 58.84 191.107 58.88 191.16 58.96C191.213 59.04 191.24 59.1067 191.24 59.16ZM211.4 56.36C211.4 56.9733 211.147 57.5333 210.64 58.04C210.133 58.5467 209.48 59 208.68 59.4C207.907 59.8 207.067 60.1333 206.16 60.4C205.28 60.6667 204.44 60.88 203.64 61.04C202.867 61.1733 202.24 61.24 201.76 61.24C199.52 61.24 197.653 60.6533 196.16 59.48C194.667 58.28 193.813 56.5333 193.6 54.24C193.68 54.2133 193.907 54.1467 194.28 54.04C194.653 53.9333 195.067 53.8133 195.52 53.68C195.973 53.52 196.4 53.3867 196.8 53.28C197.2 53.1467 197.48 53.0533 197.64 53C197.747 54.0133 198 54.9733 198.4 55.88C198.827 56.76 199.427 57.48 200.2 58.04C200.973 58.6 201.92 58.88 203.04 58.88C203.813 58.88 204.573 58.8133 205.32 58.68C206.067 58.52 206.8 58.3333 207.52 58.12C207.227 57.9333 206.987 57.6667 206.8 57.32C206.64 56.9733 206.56 56.6267 206.56 56.28C206.56 55.7467 206.84 55.2667 207.4 54.84C207.96 54.4133 208.493 54.2 209 54.2C209.533 54.2 210.067 54.4133 210.6 54.84C211.16 55.2667 211.44 55.7467 211.44 56.28L211.4 56.36ZM207.76 40.36C207.76 40.8667 207.547 41.52 207.12 42.32C206.827 42.8533 206.453 43.3733 206 43.88C205.573 44.3867 205.147 44.8133 204.72 45.16C204.293 45.48 203.907 45.64 203.56 45.64C203.453 45.64 203.333 45.6133 203.2 45.56C203.093 45.48 203.04 45.3733 203.04 45.24C203.04 44.68 203.053 44.12 203.08 43.56C203.133 43 203.173 42.44 203.2 41.88H194.44C194.44 40.92 194.44 40.3733 194.44 40.24C194.44 40.08 194.44 40 194.44 40C196.573 40 198.707 40 200.84 40C203 39.9733 205.147 39.96 207.28 39.96C207.6 39.96 207.76 40.0933 207.76 40.36ZM250.2 48.32C250.2 50.1867 249.827 51.8533 249.08 53.32C248.36 54.76 247.373 56.0267 246.12 57.12C244.893 58.2133 243.52 59.16 242 59.96C240.507 60.7333 238.973 61.4 237.4 61.96C236.467 62.3067 235.373 62.6267 234.12 62.92C232.867 63.2133 231.733 63.36 230.72 63.36C230.293 63.36 229.867 63.2 229.44 62.88C229.04 62.56 228.84 62.16 228.84 61.68C228.84 61.0933 229.08 60.6133 229.56 60.24C230.067 59.84 230.587 59.64 231.12 59.64C231.707 59.64 232.173 59.8533 232.52 60.28C232.867 60.68 233.04 61.16 233.04 61.72C234.24 61.3467 235.333 60.8933 236.32 60.36C238.827 59.0533 240.853 57.4267 242.4 55.48C243.947 53.5067 244.72 51.0533 244.72 48.12C244.72 46.8933 244.4 45.8133 243.76 44.88C243.12 43.92 242.28 43.1733 241.24 42.64C240.227 42.08 239.133 41.8 237.96 41.8C236.707 41.8 235.4 42 234.04 42.4C232.68 42.7733 231.413 43.1867 230.24 43.64C228.853 44.2 227.52 44.8533 226.24 45.6C224.987 46.32 223.693 47.0133 222.36 47.68C222.173 47.7867 221.973 47.88 221.76 47.96C221.573 48.0133 221.373 48.04 221.16 48.04C220.813 48.04 220.4 47.8667 219.92 47.52C219.467 47.1733 219.053 46.7733 218.68 46.32C218.333 45.84 218.16 45.4267 218.16 45.08C218.16 44.7867 218.267 44.6133 218.48 44.56C218.72 44.48 218.987 44.4533 219.28 44.48C219.573 44.48 219.8 44.48 219.96 44.48C220.68 44.48 221.533 44.32 222.52 44C223.507 43.68 224.333 43.3867 225 43.12C226.52 42.56 228.08 42 229.68 41.44C231.307 40.8533 232.947 40.3733 234.6 40C236.28 39.6267 237.92 39.44 239.52 39.44C241.44 39.44 243.2 39.7467 244.8 40.36C246.427 40.9467 247.733 41.8933 248.72 43.2C249.707 44.5067 250.2 46.2133 250.2 48.32ZM280 52.44C279.947 52.8133 279.813 53.24 279.6 53.72C279.387 54.2 279.187 54.6267 279 55C278.467 56.0933 277.76 57.2133 276.88 58.36C276 59.48 274.973 60.4267 273.8 61.2C272.653 61.9467 271.413 62.32 270.08 62.32C268.613 62.32 267.387 62.04 266.4 61.48C265.413 60.92 264.613 60.16 264 59.2C263.413 58.24 262.96 57.1733 262.64 56C262.347 54.8267 262.12 53.6267 261.96 52.4C261.827 51.1467 261.72 49.96 261.64 48.84C261.533 47.3733 261.44 45.9067 261.36 44.44C261.307 42.9733 261.267 41.5067 261.24 40.04L266.12 39.84C266.147 42.1067 266.187 44.3733 266.24 46.64C266.293 48.9067 266.427 51.16 266.64 53.4C266.72 54.2267 266.88 55.1067 267.12 56.04C267.387 56.9467 267.8 57.7333 268.36 58.4C268.92 59.04 269.72 59.36 270.76 59.36C272.013 59.36 273.147 59 274.16 58.28C275.173 57.56 276.067 56.68 276.84 55.64C277.613 54.6 278.28 53.6 278.84 52.64C278.92 52.5067 279 52.3733 279.08 52.24C279.187 52.1067 279.333 52.04 279.52 52.04C279.627 52.04 279.72 52.0933 279.8 52.2C279.907 52.28 279.973 52.36 280 52.44ZM290.84 53.32C290.84 53.7467 290.733 54.2 290.52 54.68C290.333 55.16 290.053 55.5733 289.68 55.92C289.307 56.24 288.88 56.4 288.4 56.4C287.973 56.4 287.493 56.24 286.96 55.92C286.453 55.6 286.2 55.1867 286.2 54.68C286.2 54.0667 286.453 53.6 286.96 53.28C287.493 52.96 288.027 52.7867 288.56 52.76C288.107 51.6667 287.413 50.5333 286.48 49.36C285.547 48.1867 284.52 47.1067 283.4 46.12C282.28 45.1067 281.2 44.3067 280.16 43.72C280.053 43.6667 279.92 43.6 279.76 43.52C279.6 43.44 279.52 43.32 279.52 43.16C279.52 43.1067 279.693 42.96 280.04 42.72C280.413 42.4533 280.853 42.16 281.36 41.84C281.867 41.4933 282.333 41.1867 282.76 40.92C283.187 40.6267 283.453 40.44 283.56 40.36C284.867 41.3467 286.067 42.5333 287.16 43.92C288.28 45.28 289.173 46.76 289.84 48.36C290.507 49.96 290.84 51.6133 290.84 53.32ZM327.44 37.68C327.44 37.9467 327.293 38.2 327 38.44C326.707 38.6533 326.453 38.8267 326.24 38.96C326.08 39.0667 325.907 39.16 325.72 39.24C325.56 39.32 325.387 39.4 325.2 39.48C323.707 40.2267 322.24 41.1333 320.8 42.2C319.387 43.24 318.08 44.3467 316.88 45.52C315.813 46.5333 314.88 47.6933 314.08 49C313.28 50.3067 312.88 51.72 312.88 53.24C312.88 54.9733 313.32 56.5467 314.2 57.96C315.107 59.3467 316.267 60.5067 317.68 61.44C319.093 62.3467 320.587 63 322.16 63.4C322.213 62.7067 322.453 62.12 322.88 61.64C323.333 61.16 323.92 60.92 324.64 60.92C325.253 60.92 325.787 61.12 326.24 61.52C326.72 61.8933 326.96 62.4 326.96 63.04C326.96 63.76 326.68 64.28 326.12 64.6C325.56 64.92 324.973 65.08 324.36 65.08C323.08 65.08 321.707 64.96 320.24 64.72C318.773 64.5067 317.44 64.1867 316.24 63.76C314.827 63.2267 313.507 62.5067 312.28 61.6C311.08 60.6933 310.12 59.6 309.4 58.32C308.68 57.04 308.32 55.6 308.32 54C308.32 52.6133 308.613 51.2667 309.2 49.96C309.787 48.6533 310.547 47.4133 311.48 46.24C312.44 45.04 313.44 43.9067 314.48 42.84C315.547 41.7733 316.533 40.8 317.44 39.92C315.013 40.4533 312.573 40.9467 310.12 41.4C307.693 41.8533 305.253 42.2667 302.8 42.64C302.453 42.6933 302.093 42.7733 301.72 42.88C301.347 42.96 300.973 43 300.6 43C300.387 43 300.24 42.88 300.16 42.64C300.027 42.2667 299.92 41.8933 299.84 41.52C299.76 41.12 299.667 40.7333 299.56 40.36C302.413 40.2267 305.24 39.9867 308.04 39.64C310.84 39.2667 313.653 38.9067 316.48 38.56C316.933 38.5067 317.413 38.4533 317.92 38.4C318.453 38.3467 318.933 38.24 319.36 38.08C320.027 37.8133 320.547 37.44 320.92 36.96C321.293 36.48 321.667 36.04 322.04 35.64C322.413 35.24 322.893 35.04 323.48 35.04C323.72 35.04 324.04 35.12 324.44 35.28C324.867 35.4133 325.267 35.5733 325.64 35.76C326.04 35.9467 326.333 36.12 326.52 36.28C326.813 36.4933 327.04 36.6933 327.2 36.88C327.36 37.04 327.44 37.3067 327.44 37.68Z" fill="#5E3449"/>
<path d="M133.28 39.48C133.28 40.12 133.053 40.64 132.6 41.04C132.147 41.4133 131.613 41.6 131 41.6H121.52C120.693 43.1467 119.76 44.6133 118.72 46C117.707 47.3867 116.6 48.72 115.4 50V62.2C116.653 61.96 117.88 61.6533 119.08 61.28C120.307 60.88 121.507 60.4533 122.68 60C122.733 59.9733 122.813 59.96 122.92 59.96C123.08 59.96 123.16 60.04 123.16 60.2C123.16 60.3333 123.12 60.44 123.04 60.52C122.267 61.6667 121.187 62.64 119.8 63.44C118.44 64.24 116.987 64.88 115.44 65.36C113.92 65.8667 112.507 66.2267 111.2 66.44C111.2 64.3067 111.2 62.1733 111.2 60.04C111.2 57.88 111.213 55.7333 111.24 53.6C110.867 53.8933 110.347 54.2267 109.68 54.6C109.013 54.9467 108.333 55.2667 107.64 55.56C106.947 55.8267 106.36 56.0133 105.88 56.12V66.6H101.2V47.24C100.373 47.9333 99.5333 48.6267 98.68 49.32C97.8267 49.9867 96.8933 50.5333 95.88 50.96C95.72 51.0133 95.5867 51.04 95.48 51.04C95.2667 51.04 95.16 50.96 95.16 50.8C95.16 50.6933 95.2 50.6 95.28 50.52C96.72 48.68 98.0133 46.7733 99.16 44.8C100.387 42.7467 101.467 40.6267 102.4 38.44C103.333 36.2533 104.12 34 104.76 31.68L110.2 33.96C109.347 35.96 108.32 37.8667 107.12 39.68C105.947 41.4667 104.707 43.2267 103.4 44.96H105.88V55.44C107.133 54.3467 108.4 53.0267 109.68 51.48C110.987 49.9067 112.173 48.2533 113.24 46.52C114.333 44.7867 115.173 43.1467 115.76 41.6H108.08V39.76H117.92C117.68 36.9867 117.56 34.2133 117.56 31.44C117.72 31.44 117.867 31.44 118 31.44C118.16 31.4133 118.32 31.4 118.48 31.4C118.72 31.4 119.107 31.4133 119.64 31.44C120.2 31.44 120.8 31.48 121.44 31.56C122.08 31.6133 122.653 31.6933 123.16 31.8C123.693 31.88 124.027 32 124.16 32.16C124.213 32.1867 124.24 32.2533 124.24 32.36C124.267 32.4667 124.28 32.5467 124.28 32.6C124.28 33 124.147 33.5333 123.88 34.2C123.64 34.84 123.333 35.5333 122.96 36.28C122.587 37 122.213 37.68 121.84 38.32C121.493 38.9333 121.213 39.4133 121 39.76H128.36C128.36 39.0133 128.587 38.3867 129.04 37.88C129.493 37.3733 130.107 37.12 130.88 37.12C131.467 37.12 132.013 37.3733 132.52 37.88C133.027 38.36 133.28 38.8933 133.28 39.48ZM134.4 64.8C134.4 65.3333 134.187 65.7867 133.76 66.16C133.333 66.5333 132.853 66.72 132.32 66.72C131.52 66.72 130.733 66.4933 129.96 66.04C129.213 65.6133 128.533 65.1467 127.92 64.64C125.6 62.72 123.653 60.4667 122.08 57.88C120.507 55.2667 119.227 52.56 118.24 49.76C119.867 48.9867 121.413 48.0133 122.88 46.84C124.373 45.6667 125.773 44.4933 127.08 43.32C127.72 43.8267 128.373 44.3333 129.04 44.84C129.733 45.3467 130.373 45.88 130.96 46.44C131.12 46.6 131.2 46.7733 131.2 46.96C131.2 47.0933 131.12 47.2267 130.96 47.36C130.72 47.52 130.253 47.72 129.56 47.96C128.893 48.1733 128.133 48.4 127.28 48.64C126.453 48.88 125.667 49.1067 124.92 49.32C124.173 49.5333 123.613 49.6933 123.24 49.8C123.533 50.8667 123.92 52.0533 124.4 53.36C124.907 54.6667 125.493 56 126.16 57.36C126.827 58.6933 127.533 59.9467 128.28 61.12C129.027 62.2933 129.773 63.28 130.52 64.08C130.707 63.7067 130.987 63.4133 131.36 63.2C131.733 62.9867 132.12 62.88 132.52 62.88C133.053 62.88 133.493 63.0667 133.84 63.44C134.213 63.8133 134.4 64.2667 134.4 64.8Z" fill="#C2678B"/>
<defs>
<clipPath id="clip0_55_325">
<rect width="491" height="123" fill="white"/>
</clipPath>
</defs>
</svg>
