<svg width="491" height="130" viewBox="0 0 491 130" fill="none" xmlns="http://www.w3.org/2000/svg">
<path d="M307.606 93.944L300.874 119H299.47L295.726 105.068L291.982 119H290.578L283.846 93.944H285.214L291.262 116.516L295.042 102.512L292.738 93.944H294.106L296.41 102.512L300.19 116.516L306.238 93.944H307.606ZM322.375 93.404C324.247 93.404 325.975 93.872 327.559 94.808C329.143 95.72 330.391 96.968 331.303 98.552C332.239 100.136 332.707 101.864 332.707 103.736V109.208C332.707 111.08 332.239 112.808 331.303 114.392C330.391 115.976 329.143 117.236 327.559 118.172C325.975 119.084 324.247 119.54 322.375 119.54C320.503 119.54 318.775 119.084 317.191 118.172C315.607 117.236 314.347 115.976 313.411 114.392C312.499 112.808 312.043 111.08 312.043 109.208V103.736C312.043 101.864 312.499 100.136 313.411 98.552C314.347 96.968 315.607 95.72 317.191 94.808C318.775 93.872 320.503 93.404 322.375 93.404ZM313.375 109.208C313.375 110.84 313.771 112.352 314.563 113.744C315.379 115.112 316.471 116.204 317.839 117.02C319.231 117.812 320.743 118.208 322.375 118.208C324.007 118.208 325.507 117.812 326.875 117.02C328.267 116.204 329.359 115.112 330.151 113.744C330.967 112.352 331.375 110.84 331.375 109.208V103.736C331.375 102.104 330.967 100.604 330.151 99.236C329.359 97.844 328.267 96.752 326.875 95.96C325.507 95.144 324.007 94.736 322.375 94.736C320.743 94.736 319.231 95.144 317.839 95.96C316.471 96.752 315.379 97.844 314.563 99.236C313.771 100.604 313.375 102.104 313.375 103.736V109.208ZM354.459 94.772C355.899 95.444 357.027 96.44 357.843 97.76C358.683 99.08 359.103 100.544 359.103 102.152C359.103 104.024 358.527 105.704 357.375 107.192C356.247 108.656 354.795 109.628 353.019 110.108L359.391 119H357.807L351.651 110.36L350.499 110.396H341.463V119H340.131V93.944H349.671C350.727 93.944 351.627 94.016 352.371 94.16C353.139 94.28 353.835 94.484 354.459 94.772ZM350.859 109.064C352.107 109.064 353.259 108.752 354.315 108.128C355.371 107.504 356.211 106.664 356.835 105.608C357.459 104.552 357.771 103.4 357.771 102.152C357.771 100.76 357.399 99.5 356.655 98.372C355.935 97.244 354.927 96.404 353.631 95.852C352.695 95.468 351.375 95.276 349.671 95.276H341.463V109.064H350.859ZM367.644 93.944V110.9L384.636 93.944H386.508L376.032 104.384L386.472 119H384.888L375.096 105.32L367.644 112.772V119H366.312V93.944H367.644Z" fill="#C2678B"/>
<g clip-path="url(#clip0_55_330)">
<path d="M76.8345 80.1218C76.8345 80.1218 76.5327 79.9568 75.7094 79.8744L76.8345 80.1218Z" fill="#5E3449"/>
<path d="M434.719 70.8865C434.719 70.8865 434.636 70.8865 434.581 70.8865C429.917 72.8655 423.742 74.0474 419.544 73.6076C415.839 73.2228 414.467 71.876 413.26 69.7046C413.013 69.7046 412.766 69.6496 412.601 69.6222L412.766 69.5672C408.266 69.952 403.573 68.6327 399.21 69.045C399.375 68.99 399.485 68.7701 400.472 68.7976C397.317 68.7976 393.009 68.7976 392.789 68.3578C385.27 68.2479 374.76 67.8356 369.931 68.5502L370.26 68.4128C367.516 68.88 366.693 68.4677 363.647 68.6876C363.482 68.6327 363.263 68.6052 363.29 68.5777C360.299 69.045 354.564 68.7151 352.149 68.935L351.984 68.6327L346.03 68.7426L348.252 68.7976C347.484 69.6496 343.752 68.3028 339.444 68.9075C335.41 68.9075 331.294 70.8865 327.096 70.5842C325.12 71.0239 328.824 69.897 325.861 70.2818C325.751 69.842 327.26 69.9795 326.464 69.6496C323.528 69.952 321.635 69.2923 318.013 69.7871L317.848 69.4572C313.156 70.3093 308.93 69.4023 305.801 70.1444C300.944 70.6391 302.481 69.2923 297.459 70.2543L295.456 69.9245C293.288 69.9795 293.947 70.5842 291.532 70.5017C291.669 70.1994 288.486 70.4467 289.858 70.0894C284.37 69.9245 278.854 71.5462 271.637 71.2988C270.128 71.9585 266.506 71.9585 265.381 72.4807C265.161 72.2608 258.164 73.0579 262.17 72.1784C262.527 72.0959 263.131 72.0684 263.103 72.1784L263.57 71.7936C259.426 71.5187 256.188 72.783 252.154 73.0579C253.362 73.0579 254.953 72.893 253.911 73.2228L250.151 73.5252L250.892 73.1679L245.294 73.5252L246.09 73.8C243.346 73.8825 242.331 73.3603 239.285 74.1573C237.913 74.5696 241.919 74.3772 239.038 74.762C235.361 74.872 229.872 75.0369 225.207 75.3667C225.674 75.7241 224.439 75.834 223.149 76.0264L222.957 75.6966C218.073 76.6311 221.091 75.1194 216.207 75.9439L215.384 76.4937C211.021 77.5656 212.941 75.9989 208.112 77.3732C210.06 77.1258 209.1 78.0604 206.685 78.0879L207.261 77.703C205.944 77.8955 205.505 78.0604 204.627 78.0604C205.395 77.813 205.011 77.5381 203.063 77.758L204.325 77.2358L200.703 78.1428C197.849 78.0329 193.376 78.8575 192.169 78.4727C192.169 78.4727 186.049 78.6925 184.677 79.2972C185.885 78.8849 182.509 79.0224 183.442 78.5826C181.878 79.0499 177.241 79.682 175.347 79.3797L175.704 79.3247C168.762 79.2972 163.904 80.5616 157.675 80.2593C157.977 80.6441 154.684 80.5341 155.508 81.0289C149.086 81.7985 143.763 80.3417 141.458 81.9084C138.522 82.0184 137.973 81.5786 136.464 81.5236L137.15 81.4411C131.661 81.6335 130.07 81.6885 126.009 81.5786C123.978 81.716 123.649 82.4306 119.999 82.2108C121.179 81.9359 119.697 81.9634 118.325 81.9634C119.203 81.9359 119.478 81.826 117.694 81.6061C117.447 81.6885 117.063 81.7435 116.679 81.771C116.679 81.771 116.596 81.716 116.624 81.6885C114.346 81.771 114.73 81.8534 115.801 81.9084C115.746 81.9634 115.828 82.0184 116.157 82.1008C113.797 81.7435 109.572 81.9634 109.297 81.4411C102.464 81.2762 97.5524 81.661 91.8447 81.5786C91.2136 81.2762 92.5582 81.1388 94.2046 81.1113L90.1708 81.0014C90.2257 80.6441 92.5033 80.9189 93.7381 80.9189C88.9634 80.0668 83.8045 80.9739 78.2066 80.0394L77.0266 80.2593L76.6973 80.1768C76.6973 80.3417 75.435 80.4517 74.5844 80.4517C73.816 80.0668 74.6941 79.7095 71.9226 79.5171C69.7548 79.0499 65.6661 79.1598 62.7573 79.0774C64.294 79.2698 63.8001 79.4072 63.1141 79.4622C61.7146 79.3522 60.9462 78.9399 59.8486 78.9949L59.7663 78.5551C60.2877 79.0224 56.0892 78.6651 55.5678 78.775C54.7995 78.3902 57.7631 78.72 58.1198 78.5001C52.5493 77.9779 55.3209 78.2528 49.7504 77.7305C46.7319 77.7305 50.2443 78.1978 48.7899 78.4177C46.1556 78.2253 43.5487 78.2253 40.5851 77.6206L41.4906 78.1153C36.5238 77.8405 33.5877 77.4282 30.3222 76.6036C11.7722 75.6966 9.68664 76.2463 12.2386 77.3732C14.7907 78.4727 22.0076 79.792 22.0076 79.792C36.4141 82.6231 44.0426 82.4306 61.4127 83.75C76.6424 85.2342 80.6488 86.3062 96.5096 86.7734C104.083 87.0758 112.151 87.3506 119.56 87.2682C123.072 86.691 129.274 87.4606 133.445 86.8834L135.064 87.1857C136.491 86.9933 138.165 86.8834 139.619 87.0208L139.537 87.1308C141.677 86.8559 144.092 86.9933 145.135 86.8559L145.053 86.9658L147.659 86.8834L147.22 87.0483C150.952 86.6635 154.794 86.4986 158.169 86.5261L157.867 86.1413C165.112 86.3886 167.719 85.3167 174.277 85.5091L174.195 85.619C182.372 84.1348 187.257 85.4816 195.681 83.8599C194.638 84.0798 196.148 84.0248 196.065 84.1348C199.962 83.695 204.105 83.2827 204.105 82.4856C206.959 82.2657 206.438 82.5406 206.85 82.8154C206.795 82.4856 209.264 82.1283 211.46 81.8809L210.444 82.1008L216.783 81.3862L215.466 80.8639C218.841 80.7265 216.399 81.5786 219.61 81.1113L219.527 80.5891C224.192 80.2592 226.991 80.809 231.546 80.7815C250.261 79.2148 270.238 75.9989 287.718 75.7515L288.514 76.1089C288.898 76.6861 293.261 74.927 293.947 75.4492L295.95 75.0644C296.526 75.1468 297.734 75.1743 296.718 75.3667C298.584 75.2843 298.639 75.1743 299.984 74.8995L302.015 75.1468C309.424 75.0919 315.68 74.0474 323.473 73.91C328.166 74.1573 334.889 73.9649 341.722 73.6901C348.554 73.4977 355.497 73.1679 360.573 72.9205C374.87 72.0409 391.39 74.7346 406.016 74.3772C406.482 74.4872 407.717 74.3498 407.717 74.2673L421.053 75.0369C421.053 75.0369 424.73 75.2568 429.67 75.5317C431.234 73.8275 432.935 72.2608 434.636 70.969L434.719 70.8865Z" fill="#5E3449"/>
<path d="M216.289 75.9165L216.673 75.6416L216.289 75.9165Z" fill="#5E3449"/>
<path d="M401.762 5.33224C397.427 4.34274 394.929 3.54565 390.951 7.47615C387.411 10.9669 383.898 17.536 382.307 23.2256C382.608 17.3436 381.374 9.94989 379.151 5.52464C376.626 0.494698 374.019 0.467212 369.574 -5.02989e-05C367.955 -0.164966 366.391 0.632129 365.568 2.03392C363.29 5.85448 361.753 7.9709 364.278 13.0008C366.501 17.4536 371.66 22.8408 376.571 26.1117C371.083 24.0227 363.674 22.8958 358.79 23.6379C353.247 24.49 352.396 26.9637 350.612 31.0317C349.954 32.5159 350.201 34.2475 351.271 35.4844C354.207 38.8377 355.744 40.9541 361.287 40.1296C366.199 39.3874 372.894 36.1441 377.532 32.4884C373.827 37.0786 370.507 43.7577 369.684 48.6502C368.778 54.2024 370.891 55.7691 374.184 58.7376C375.392 59.8096 377.12 60.1119 378.602 59.4797C382.691 57.7206 385.188 56.9235 386.093 51.3713C386.889 46.4788 385.901 39.0851 383.843 33.5329C387.054 38.4529 392.377 43.7302 396.768 45.9841C401.762 48.5678 403.875 47.0285 407.744 44.8022C409.144 43.9776 409.967 42.4109 409.802 40.8167C409.391 36.3915 409.391 33.7528 404.424 31.1691C400.006 28.8878 392.679 27.541 386.779 27.7883C392.46 26.2491 399.1 22.8134 402.613 19.3226C406.619 15.3646 405.823 12.8634 404.89 8.52062C404.561 6.92643 403.326 5.68956 401.735 5.33224H401.762Z" fill="#C2678B"/>
<path d="M43.5213 46.9187C40.9693 44.8297 39.5972 43.4554 35.6457 44.7473C32.1607 45.8742 27.633 49.0626 24.6968 52.2784C26.8372 48.4854 28.4837 43.1806 28.4837 39.5249C28.4837 35.347 26.7549 34.4675 23.9834 32.7084C22.968 32.0487 21.6783 32.0762 20.663 32.7084C17.8915 34.495 16.1627 35.3745 16.1627 39.5249C16.1627 43.208 17.7817 48.4854 19.9495 52.2784C17.0134 49.0626 12.4856 45.8742 9.00062 44.7198C5.04913 43.4279 3.67709 44.8022 1.12508 46.8912C0.192093 47.6608 -0.21952 48.8976 0.0823297 50.0521C0.905557 53.2404 1.20741 55.1645 5.18634 56.4563C8.67133 57.5832 14.187 57.6932 18.4677 56.8136C14.5162 58.6277 10.0708 61.926 7.93043 64.8945C5.48819 68.2753 6.36629 70.0069 7.57369 73.0579C8.01275 74.1848 9.0555 74.9544 10.2629 75.0094C13.5558 75.2018 15.4767 75.5041 17.9189 72.1233C20.0867 69.1549 21.8704 63.9325 22.3643 59.5897C22.8583 63.9325 24.6419 69.1549 26.7823 72.1233C29.2246 75.5041 31.1454 75.2018 34.4383 75.0094C35.6457 74.9269 36.6885 74.1848 37.1275 73.0579C38.3349 69.9794 39.213 68.2478 36.7708 64.8945C34.603 61.926 30.2124 58.6002 26.2335 56.7861C30.4868 57.6657 36.0299 57.5832 39.5149 56.4563C43.4664 55.1645 43.7682 53.2404 44.6189 50.0521C44.9208 48.8976 44.5091 47.6333 43.6036 46.8912L43.5213 46.9187Z" fill="#C2678B"/>
<path d="M491 42.9882C491.137 39.9373 489.491 37.0787 486.774 35.6769C479.365 31.8564 475.249 29.1627 466.139 34.4401C458.098 39.1127 448.576 49.3375 442.978 58.9026C446.299 48.3755 447.561 34.3851 445.64 25.3147C443.445 14.9799 438.698 13.7156 430.904 10.7746C428.051 9.70263 424.84 10.3898 422.672 12.5337C416.745 18.3882 412.931 21.4941 415.126 31.8289C417.074 40.9268 423.852 53.158 431.206 61.4313C422.233 55.0271 409.363 49.4749 400.143 48.5129C389.661 47.4135 386.999 51.5364 381.785 58.0506C379.892 60.4144 379.535 63.7127 380.907 66.4338C384.639 73.91 386.423 78.5002 396.905 79.5996C406.153 80.5616 419.873 77.8955 429.999 73.4427C421.135 80.0119 411.915 90.5665 408.128 99.0597C403.848 108.707 406.921 112.528 411.504 119.482C413.178 122.011 416.169 123.385 419.187 122.918C427.447 121.653 432.331 121.406 436.64 111.758C440.426 103.238 442.1 89.3571 441.003 78.3353C444.488 88.8074 451.677 100.874 458.565 107.086C466.386 114.15 470.968 112.39 479.008 110.164C481.945 109.367 484.14 106.893 484.634 103.897C485.978 95.6515 487.241 90.8964 479.42 83.8599C472.505 77.6206 459.855 71.7386 449.043 69.3748C460.074 69.2923 473.74 66.1864 481.752 61.5413C490.863 56.264 490.616 51.344 491 43.0157V42.9882ZM458.922 65.2244C455.19 67.3683 448.851 68.8251 443.747 68.8526C448.768 69.952 454.641 72.7006 457.824 75.5866C461.446 78.8575 460.87 81.0564 460.239 84.8769C460.019 86.2787 458.976 87.4056 457.632 87.7904C453.9 88.8074 451.787 89.632 448.137 86.3612C444.927 83.4751 441.606 77.8955 439.987 73.0304C440.481 78.1428 439.713 84.5746 437.957 88.5326C435.981 93.0128 433.703 93.1227 429.862 93.6999C428.462 93.9198 427.063 93.2877 426.294 92.1058C424.181 88.8624 422.727 87.1033 424.73 82.6231C426.486 78.6926 430.767 73.8001 434.883 70.7491C430.191 72.8106 423.825 74.0474 419.544 73.6077C414.687 73.0854 413.864 70.969 412.135 67.5058C411.504 66.2414 411.668 64.7297 412.546 63.6302C414.961 60.6068 416.196 58.6827 421.053 59.205C425.334 59.6447 431.316 62.2284 435.46 65.1969C432.057 61.3489 428.901 55.6868 427.996 51.4539C426.98 46.6713 428.737 45.2421 431.508 42.521C432.496 41.5315 434.005 41.2016 435.322 41.6964C438.945 43.0707 441.14 43.6479 442.155 48.4304C443.061 52.6358 442.457 59.1225 440.92 64.015C443.5 59.5898 447.918 54.8347 451.65 52.6633C455.876 50.217 457.797 51.4539 461.227 53.2405C462.489 53.9002 463.257 55.2195 463.175 56.6213C463.01 60.4968 463.12 62.7782 458.894 65.2244H458.922Z" fill="#C2678B"/>
</g>
<path d="M73.52 51.96L70.76 51.92V59.88C71 59.96 71.3067 60.0533 71.68 60.16C72.08 60.2667 72.4133 60.32 72.68 60.32C73 60.32 73.2133 60.1467 73.32 59.8C73.4267 59.4533 73.48 59.08 73.48 58.68C73.5067 58.2533 73.52 57.9467 73.52 57.76V51.96ZM79.36 44.44C79.36 44.9467 79.1467 45.4 78.72 45.8C78.32 46.1733 77.8533 46.36 77.32 46.36H70.76V50.16H78.16V57.72C78.16 58.4133 78.1067 59.16 78 59.96C77.8933 60.76 77.64 61.44 77.24 62C76.84 62.56 76.1733 62.84 75.24 62.84C74.3333 62.84 73.5333 62.6267 72.84 62.2C72.1467 61.7733 71.4533 61.28 70.76 60.72V67.04L66.08 67.08V51.96H63.32V63.6H58.76V50.16H66.08V46.36H55.44V44.6H66.08V39.84H62.2C61.9067 40.32 61.4 40.92 60.68 41.64C59.9867 42.36 59.2667 42.96 58.52 43.44C58.1733 43.6533 57.8533 43.8267 57.56 43.96C57.2667 44.0933 56.9733 44.16 56.68 44.16C56.4667 44.16 56.36 44.0533 56.36 43.84C56.36 43.7067 56.3867 43.5867 56.44 43.48C56.52 43.3733 56.5867 43.2667 56.64 43.16C57.1467 42.28 57.6267 41.2 58.08 39.92C58.56 38.6133 58.9733 37.28 59.32 35.92C59.6933 34.56 59.9733 33.3867 60.16 32.4C60.9867 32.72 61.8133 33.0133 62.64 33.28C63.4667 33.5467 64.28 33.8533 65.08 34.2C65.0267 34.4667 64.8667 34.8533 64.6 35.36C64.36 35.8667 64.0933 36.3733 63.8 36.88C63.5333 37.36 63.32 37.72 63.16 37.96H66.08V31.32H70.76V37.96H73C73 37.32 73.2267 36.7867 73.68 36.36C74.16 35.9067 74.7067 35.68 75.32 35.68C75.8533 35.68 76.3733 35.88 76.88 36.28C77.3867 36.68 77.64 37.16 77.64 37.72C77.64 38.3067 77.4533 38.8133 77.08 39.24C76.7067 39.64 76.2133 39.84 75.6 39.84H70.76V44.6H75C75 43.96 75.2267 43.4267 75.68 43C76.16 42.5733 76.7067 42.36 77.32 42.36C77.8533 42.36 78.32 42.5867 78.72 43.04C79.1467 43.4667 79.36 43.9333 79.36 44.44ZM91.8 58.92C91.8 59.88 91.7467 60.8267 91.64 61.76C91.5333 62.6933 91.2933 63.5333 90.92 64.28C90.5733 65.0533 90.04 65.6667 89.32 66.12C88.6267 66.5733 87.68 66.8 86.48 66.8C85.68 66.8 84.9067 66.6 84.16 66.2C83.44 65.8267 82.76 65.4267 82.12 65C81.9867 64.8933 81.7067 64.68 81.28 64.36C80.8533 64.0667 80.44 63.76 80.04 63.44C79.6667 63.0933 79.48 62.8533 79.48 62.72C79.48 62.56 79.6 62.48 79.84 62.48C79.9733 62.48 80.1733 62.5333 80.44 62.64C80.7333 62.7467 80.96 62.8267 81.12 62.88C81.6533 63.0133 82.2133 63.12 82.8 63.2C83.3867 63.2533 83.96 63.28 84.52 63.28C85.24 63.28 85.76 63.0667 86.08 62.64C86.4 62.1867 86.6 61.6533 86.68 61.04C86.7867 60.4267 86.84 59.8533 86.84 59.32V31.68H91.8V58.92ZM84.6 54.96H80V33.2H84.6V54.96ZM173.92 65.44C173.92 66.0267 173.68 66.5333 173.2 66.96C172.747 67.3867 172.227 67.6 171.64 67.6C169.747 67.6 167.88 67.3333 166.04 66.8C164.2 66.2933 162.453 65.48 160.8 64.36C159.733 63.64 158.707 62.7867 157.72 61.8C156.733 60.7867 155.893 59.7867 155.2 58.8C154.213 60.3467 152.973 61.6667 151.48 62.76C149.987 63.8533 148.413 64.7467 146.76 65.44C145.853 65.8133 144.92 66.1067 143.96 66.32C143 66.56 142.04 66.7867 141.08 67C140.52 67.1067 139.933 67.2 139.32 67.28C138.733 67.3867 138.147 67.44 137.56 67.44C137.24 67.44 137.08 67.32 137.08 67.08C137.08 66.92 137.173 66.8 137.36 66.72C137.547 66.6667 137.693 66.6267 137.8 66.6C138.867 66.28 139.88 65.9067 140.84 65.48C141.827 65.0533 142.8 64.5733 143.76 64.04C145.493 63.0533 147.067 61.8133 148.48 60.32C149.893 58.8 150.96 57.08 151.68 55.16H137.56V53.28H152.12C152.227 52.72 152.293 52.16 152.32 51.6C152.347 51.04 152.36 50.48 152.36 49.92H143.16V48.04H152.36V44.44H145.4V42.6H152.36V39.48H157.4V42.6H161.08C161.187 42.0667 161.427 41.6133 161.8 41.24C162.2 40.8667 162.68 40.68 163.24 40.68C163.747 40.68 164.213 40.8667 164.64 41.24C165.093 41.6133 165.32 42.0667 165.32 42.6C165.32 43.3733 165.067 43.88 164.56 44.12C164.08 44.3333 163.52 44.44 162.88 44.44H157.36C157.36 45.0267 157.347 45.6267 157.32 46.24C157.32 46.8267 157.32 47.4267 157.32 48.04H163.36C163.36 47.48 163.587 47.0133 164.04 46.64C164.52 46.2667 165.013 46.08 165.52 46.08C166.027 46.08 166.493 46.2667 166.92 46.64C167.373 47.0133 167.6 47.4667 167.6 48C167.6 48.64 167.333 49.12 166.8 49.44C166.267 49.76 165.72 49.92 165.16 49.92H157.24C157.213 50.48 157.187 51.04 157.16 51.6C157.133 52.16 157.08 52.72 157 53.28H168.76C168.76 52.5867 169 52 169.48 51.52C169.96 51.04 170.533 50.8 171.2 50.8C171.76 50.8 172.307 51.0267 172.84 51.48C173.4 51.9333 173.68 52.4667 173.68 53.08C173.68 53.6133 173.44 54.0933 172.96 54.52C172.48 54.9467 171.973 55.16 171.44 55.16H158.32C158.8 56.12 159.44 57.1467 160.24 58.24C161.04 59.3067 161.947 60.3333 162.96 61.32C163.973 62.3067 165.013 63.1733 166.08 63.92C166.64 64.2933 167.2 64.6133 167.76 64.88C168.32 65.1467 168.867 65.3867 169.4 65.6C169.4 65.04 169.64 64.5333 170.12 64.08C170.6 63.6533 171.12 63.44 171.68 63.44C172.187 63.44 172.68 63.64 173.16 64.04C173.667 64.44 173.92 64.9067 173.92 65.44ZM172.96 36.6C172.96 37 172.853 37.5067 172.64 38.12C172.427 38.7067 172.173 39.28 171.88 39.84C171.587 40.4 171.32 40.8667 171.08 41.24C170.733 41.8 170.24 42.4267 169.6 43.12C168.96 43.7867 168.347 44.28 167.76 44.6C167.627 44.68 167.48 44.76 167.32 44.84C167.187 44.8933 167.04 44.92 166.88 44.92C166.72 44.92 166.573 44.8667 166.44 44.76C166.333 44.6533 166.293 44.5067 166.32 44.32V44.24C166.32 43.3067 166.373 42.3333 166.48 41.32C166.613 40.28 166.693 39.2667 166.72 38.28H143.92V44.92H139.12V36.32H152.84C152.653 35.3067 152.48 34.2933 152.32 33.28C152.187 32.2667 152.067 31.2533 151.96 30.24C152.2 30.24 152.667 30.2533 153.36 30.28C154.053 30.3067 154.8 30.3467 155.6 30.4C156.4 30.4267 157.12 30.48 157.76 30.56C158.4 30.64 158.773 30.7333 158.88 30.84C158.987 30.92 159.04 31.08 159.04 31.32C159.04 31.5067 158.947 31.8267 158.76 32.28C158.6 32.7333 158.387 33.2267 158.12 33.76C157.88 34.2933 157.64 34.8 157.4 35.28C157.16 35.7333 156.987 36.08 156.88 36.32C159.493 36.32 162.093 36.32 164.68 36.32C167.293 36.2933 169.907 36.28 172.52 36.28C172.627 36.28 172.72 36.3067 172.8 36.36C172.907 36.3867 172.96 36.4667 172.96 36.6ZM206.44 53.24C206.44 52.3067 206.44 51.3867 206.44 50.48C206.44 49.5467 206.427 48.6267 206.4 47.72H196.56V50.2H201.96C202.013 49.8267 202.173 49.5067 202.44 49.24C202.733 48.9733 203.067 48.84 203.44 48.84C203.893 48.84 204.267 49 204.56 49.32C204.853 49.6133 205 49.9867 205 50.44C205 50.8667 204.84 51.2 204.52 51.44C204.227 51.68 203.867 51.8 203.44 51.8H196.56V54.32H201.96C202.013 53.9733 202.187 53.6667 202.48 53.4C202.773 53.1333 203.093 53 203.44 53C203.893 53 204.267 53.16 204.56 53.48C204.853 53.7733 205 54.1467 205 54.6C205 55.0267 204.84 55.36 204.52 55.6C204.227 55.84 203.867 55.96 203.44 55.96H196.56V58.6H204.84C205.427 58.6 205.84 58.3333 206.08 57.8C206.32 57.24 206.44 56.72 206.44 56.24V53.24ZM200.28 62.8C200.28 62.9067 200.24 63 200.16 63.08C200.107 63.16 200.053 63.2267 200 63.28C199.413 63.7867 198.6 64.2933 197.56 64.8C196.52 65.3067 195.453 65.7467 194.36 66.12C193.267 66.52 192.333 66.8267 191.56 67.04C190.467 67.3333 189.387 67.48 188.32 67.48C188.213 67.48 188.107 67.4533 188 67.4C187.893 67.3733 187.84 67.2933 187.84 67.16C187.84 67.0267 187.893 66.92 188 66.84C188.107 66.76 188.213 66.7067 188.32 66.68C188.587 66.5467 188.84 66.4133 189.08 66.28C189.32 66.1733 189.56 66.04 189.8 65.88C191 65.1067 192.147 64.28 193.24 63.4C194.36 62.52 195.333 61.4933 196.16 60.32C196.64 60.5867 197.12 60.8533 197.6 61.12C198.08 61.36 198.547 61.6133 199 61.88C199.187 61.9867 199.387 62.0933 199.6 62.2C199.813 62.28 199.987 62.3867 200.12 62.52C200.227 62.6267 200.28 62.72 200.28 62.8ZM191.44 58.76C191.44 59.1067 191.253 59.28 190.88 59.28C190.64 59.28 190.32 59.0933 189.92 58.72C189.547 58.32 189.147 57.84 188.72 57.28C188.293 56.72 187.907 56.2 187.56 55.72C187.24 55.2133 187.013 54.84 186.88 54.6V67H182.48V55.72C182.24 56.3333 181.88 57.04 181.4 57.84C180.92 58.64 180.373 59.44 179.76 60.24C179.147 61.0133 178.507 61.72 177.84 62.36C177.173 63 176.547 63.4667 175.96 63.76C175.907 63.7867 175.84 63.8133 175.76 63.84C175.707 63.8667 175.653 63.88 175.6 63.88C175.413 63.88 175.32 63.76 175.32 63.52C175.32 63.4133 175.347 63.28 175.4 63.12C176.013 61.4667 176.56 59.7733 177.04 58.04C177.547 56.3067 177.893 54.5467 178.08 52.76C178.213 52.7867 178.493 52.8667 178.92 53C179.373 53.1333 179.867 53.28 180.4 53.44C180.933 53.5733 181.4 53.7067 181.8 53.84C182.2 53.9733 182.427 54.0667 182.48 54.12V50.84C181.467 51.0267 180.44 51.1867 179.4 51.32C178.387 51.4533 177.36 51.5867 176.32 51.72L175.64 48.12C175.987 48.1467 176.333 48.1733 176.68 48.2C177.027 48.2 177.373 48.2 177.72 48.2C178.733 47.16 179.707 46.08 180.64 44.96C181.6 43.84 182.52 42.6933 183.4 41.52C183.133 41.4933 182.68 41.4667 182.04 41.44C181.4 41.4133 180.707 41.3867 179.96 41.36C179.24 41.3067 178.6 41.2533 178.04 41.2C177.48 41.12 177.133 41.04 177 40.96C176.84 40.9067 176.76 40.76 176.76 40.52C176.76 40.3867 176.8 40.2667 176.88 40.16C177.253 39.7067 177.627 39.2533 178 38.8C178.4 38.3467 178.787 37.8933 179.16 37.44C180.12 36.2667 181.04 35.0667 181.92 33.84C182.827 32.5867 183.653 31.3067 184.4 30C184.933 30.2133 185.467 30.4533 186 30.72C186.56 30.96 187.093 31.2 187.6 31.44C187.947 31.6 188.293 31.76 188.64 31.92C188.987 32.08 189.32 32.2533 189.64 32.44C189.773 32.52 189.84 32.6133 189.84 32.72C189.84 32.8267 189.787 32.9333 189.68 33.04C189.333 33.3867 188.933 33.7333 188.48 34.08C188.053 34.4267 187.653 34.7733 187.28 35.12C186.453 35.8133 185.64 36.52 184.84 37.24C184.04 37.9333 183.213 38.6267 182.36 39.32C182.653 39.4 183.16 39.5067 183.88 39.64C184.6 39.7467 185.373 39.88 186.2 40.04C187.053 40.1733 187.8 40.3067 188.44 40.44C189.107 40.5467 189.493 40.64 189.6 40.72C189.733 40.7733 189.8 40.8933 189.8 41.08C189.8 41.2133 189.747 41.3333 189.64 41.44C189.32 41.7867 188.907 42.1733 188.4 42.6C187.893 43.0267 187.453 43.4 187.08 43.72C186.2 44.4667 185.32 45.2267 184.44 46C183.56 46.7467 182.667 47.4933 181.76 48.24H182C182.48 48.24 183.12 48.24 183.92 48.24C184.747 48.2133 185.56 48.16 186.36 48.08C187.16 48 187.76 47.8933 188.16 47.76C187.84 47.6533 187.547 47.48 187.28 47.24C187.013 46.9733 186.88 46.6667 186.88 46.32C186.88 45.84 187.107 45.4 187.56 45C188.013 44.6 188.467 44.4 188.92 44.4C189.453 44.4 189.933 44.5867 190.36 44.96C190.787 45.3333 191 45.7867 191 46.32C191 46.96 190.76 47.52 190.28 48C189.827 48.48 189.28 48.8667 188.64 49.16C188 49.4533 187.413 49.6667 186.88 49.8V53.08L190.08 51.96C190.24 53.0533 190.427 54.16 190.64 55.28C190.88 56.3733 191.133 57.4667 191.4 58.56C191.4 58.5867 191.4 58.6133 191.4 58.64C191.427 58.6667 191.44 58.7067 191.44 58.76ZM214.2 66.24C214.2 66.7733 213.973 67.1733 213.52 67.44C213.093 67.7067 212.64 67.84 212.16 67.84C211.813 67.84 211.48 67.8 211.16 67.72C210.493 67.5333 209.827 67.32 209.16 67.08C208.493 66.84 207.84 66.56 207.2 66.24C206.533 65.8667 205.76 65.3867 204.88 64.8C204 64.24 203.293 63.68 202.76 63.12C202.707 63.0667 202.653 63.0133 202.6 62.96C202.547 62.88 202.52 62.7867 202.52 62.68C202.52 62.6 202.56 62.5333 202.64 62.48C202.72 62.4 202.787 62.3467 202.84 62.32C203.427 61.9467 204.013 61.6 204.6 61.28C205.213 60.96 205.813 60.6267 206.4 60.28C207.013 61.2667 207.693 62.2267 208.44 63.16C209.187 64.0933 210.013 64.92 210.92 65.64C211.053 65.3467 211.253 65.0933 211.52 64.88C211.787 64.6933 212.08 64.6 212.4 64.6C212.853 64.6 213.267 64.7467 213.64 65.04C214.013 65.36 214.2 65.76 214.2 66.24ZM210.92 55.8C210.92 57.08 210.68 58.04 210.2 58.68C209.747 59.32 209.093 59.7467 208.24 59.96C207.413 60.1733 206.44 60.28 205.32 60.28H192.36V46.08H210.92V55.8ZM214.64 42.04C214.64 42.7333 214.413 43.24 213.96 43.56C213.533 43.8533 213 44 212.36 44H189.84V42.32H198.52V40.08H192.4V38.4H198.52V36.12H190.4V34.44H198.52V30.76H203.08V34.44H208.4C208.453 33.88 208.667 33.3867 209.04 32.96C209.44 32.5067 209.933 32.28 210.52 32.28C211.053 32.28 211.547 32.48 212 32.88C212.48 33.28 212.72 33.7467 212.72 34.28C212.72 34.8133 212.493 35.2533 212.04 35.6C211.613 35.9467 211.147 36.12 210.64 36.12H203.08V38.4H206.64C206.64 37.9467 206.84 37.56 207.24 37.24C207.667 36.92 208.093 36.76 208.52 36.76C208.92 36.76 209.32 36.9333 209.72 37.28C210.147 37.6 210.36 37.9733 210.36 38.4C210.36 38.9067 210.187 39.32 209.84 39.64C209.52 39.9333 209.093 40.08 208.56 40.08H203.08V42.32H210.48C210.507 41.7867 210.707 41.3067 211.08 40.88C211.48 40.4533 211.947 40.24 212.48 40.24C212.96 40.24 213.44 40.4133 213.92 40.76C214.4 41.08 214.64 41.5067 214.64 42.04Z" fill="#5E3449"/>
<path d="M110.24 33.4C110.24 33.5867 110.173 33.8 110.04 34.04C109.933 34.28 109.853 34.48 109.8 34.64C109.133 36.1867 108.36 37.7333 107.48 39.28C106.627 40.8 105.667 42.2267 104.6 43.56H106.92V66.92H102.16V46.64C101.867 46.96 101.453 47.3733 100.92 47.88C100.387 48.36 99.8133 48.8533 99.2 49.36C98.5867 49.84 97.9867 50.2533 97.4 50.6C96.8133 50.92 96.3067 51.08 95.88 51.08C95.8 51.08 95.7067 51.0533 95.6 51C95.52 50.92 95.48 50.84 95.48 50.76C95.48 50.68 95.5333 50.5733 95.64 50.44C95.7733 50.3067 95.8533 50.2133 95.88 50.16C96.52 49.28 97.1333 48.4 97.72 47.52C98.3333 46.6133 98.8933 45.68 99.4 44.72C100.52 42.5333 101.547 40.3067 102.48 38.04C103.44 35.7467 104.213 33.4 104.8 31L109.64 32.92C109.747 32.9467 109.867 33 110 33.08C110.16 33.16 110.24 33.2667 110.24 33.4ZM134.12 39.24C134.12 40.0667 133.827 40.6533 133.24 41C132.653 41.3467 132 41.52 131.28 41.52H121.88V47.04H126.64C126.64 46.3733 126.853 45.8267 127.28 45.4C127.707 44.9467 128.253 44.72 128.92 44.72C129.453 44.72 129.987 44.9067 130.52 45.28C131.053 45.6267 131.32 46.0933 131.32 46.68C131.32 47.4267 131.08 47.9867 130.6 48.36C130.147 48.7067 129.573 48.88 128.88 48.88H121.88V54.56H128C128.027 53.92 128.253 53.3867 128.68 52.96C129.133 52.5333 129.68 52.32 130.32 52.32C130.853 52.32 131.373 52.5067 131.88 52.88C132.413 53.2533 132.68 53.72 132.68 54.28C132.68 55.0533 132.44 55.6 131.96 55.92C131.48 56.24 130.893 56.4 130.2 56.4H121.88V67.28H117.08V41.52H115.4C115.107 41.92 114.653 42.44 114.04 43.08C113.427 43.72 112.747 44.3733 112 45.04C111.253 45.68 110.533 46.2267 109.84 46.68C109.147 47.1067 108.573 47.32 108.12 47.32C108.067 47.32 107.987 47.3067 107.88 47.28C107.773 47.2267 107.72 47.16 107.72 47.08C107.72 46.9467 107.76 46.8267 107.84 46.72C107.92 46.6133 107.987 46.5067 108.04 46.4C109.08 44.88 110.04 43.2267 110.92 41.44C111.827 39.6533 112.627 37.8267 113.32 35.96C114.013 34.0933 114.6 32.28 115.08 30.52L120.48 32.24C120.773 32.3467 120.92 32.5067 120.92 32.72C120.92 32.9067 120.733 33.32 120.36 33.96C120.013 34.6 119.587 35.32 119.08 36.12C118.573 36.8933 118.093 37.6133 117.64 38.28C117.187 38.92 116.88 39.36 116.72 39.6H129.2C129.2 38.9867 129.427 38.4267 129.88 37.92C130.36 37.4133 130.907 37.16 131.52 37.16C132.08 37.16 132.653 37.3467 133.24 37.72C133.827 38.0933 134.12 38.6 134.12 39.24Z" fill="#C2678B"/>
<defs>
<clipPath id="clip0_55_330">
<rect width="491" height="123" fill="white"/>
</clipPath>
</defs>
</svg>
