<svg width="491" height="130" viewBox="0 0 491 130" fill="none" xmlns="http://www.w3.org/2000/svg">
<path d="M207.177 109.424C207.177 111.008 207.573 112.472 208.365 113.816C209.181 115.16 210.261 116.228 211.605 117.02C212.973 117.812 214.449 118.208 216.033 118.208C217.665 118.208 219.141 117.884 220.461 117.236C221.781 116.588 222.813 115.688 223.557 114.536C224.325 113.384 224.721 112.088 224.745 110.648H226.041C226.041 112.304 225.597 113.816 224.709 115.184C223.845 116.528 222.645 117.596 221.109 118.388C219.597 119.156 217.905 119.54 216.033 119.54C214.209 119.54 212.517 119.084 210.957 118.172C209.397 117.26 208.161 116.036 207.249 114.5C206.337 112.94 205.881 111.248 205.881 109.424V103.52C205.881 101.696 206.325 100.016 207.213 98.48C208.125 96.92 209.349 95.684 210.885 94.772C212.445 93.86 214.137 93.404 215.961 93.404C217.809 93.404 219.489 93.8 221.001 94.592C222.537 95.36 223.749 96.428 224.637 97.796C225.525 99.14 225.969 100.64 225.969 102.296H224.673C224.649 100.856 224.253 99.56 223.485 98.408C222.717 97.256 221.673 96.356 220.353 95.708C219.057 95.06 217.593 94.736 215.961 94.736C214.377 94.736 212.913 95.132 211.569 95.924C210.225 96.716 209.157 97.784 208.365 99.128C207.573 100.472 207.177 101.936 207.177 103.52V109.424ZM242.429 93.404C244.301 93.404 246.029 93.872 247.613 94.808C249.197 95.72 250.445 96.968 251.357 98.552C252.293 100.136 252.761 101.864 252.761 103.736V109.208C252.761 111.08 252.293 112.808 251.357 114.392C250.445 115.976 249.197 117.236 247.613 118.172C246.029 119.084 244.301 119.54 242.429 119.54C240.557 119.54 238.829 119.084 237.245 118.172C235.661 117.236 234.401 115.976 233.465 114.392C232.553 112.808 232.097 111.08 232.097 109.208V103.736C232.097 101.864 232.553 100.136 233.465 98.552C234.401 96.968 235.661 95.72 237.245 94.808C238.829 93.872 240.557 93.404 242.429 93.404ZM233.429 109.208C233.429 110.84 233.825 112.352 234.617 113.744C235.433 115.112 236.525 116.204 237.893 117.02C239.285 117.812 240.797 118.208 242.429 118.208C244.061 118.208 245.561 117.812 246.929 117.02C248.321 116.204 249.413 115.112 250.205 113.744C251.021 112.352 251.429 110.84 251.429 109.208V103.736C251.429 102.104 251.021 100.604 250.205 99.236C249.413 97.844 248.321 96.752 246.929 95.96C245.561 95.144 244.061 94.736 242.429 94.736C240.797 94.736 239.285 95.144 237.893 95.96C236.525 96.752 235.433 97.844 234.617 99.236C233.825 100.604 233.429 102.104 233.429 103.736V109.208ZM259.286 119V93.944H260.69L278.186 110.936V93.944H279.518V119H278.186V112.808L260.618 95.672V119H259.286ZM305.842 93.944V95.276H296.374V119H295.078V95.276H285.61V93.944H305.842ZM321.691 93.944H323.095L333.391 119H331.951L328.567 110.72H316.219L312.799 119H311.395L321.691 93.944ZM316.759 109.424H328.027L322.375 95.672L316.759 109.424ZM340.419 109.424C340.419 111.008 340.815 112.472 341.607 113.816C342.423 115.16 343.503 116.228 344.847 117.02C346.215 117.812 347.691 118.208 349.275 118.208C350.907 118.208 352.383 117.884 353.703 117.236C355.023 116.588 356.055 115.688 356.799 114.536C357.567 113.384 357.963 112.088 357.987 110.648H359.283C359.283 112.304 358.839 113.816 357.951 115.184C357.087 116.528 355.887 117.596 354.351 118.388C352.839 119.156 351.147 119.54 349.275 119.54C347.451 119.54 345.759 119.084 344.199 118.172C342.639 117.26 341.403 116.036 340.491 114.5C339.579 112.94 339.123 111.248 339.123 109.424V103.52C339.123 101.696 339.567 100.016 340.455 98.48C341.367 96.92 342.591 95.684 344.127 94.772C345.687 93.86 347.379 93.404 349.203 93.404C351.051 93.404 352.731 93.8 354.243 94.592C355.779 95.36 356.991 96.428 357.879 97.796C358.767 99.14 359.211 100.64 359.211 102.296H357.915C357.891 100.856 357.495 99.56 356.727 98.408C355.959 97.256 354.915 96.356 353.595 95.708C352.299 95.06 350.835 94.736 349.203 94.736C347.619 94.736 346.155 95.132 344.811 95.924C343.467 96.716 342.399 97.784 341.607 99.128C340.815 100.472 340.419 101.936 340.419 103.52V109.424ZM385.788 93.944V95.276H376.32V119H375.024V95.276H365.556V93.944H385.788Z" fill="#C2678B"/>
<g clip-path="url(#clip0_60_289)">
<path d="M76.8345 80.1219C76.8345 80.1219 76.5327 79.957 75.7094 79.8745L76.8345 80.1219Z" fill="#5E3449"/>
<path d="M434.719 70.8865C434.719 70.8865 434.636 70.8865 434.581 70.8865C429.917 72.8655 423.742 74.0474 419.544 73.6076C415.839 73.2228 414.467 71.876 413.26 69.7046C413.013 69.7046 412.766 69.6496 412.601 69.6222L412.766 69.5672C408.266 69.952 403.573 68.6327 399.21 69.045C399.375 68.99 399.485 68.7701 400.472 68.7976C397.317 68.7976 393.009 68.7976 392.789 68.3578C385.27 68.2479 374.76 67.8356 369.931 68.5502L370.26 68.4128C367.516 68.88 366.693 68.4677 363.647 68.6876C363.482 68.6327 363.263 68.6052 363.29 68.5777C360.299 69.045 354.564 68.7151 352.149 68.935L351.984 68.6327L346.03 68.7426L348.252 68.7976C347.484 69.6496 343.752 68.3028 339.444 68.9075C335.41 68.9075 331.294 70.8865 327.096 70.5842C325.12 71.0239 328.824 69.897 325.861 70.2818C325.751 69.842 327.26 69.9795 326.464 69.6496C323.528 69.952 321.635 69.2923 318.013 69.7871L317.848 69.4572C313.156 70.3093 308.93 69.4023 305.801 70.1444C300.944 70.6391 302.481 69.2923 297.459 70.2543L295.456 69.9245C293.288 69.9795 293.947 70.5842 291.532 70.5017C291.669 70.1994 288.486 70.4467 289.858 70.0894C284.37 69.9245 278.854 71.5462 271.637 71.2988C270.128 71.9585 266.506 71.9585 265.381 72.4807C265.161 72.2608 258.164 73.0579 262.17 72.1784C262.527 72.0959 263.131 72.0684 263.103 72.1784L263.57 71.7936C259.426 71.5187 256.188 72.783 252.154 73.0579C253.362 73.0579 254.953 72.893 253.911 73.2228L250.151 73.5252L250.892 73.1679L245.294 73.5252L246.09 73.8C243.346 73.8825 242.331 73.3603 239.285 74.1573C237.913 74.5696 241.919 74.3772 239.038 74.762C235.361 74.872 229.872 75.0369 225.207 75.3667C225.674 75.7241 224.439 75.834 223.149 76.0264L222.957 75.6966C218.073 76.6311 221.091 75.1194 216.207 75.9439L215.384 76.4937C211.021 77.5656 212.941 75.9989 208.112 77.3732C210.06 77.1258 209.1 78.0604 206.685 78.0879L207.261 77.703C205.944 77.8955 205.505 78.0604 204.627 78.0604C205.395 77.813 205.011 77.5381 203.063 77.758L204.325 77.2358L200.703 78.1428C197.849 78.0329 193.376 78.8575 192.169 78.4727C192.169 78.4727 186.049 78.6925 184.677 79.2972C185.885 78.8849 182.509 79.0224 183.442 78.5826C181.878 79.0499 177.241 79.682 175.347 79.3797L175.704 79.3247C168.762 79.2972 163.904 80.5616 157.675 80.2593C157.977 80.6441 154.684 80.5341 155.508 81.0289C149.086 81.7985 143.763 80.3417 141.458 81.9084C138.522 82.0184 137.973 81.5786 136.464 81.5236L137.15 81.4411C131.661 81.6335 130.07 81.6885 126.009 81.5786C123.978 81.716 123.649 82.4306 119.999 82.2108C121.179 81.9359 119.697 81.9634 118.325 81.9634C119.203 81.9359 119.478 81.826 117.694 81.6061C117.447 81.6885 117.063 81.7435 116.679 81.771C116.679 81.771 116.596 81.716 116.624 81.6885C114.346 81.771 114.73 81.8534 115.801 81.9084C115.746 81.9634 115.828 82.0184 116.157 82.1008C113.797 81.7435 109.572 81.9634 109.297 81.4411C102.464 81.2762 97.5524 81.661 91.8447 81.5786C91.2136 81.2762 92.5582 81.1388 94.2046 81.1113L90.1708 81.0014C90.2257 80.6441 92.5033 80.9189 93.7381 80.9189C88.9634 80.0668 83.8045 80.9739 78.2066 80.0394L77.0266 80.2593L76.6973 80.1768C76.6973 80.3417 75.435 80.4517 74.5844 80.4517C73.816 80.0668 74.6941 79.7095 71.9226 79.5171C69.7548 79.0499 65.6661 79.1598 62.7573 79.0774C64.294 79.2698 63.8001 79.4072 63.1141 79.4622C61.7146 79.3522 60.9462 78.9399 59.8486 78.9949L59.7663 78.5551C60.2877 79.0224 56.0892 78.6651 55.5678 78.775C54.7995 78.3902 57.7631 78.72 58.1198 78.5001C52.5493 77.9779 55.3209 78.2528 49.7504 77.7305C46.7319 77.7305 50.2443 78.1978 48.7899 78.4177C46.1556 78.2253 43.5487 78.2253 40.5851 77.6206L41.4906 78.1153C36.5238 77.8405 33.5877 77.4282 30.3222 76.6036C11.7722 75.6966 9.68664 76.2463 12.2386 77.3732C14.7907 78.4727 22.0076 79.792 22.0076 79.792C36.4141 82.6231 44.0426 82.4306 61.4127 83.75C76.6424 85.2342 80.6488 86.3062 96.5096 86.7734C104.083 87.0758 112.151 87.3506 119.56 87.2682C123.072 86.691 129.274 87.4606 133.445 86.8834L135.064 87.1857C136.491 86.9933 138.165 86.8834 139.619 87.0208L139.537 87.1308C141.677 86.8559 144.092 86.9933 145.135 86.8559L145.053 86.9658L147.659 86.8834L147.22 87.0483C150.952 86.6635 154.794 86.4986 158.169 86.5261L157.867 86.1413C165.112 86.3886 167.719 85.3167 174.277 85.5091L174.195 85.619C182.372 84.1348 187.257 85.4816 195.681 83.8599C194.638 84.0798 196.148 84.0248 196.065 84.1348C199.962 83.695 204.105 83.2827 204.105 82.4856C206.959 82.2657 206.438 82.5406 206.85 82.8154C206.795 82.4856 209.264 82.1283 211.46 81.8809L210.444 82.1008L216.783 81.3862L215.466 80.8639C218.841 80.7265 216.399 81.5786 219.61 81.1113L219.527 80.5891C224.192 80.2592 226.991 80.809 231.546 80.7815C250.261 79.2148 270.238 75.9989 287.718 75.7515L288.514 76.1089C288.898 76.6861 293.261 74.927 293.947 75.4492L295.95 75.0644C296.526 75.1468 297.734 75.1743 296.718 75.3667C298.584 75.2843 298.639 75.1743 299.984 74.8995L302.015 75.1468C309.424 75.0919 315.68 74.0474 323.473 73.91C328.166 74.1573 334.889 73.9649 341.722 73.6901C348.554 73.4977 355.497 73.1679 360.573 72.9205C374.87 72.0409 391.39 74.7346 406.016 74.3772C406.482 74.4872 407.717 74.3498 407.717 74.2673L421.053 75.0369C421.053 75.0369 424.73 75.2568 429.67 75.5317C431.234 73.8275 432.935 72.2608 434.636 70.969L434.719 70.8865Z" fill="#5E3449"/>
<path d="M216.289 75.9165L216.673 75.6416L216.289 75.9165Z" fill="#5E3449"/>
<path d="M401.762 5.33224C397.427 4.34274 394.929 3.54565 390.951 7.47615C387.411 10.9669 383.898 17.536 382.307 23.2256C382.608 17.3436 381.374 9.94989 379.151 5.52464C376.626 0.494698 374.019 0.467212 369.574 -5.02989e-05C367.955 -0.164966 366.391 0.632129 365.568 2.03392C363.29 5.85448 361.753 7.9709 364.278 13.0008C366.501 17.4536 371.66 22.8408 376.571 26.1117C371.083 24.0227 363.674 22.8958 358.79 23.6379C353.247 24.49 352.396 26.9637 350.612 31.0317C349.954 32.5159 350.201 34.2475 351.271 35.4844C354.207 38.8377 355.744 40.9541 361.287 40.1296C366.199 39.3874 372.894 36.1441 377.532 32.4884C373.827 37.0786 370.507 43.7577 369.684 48.6502C368.778 54.2024 370.891 55.7691 374.184 58.7376C375.392 59.8096 377.12 60.1119 378.602 59.4797C382.691 57.7206 385.188 56.9235 386.093 51.3713C386.889 46.4788 385.901 39.0851 383.843 33.5329C387.054 38.4529 392.377 43.7302 396.768 45.9841C401.762 48.5678 403.875 47.0285 407.744 44.8022C409.144 43.9776 409.967 42.4109 409.802 40.8167C409.391 36.3915 409.391 33.7528 404.424 31.1691C400.006 28.8878 392.679 27.541 386.779 27.7883C392.46 26.2491 399.1 22.8134 402.613 19.3226C406.619 15.3646 405.823 12.8634 404.89 8.52062C404.561 6.92643 403.326 5.68956 401.735 5.33224H401.762Z" fill="#C2678B"/>
<path d="M43.5213 46.9187C40.9693 44.8297 39.5972 43.4554 35.6457 44.7473C32.1607 45.8742 27.633 49.0626 24.6968 52.2784C26.8372 48.4854 28.4837 43.1806 28.4837 39.5249C28.4837 35.347 26.7549 34.4675 23.9834 32.7084C22.968 32.0487 21.6783 32.0762 20.663 32.7084C17.8915 34.495 16.1627 35.3745 16.1627 39.5249C16.1627 43.208 17.7817 48.4854 19.9495 52.2784C17.0134 49.0626 12.4856 45.8742 9.00062 44.7198C5.04913 43.4279 3.67709 44.8022 1.12508 46.8912C0.192093 47.6608 -0.21952 48.8976 0.0823297 50.0521C0.905557 53.2404 1.20741 55.1645 5.18634 56.4563C8.67133 57.5832 14.187 57.6932 18.4677 56.8136C14.5162 58.6277 10.0708 61.926 7.93043 64.8945C5.48819 68.2753 6.36629 70.0069 7.57369 73.0579C8.01275 74.1848 9.0555 74.9544 10.2629 75.0094C13.5558 75.2018 15.4767 75.5041 17.9189 72.1233C20.0867 69.1549 21.8704 63.9325 22.3643 59.5897C22.8583 63.9325 24.6419 69.1549 26.7823 72.1233C29.2246 75.5041 31.1454 75.2018 34.4383 75.0094C35.6457 74.9269 36.6885 74.1848 37.1275 73.0579C38.3349 69.9794 39.213 68.2478 36.7708 64.8945C34.603 61.926 30.2124 58.6002 26.2335 56.7861C30.4868 57.6657 36.0299 57.5832 39.5149 56.4563C43.4664 55.1645 43.7682 53.2404 44.6189 50.0521C44.9208 48.8976 44.5091 47.6333 43.6036 46.8912L43.5213 46.9187Z" fill="#C2678B"/>
<path d="M491 42.9881C491.137 39.9371 489.491 37.0786 486.774 35.6768C479.365 31.8562 475.249 29.1626 466.139 34.4399C458.098 39.1126 448.576 49.3374 442.978 58.9025C446.299 48.3754 447.561 34.385 445.64 25.3146C443.445 14.9798 438.698 13.7155 430.904 10.7745C428.051 9.7025 424.84 10.3897 422.672 12.5336C416.745 18.3881 412.931 21.494 415.126 31.8288C417.074 40.9266 423.852 53.1579 431.206 61.4312C422.233 55.027 409.363 49.4748 400.143 48.5128C389.661 47.4133 386.999 51.5362 381.785 58.0504C379.892 60.4142 379.535 63.7126 380.907 66.4337C384.639 73.9099 386.423 78.5 396.905 79.5995C406.153 80.5615 419.873 77.8953 429.999 73.4426C421.135 80.0118 411.915 90.5664 408.128 99.0596C403.848 108.707 406.921 112.528 411.504 119.482C413.178 122.01 416.169 123.385 419.187 122.917C427.447 121.653 432.331 121.406 436.64 111.758C440.426 103.237 442.1 89.357 441.003 78.3351C444.488 88.8073 451.677 100.874 458.565 107.086C466.386 114.149 470.968 112.39 479.008 110.164C481.945 109.367 484.14 106.893 484.634 103.897C485.978 95.6513 487.241 90.8962 479.42 83.8598C472.505 77.6205 459.855 71.7385 449.043 69.3747C460.074 69.2922 473.74 66.1863 481.752 61.5412C490.863 56.2638 490.616 51.3438 491 43.0156V42.9881ZM458.922 65.2243C455.19 67.3682 448.851 68.825 443.747 68.8524C448.768 69.9519 454.641 72.7005 457.824 75.5865C461.446 78.8574 460.87 81.0562 460.239 84.8768C460.019 86.2786 458.976 87.4055 457.632 87.7903C453.9 88.8073 451.787 89.6319 448.137 86.361C444.927 83.475 441.606 77.8953 439.987 73.0303C440.481 78.1427 439.713 84.5745 437.957 88.5324C435.981 93.0127 433.703 93.1226 429.862 93.6998C428.462 93.9197 427.063 93.2875 426.294 92.1056C424.181 88.8623 422.727 87.1032 424.73 82.6229C426.486 78.6924 430.767 73.7999 434.883 70.749C430.191 72.8104 423.825 74.0473 419.544 73.6075C414.687 73.0853 413.864 70.9689 412.135 67.5056C411.504 66.2413 411.668 64.7295 412.546 63.6301C414.961 60.6066 416.196 58.6826 421.053 59.2048C425.334 59.6446 431.316 62.2283 435.46 65.1968C432.057 61.3488 428.901 55.6866 427.996 51.4538C426.98 46.6712 428.737 45.2419 431.508 42.5208C432.496 41.5313 434.005 41.2015 435.322 41.6962C438.945 43.0705 441.14 43.6478 442.155 48.4303C443.061 52.6357 442.457 59.1224 440.92 64.0149C443.5 59.5897 447.918 54.8346 451.65 52.6632C455.876 50.2169 457.797 51.4538 461.227 53.2404C462.489 53.9 463.257 55.2194 463.175 56.6212C463.01 60.4967 463.12 62.778 458.894 65.2243H458.922Z" fill="#C2678B"/>
</g>
<path d="M86.52 61.48C84.8933 61.48 83.28 61.56 81.68 61.72C80.1067 61.88 78.52 62.1467 76.92 62.52C75.9333 62.76 74.9333 62.96 73.92 63.12C72.9067 63.2533 71.8933 63.32 70.88 63.32C69.9467 63.32 68.92 63.2533 67.8 63.12C66.68 62.9867 65.6133 62.7333 64.6 62.36C63.6133 61.96 62.8 61.3867 62.16 60.64C61.52 59.8933 61.2 58.9067 61.2 57.68C61.2 56.9067 61.4933 56.2133 62.08 55.6C62.6667 54.9867 63.3467 54.68 64.12 54.68C64.7067 54.68 65.2533 54.92 65.76 55.4C66.2933 55.8533 66.56 56.3867 66.56 57C66.56 57.7467 66.3067 58.28 65.8 58.6C65.2933 58.92 64.7333 59.1333 64.12 59.24C64.4667 59.72 64.9733 60.0667 65.64 60.28C66.3333 60.4933 67.0533 60.64 67.8 60.72C68.5467 60.7733 69.1867 60.8 69.72 60.8C70.7067 60.8 71.68 60.7333 72.64 60.6C73.6 60.4667 74.56 60.3333 75.52 60.2C76.5333 60.04 77.5467 59.8933 78.56 59.76C79.5733 59.6267 80.5867 59.4933 81.6 59.36V42.32H63.04V40.2H86.52V61.48ZM167.96 37.24C167.747 38.68 167.36 40.2267 166.8 41.88C166.267 43.5333 165.64 45.16 164.92 46.76C164.2 48.3333 163.453 49.7333 162.68 50.96C160.84 53.9467 158.627 56.5333 156.04 58.72C153.453 60.88 150.48 62.48 147.12 63.52C146.267 63.7867 145.4 64 144.52 64.16C143.64 64.3467 142.747 64.44 141.84 64.44C141.2 64.44 140.627 64.2667 140.12 63.92C139.64 63.5733 139.4 63.0533 139.4 62.36C139.4 61.7467 139.627 61.2133 140.08 60.76C140.56 60.3067 141.107 60.08 141.72 60.08C142.36 60.08 142.947 60.36 143.48 60.92C144.013 61.48 144.267 62.0667 144.24 62.68C144.613 62.5467 144.987 62.4 145.36 62.24C145.733 62.08 146.093 61.9067 146.44 61.72C148.627 60.5467 150.573 59.0933 152.28 57.36C153.987 55.6 155.493 53.68 156.8 51.6C156.373 51.4667 155.893 51.3467 155.36 51.24C154.827 51.1067 154.347 50.9867 153.92 50.88C153.547 50.7733 153.053 50.6667 152.44 50.56C151.827 50.4533 151.213 50.3467 150.6 50.24C150.013 50.1333 149.573 50.0667 149.28 50.04C148.96 49.96 148.813 49.8 148.84 49.56C148.84 49.5067 148.96 49.3067 149.2 48.96C149.44 48.6133 149.707 48.2133 150 47.76C150.32 47.3067 150.613 46.8933 150.88 46.52C151.173 46.1467 151.36 45.9067 151.44 45.8C151.653 45.6133 151.867 45.5067 152.08 45.48C152.293 45.4533 152.547 45.5333 152.84 45.72C153.347 45.9867 153.92 46.3467 154.56 46.8C155.2 47.2267 155.827 47.68 156.44 48.16C157.08 48.64 157.613 49.0933 158.04 49.52C158.92 47.8667 159.693 46.16 160.36 44.4C161.053 42.64 161.627 40.8667 162.08 39.08H152.72C152.293 40.04 151.733 41.0667 151.04 42.16C150.373 43.2533 149.64 44.2933 148.84 45.28C148.04 46.2667 147.227 47.0933 146.4 47.76C145.867 48.2133 145.187 48.6667 144.36 49.12C143.56 49.5733 142.787 49.8 142.04 49.8C141.933 49.8 141.853 49.76 141.8 49.68C141.747 49.5733 141.72 49.4667 141.72 49.36C141.72 49.3067 141.747 49.2267 141.8 49.12C141.88 48.9867 141.933 48.9067 141.96 48.88C143.56 46.9333 144.933 44.8 146.08 42.48C147.227 40.16 148.12 37.7867 148.76 35.36C149.693 35.68 150.56 36 151.36 36.32C152.16 36.64 152.867 36.9467 153.48 37.24H167.96ZM208.72 36.92C208.507 38.3867 208.12 39.9867 207.56 41.72C207 43.4533 206.347 45.1467 205.6 46.8C204.853 48.4267 204.08 49.88 203.28 51.16C201.413 54.2 199.187 56.8133 196.6 59C194.013 61.16 191.013 62.8 187.6 63.92C186.773 64.1867 185.907 64.4133 185 64.6C184.093 64.8133 183.187 64.92 182.28 64.92C181.88 64.92 181.453 64.8667 181 64.76C180.547 64.6533 180.16 64.4533 179.84 64.16C179.52 63.8667 179.36 63.4667 179.36 62.96C179.36 62.24 179.587 61.68 180.04 61.28C180.52 60.88 181.107 60.68 181.8 60.68C182.493 60.68 183.04 60.92 183.44 61.4C183.84 61.88 184.04 62.4533 184.04 63.12C185.907 62.5333 187.707 61.6267 189.44 60.4C191.173 59.1733 192.667 57.84 193.92 56.4C196.053 53.9467 197.84 51.1867 199.28 48.12C200.72 45.0533 201.853 41.96 202.68 38.84H193.12C192.587 40.2 191.867 41.6 190.96 43.04C190.053 44.4533 189.013 45.7467 187.84 46.92C186.693 48.0933 185.44 49.0133 184.08 49.68C183.84 49.7867 183.533 49.92 183.16 50.08C182.813 50.24 182.507 50.32 182.24 50.32C182.16 50.32 182.067 50.2933 181.96 50.24C181.88 50.1867 181.84 50.1067 181.84 50C181.84 49.8667 181.867 49.7733 181.92 49.72C181.947 49.6667 181.973 49.6133 182 49.56C182.053 49.5067 182.093 49.4533 182.12 49.4C182.787 48.6 183.387 47.7733 183.92 46.92C184.48 46.04 185.013 45.1467 185.52 44.24C186.293 42.8267 187 41.3733 187.64 39.88C188.28 38.36 188.813 36.8267 189.24 35.28C190.04 35.4933 190.84 35.76 191.64 36.08C192.467 36.3733 193.133 36.6533 193.64 36.92H208.72ZM248.8 48.92C248.8 49.5333 248.52 50.0533 247.96 50.48C247.4 50.88 246.827 51.08 246.24 51.08C243.787 51.08 241.493 50.88 239.36 50.48C237.227 50.08 235.013 49.4667 232.72 48.64V64.84H228V35.04H232.72V43.92C233.547 44.72 234.613 45.48 235.92 46.2C237.253 46.92 238.627 47.56 240.04 48.12C241.48 48.6533 242.747 49.08 243.84 49.4C243.813 49.32 243.787 49.24 243.76 49.16C243.76 49.08 243.76 49 243.76 48.92C243.76 48.2533 244.04 47.6933 244.6 47.24C245.16 46.76 245.747 46.52 246.36 46.52C246.973 46.52 247.533 46.7733 248.04 47.28C248.547 47.76 248.8 48.3067 248.8 48.92Z" fill="#5E3449"/>
<path d="M128.44 41.64C128.44 42.4133 128.293 43.2933 128 44.28C127.707 45.2667 127.347 46.24 126.92 47.2C126.493 48.1333 126.093 48.9467 125.72 49.64C124.947 51.1067 124.067 52.4933 123.08 53.8C122.093 55.1067 120.96 56.3067 119.68 57.4C117.413 59.32 114.907 60.84 112.16 61.96C109.413 63.0533 106.587 63.7867 103.68 64.16L101.44 60.32C102.8 60.1067 104.267 59.8133 105.84 59.44C107.413 59.04 108.96 58.56 110.48 58C112.027 57.4133 113.387 56.7867 114.56 56.12C117.12 54.6533 119.387 52.9333 121.36 50.96C123.333 48.96 124.813 46.5333 125.8 43.68C125.133 43.68 124.533 43.5067 124 43.16C123.467 42.7867 123.2 42.2267 123.2 41.48C123.2 40.76 123.493 40.2 124.08 39.8C124.667 39.3733 125.28 39.16 125.92 39.16C126.64 39.16 127.24 39.4 127.72 39.88C128.2 40.36 128.44 40.9467 128.44 41.64ZM114.16 42.52C114.16 43 113.933 43.24 113.48 43.24C113.453 43.24 113.413 43.24 113.36 43.24C113.333 43.2133 113.293 43.2 113.24 43.2C112.413 42.9867 111.587 42.7867 110.76 42.6C109.96 42.4133 109.133 42.2267 108.28 42.04C107.693 41.9067 107.107 41.8 106.52 41.72C105.933 41.6133 105.347 41.52 104.76 41.44C104.52 41.3867 104.267 41.36 104 41.36C103.76 41.3333 103.52 41.3067 103.28 41.28C103.12 41.2267 102.987 41.1867 102.88 41.16C102.8 41.1333 102.76 41.0267 102.76 40.84C102.76 40.7067 102.853 40.4533 103.04 40.08C103.253 39.68 103.493 39.24 103.76 38.76C104.027 38.2533 104.28 37.8 104.52 37.4C104.76 37 104.933 36.72 105.04 36.56C105.467 36.6667 106.04 36.8667 106.76 37.16C107.507 37.4267 108.293 37.7733 109.12 38.2C109.973 38.6 110.773 39.0533 111.52 39.56C112.293 40.04 112.92 40.5333 113.4 41.04C113.907 41.5467 114.16 42.04 114.16 42.52Z" fill="#C2678B"/>
<defs>
<clipPath id="clip0_60_289">
<rect width="491" height="123" fill="white"/>
</clipPath>
</defs>
</svg>
