<svg width="491" height="130" viewBox="0 0 491 130" fill="none" xmlns="http://www.w3.org/2000/svg">
<path d="M208.797 119H207.465V93.944H217.545C219.225 93.944 220.773 94.304 222.189 95.024C223.629 95.744 224.769 96.764 225.609 98.084C226.449 99.404 226.869 100.928 226.869 102.656C226.869 104.312 226.437 105.836 225.573 107.228C224.733 108.62 223.581 109.688 222.117 110.432C220.845 111.08 219.321 111.404 217.545 111.404H208.797V119ZM208.797 110.072H217.545C219.081 110.072 220.341 109.832 221.325 109.352C222.597 108.752 223.617 107.852 224.385 106.652C225.153 105.452 225.537 104.12 225.537 102.656C225.537 101.216 225.153 99.896 224.385 98.696C223.617 97.496 222.585 96.596 221.289 95.996C220.305 95.516 219.057 95.276 217.545 95.276H208.797V110.072ZM247.865 94.772C249.305 95.444 250.433 96.44 251.249 97.76C252.089 99.08 252.509 100.544 252.509 102.152C252.509 104.024 251.933 105.704 250.781 107.192C249.653 108.656 248.201 109.628 246.425 110.108L252.797 119H251.213L245.057 110.36L243.905 110.396H234.869V119H233.537V93.944H243.077C244.133 93.944 245.033 94.016 245.777 94.16C246.545 94.28 247.241 94.484 247.865 94.772ZM244.265 109.064C245.513 109.064 246.665 108.752 247.721 108.128C248.777 107.504 249.617 106.664 250.241 105.608C250.865 104.552 251.177 103.4 251.177 102.152C251.177 100.76 250.805 99.5 250.061 98.372C249.341 97.244 248.333 96.404 247.037 95.852C246.101 95.468 244.781 95.276 243.077 95.276H234.869V109.064H244.265ZM269.078 93.404C270.95 93.404 272.678 93.872 274.262 94.808C275.846 95.72 277.094 96.968 278.006 98.552C278.942 100.136 279.41 101.864 279.41 103.736V109.208C279.41 111.08 278.942 112.808 278.006 114.392C277.094 115.976 275.846 117.236 274.262 118.172C272.678 119.084 270.95 119.54 269.078 119.54C267.206 119.54 265.478 119.084 263.894 118.172C262.31 117.236 261.05 115.976 260.114 114.392C259.202 112.808 258.746 111.08 258.746 109.208V103.736C258.746 101.864 259.202 100.136 260.114 98.552C261.05 96.968 262.31 95.72 263.894 94.808C265.478 93.872 267.206 93.404 269.078 93.404ZM260.078 109.208C260.078 110.84 260.474 112.352 261.266 113.744C262.082 115.112 263.174 116.204 264.542 117.02C265.934 117.812 267.446 118.208 269.078 118.208C270.71 118.208 272.21 117.812 273.578 117.02C274.97 116.204 276.062 115.112 276.854 113.744C277.67 112.352 278.078 110.84 278.078 109.208V103.736C278.078 102.104 277.67 100.604 276.854 99.236C276.062 97.844 274.97 96.752 273.578 95.96C272.21 95.144 270.71 94.736 269.078 94.736C267.446 94.736 265.934 95.144 264.542 95.96C263.174 96.752 262.082 97.844 261.266 99.236C260.474 100.604 260.078 102.104 260.078 103.736V109.208ZM287.41 93.944H306.094V95.276H288.742V105.788H302.782V107.12H288.742V119H287.41V93.944ZM330.511 93.944V95.276H323.023V117.668H330.511V119H314.275V117.668H321.727V95.276H314.275V93.944H330.511ZM341.283 119V93.944H342.615V117.668H360.075V119H341.283ZM367.032 93.944H384.672V95.276H368.364V105.428H382.548V106.76H368.364V117.668H384.672V119H367.032V93.944Z" fill="#C2678B"/>
<g clip-path="url(#clip0_55_332)">
<path d="M76.8345 80.1219C76.8345 80.1219 76.5327 79.957 75.7094 79.8745L76.8345 80.1219Z" fill="#5E3449"/>
<path d="M434.719 70.8865C434.719 70.8865 434.636 70.8865 434.581 70.8865C429.917 72.8655 423.742 74.0474 419.544 73.6076C415.839 73.2228 414.467 71.876 413.26 69.7046C413.013 69.7046 412.766 69.6496 412.601 69.6222L412.766 69.5672C408.266 69.952 403.573 68.6327 399.21 69.045C399.375 68.99 399.485 68.7701 400.472 68.7976C397.317 68.7976 393.009 68.7976 392.789 68.3578C385.27 68.2479 374.76 67.8356 369.931 68.5502L370.26 68.4128C367.516 68.88 366.693 68.4677 363.647 68.6876C363.482 68.6327 363.263 68.6052 363.29 68.5777C360.299 69.045 354.564 68.7151 352.149 68.935L351.984 68.6327L346.03 68.7426L348.252 68.7976C347.484 69.6496 343.752 68.3028 339.444 68.9075C335.41 68.9075 331.294 70.8865 327.096 70.5842C325.12 71.0239 328.824 69.897 325.861 70.2818C325.751 69.842 327.26 69.9795 326.464 69.6496C323.528 69.952 321.635 69.2923 318.013 69.7871L317.848 69.4572C313.156 70.3093 308.93 69.4023 305.801 70.1444C300.944 70.6391 302.481 69.2923 297.459 70.2543L295.456 69.9245C293.288 69.9795 293.947 70.5842 291.532 70.5017C291.669 70.1994 288.486 70.4467 289.858 70.0894C284.37 69.9245 278.854 71.5462 271.637 71.2988C270.128 71.9585 266.506 71.9585 265.381 72.4807C265.161 72.2608 258.164 73.0579 262.17 72.1784C262.527 72.0959 263.131 72.0684 263.103 72.1784L263.57 71.7936C259.426 71.5187 256.188 72.783 252.154 73.0579C253.362 73.0579 254.953 72.893 253.911 73.2228L250.151 73.5252L250.892 73.1679L245.294 73.5252L246.09 73.8C243.346 73.8825 242.331 73.3603 239.285 74.1573C237.913 74.5696 241.919 74.3772 239.038 74.762C235.361 74.872 229.872 75.0369 225.207 75.3667C225.674 75.7241 224.439 75.834 223.149 76.0264L222.957 75.6966C218.073 76.6311 221.091 75.1194 216.207 75.9439L215.384 76.4937C211.021 77.5656 212.941 75.9989 208.112 77.3732C210.06 77.1258 209.1 78.0604 206.685 78.0879L207.261 77.703C205.944 77.8955 205.505 78.0604 204.627 78.0604C205.395 77.813 205.011 77.5381 203.063 77.758L204.325 77.2358L200.703 78.1428C197.849 78.0329 193.376 78.8575 192.169 78.4727C192.169 78.4727 186.049 78.6925 184.677 79.2972C185.885 78.8849 182.509 79.0224 183.442 78.5826C181.878 79.0499 177.241 79.682 175.347 79.3797L175.704 79.3247C168.762 79.2972 163.904 80.5616 157.675 80.2593C157.977 80.6441 154.684 80.5341 155.508 81.0289C149.086 81.7985 143.763 80.3417 141.458 81.9084C138.522 82.0184 137.973 81.5786 136.464 81.5236L137.15 81.4411C131.661 81.6335 130.07 81.6885 126.009 81.5786C123.978 81.716 123.649 82.4306 119.999 82.2108C121.179 81.9359 119.697 81.9634 118.325 81.9634C119.203 81.9359 119.478 81.826 117.694 81.6061C117.447 81.6885 117.063 81.7435 116.679 81.771C116.679 81.771 116.596 81.716 116.624 81.6885C114.346 81.771 114.73 81.8534 115.801 81.9084C115.746 81.9634 115.828 82.0184 116.157 82.1008C113.797 81.7435 109.572 81.9634 109.297 81.4411C102.464 81.2762 97.5524 81.661 91.8447 81.5786C91.2136 81.2762 92.5582 81.1388 94.2046 81.1113L90.1708 81.0014C90.2257 80.6441 92.5033 80.9189 93.7381 80.9189C88.9634 80.0668 83.8045 80.9739 78.2066 80.0394L77.0266 80.2593L76.6973 80.1768C76.6973 80.3417 75.435 80.4517 74.5844 80.4517C73.816 80.0668 74.6941 79.7095 71.9226 79.5171C69.7548 79.0499 65.6661 79.1598 62.7573 79.0774C64.294 79.2698 63.8001 79.4072 63.1141 79.4622C61.7146 79.3522 60.9462 78.9399 59.8486 78.9949L59.7663 78.5551C60.2877 79.0224 56.0892 78.6651 55.5678 78.775C54.7995 78.3902 57.7631 78.72 58.1198 78.5001C52.5493 77.9779 55.3209 78.2528 49.7504 77.7305C46.7319 77.7305 50.2443 78.1978 48.7899 78.4177C46.1556 78.2253 43.5487 78.2253 40.5851 77.6206L41.4906 78.1153C36.5238 77.8405 33.5877 77.4282 30.3222 76.6036C11.7722 75.6966 9.68664 76.2463 12.2386 77.3732C14.7907 78.4727 22.0076 79.792 22.0076 79.792C36.4141 82.6231 44.0426 82.4306 61.4127 83.75C76.6424 85.2342 80.6488 86.3062 96.5096 86.7734C104.083 87.0758 112.151 87.3506 119.56 87.2682C123.072 86.691 129.274 87.4606 133.445 86.8834L135.064 87.1857C136.491 86.9933 138.165 86.8834 139.619 87.0208L139.537 87.1308C141.677 86.8559 144.092 86.9933 145.135 86.8559L145.053 86.9658L147.659 86.8834L147.22 87.0483C150.952 86.6635 154.794 86.4986 158.169 86.5261L157.867 86.1413C165.112 86.3886 167.719 85.3167 174.277 85.5091L174.195 85.619C182.372 84.1348 187.257 85.4816 195.681 83.8599C194.638 84.0798 196.148 84.0248 196.065 84.1348C199.962 83.695 204.105 83.2827 204.105 82.4856C206.959 82.2657 206.438 82.5406 206.85 82.8154C206.795 82.4856 209.264 82.1283 211.46 81.8809L210.444 82.1008L216.783 81.3862L215.466 80.8639C218.841 80.7265 216.399 81.5786 219.61 81.1113L219.527 80.5891C224.192 80.2592 226.991 80.809 231.546 80.7815C250.261 79.2148 270.238 75.9989 287.718 75.7515L288.514 76.1089C288.898 76.6861 293.261 74.927 293.947 75.4492L295.95 75.0644C296.526 75.1468 297.734 75.1743 296.718 75.3667C298.584 75.2843 298.639 75.1743 299.984 74.8995L302.015 75.1468C309.424 75.0919 315.68 74.0474 323.473 73.91C328.166 74.1573 334.889 73.9649 341.722 73.6901C348.554 73.4977 355.497 73.1679 360.573 72.9205C374.87 72.0409 391.39 74.7346 406.016 74.3772C406.482 74.4872 407.717 74.3498 407.717 74.2673L421.053 75.0369C421.053 75.0369 424.73 75.2568 429.67 75.5317C431.234 73.8275 432.935 72.2608 434.636 70.969L434.719 70.8865Z" fill="#5E3449"/>
<path d="M216.289 75.9165L216.673 75.6416L216.289 75.9165Z" fill="#5E3449"/>
<path d="M401.762 5.33224C397.427 4.34274 394.929 3.54565 390.951 7.47615C387.411 10.9669 383.898 17.536 382.307 23.2256C382.608 17.3436 381.374 9.94989 379.151 5.52464C376.626 0.494698 374.019 0.467212 369.574 -5.02989e-05C367.955 -0.164966 366.391 0.632129 365.568 2.03392C363.29 5.85448 361.753 7.9709 364.278 13.0008C366.501 17.4536 371.66 22.8408 376.571 26.1117C371.083 24.0227 363.674 22.8958 358.79 23.6379C353.247 24.49 352.396 26.9637 350.612 31.0317C349.954 32.5159 350.201 34.2475 351.271 35.4844C354.207 38.8377 355.744 40.9541 361.287 40.1296C366.199 39.3874 372.894 36.1441 377.532 32.4884C373.827 37.0786 370.507 43.7577 369.684 48.6502C368.778 54.2024 370.891 55.7691 374.184 58.7376C375.392 59.8096 377.12 60.1119 378.602 59.4797C382.691 57.7206 385.188 56.9235 386.093 51.3713C386.889 46.4788 385.901 39.0851 383.843 33.5329C387.054 38.4529 392.377 43.7302 396.768 45.9841C401.762 48.5678 403.875 47.0285 407.744 44.8022C409.144 43.9776 409.967 42.4109 409.802 40.8167C409.391 36.3915 409.391 33.7528 404.424 31.1691C400.006 28.8878 392.679 27.541 386.779 27.7883C392.46 26.2491 399.1 22.8134 402.613 19.3226C406.619 15.3646 405.823 12.8634 404.89 8.52062C404.561 6.92643 403.326 5.68956 401.735 5.33224H401.762Z" fill="#C2678B"/>
<path d="M43.5213 46.9187C40.9693 44.8297 39.5972 43.4554 35.6457 44.7473C32.1607 45.8742 27.633 49.0626 24.6968 52.2784C26.8372 48.4854 28.4837 43.1806 28.4837 39.5249C28.4837 35.347 26.7549 34.4675 23.9834 32.7084C22.968 32.0487 21.6783 32.0762 20.663 32.7084C17.8915 34.495 16.1627 35.3745 16.1627 39.5249C16.1627 43.208 17.7817 48.4854 19.9495 52.2784C17.0134 49.0626 12.4856 45.8742 9.00062 44.7198C5.04913 43.4279 3.67709 44.8022 1.12508 46.8912C0.192093 47.6608 -0.21952 48.8976 0.0823297 50.0521C0.905557 53.2404 1.20741 55.1645 5.18634 56.4563C8.67133 57.5832 14.187 57.6932 18.4677 56.8136C14.5162 58.6277 10.0708 61.926 7.93043 64.8945C5.48819 68.2753 6.36629 70.0069 7.57369 73.0579C8.01275 74.1848 9.0555 74.9544 10.2629 75.0094C13.5558 75.2018 15.4767 75.5041 17.9189 72.1233C20.0867 69.1549 21.8704 63.9325 22.3643 59.5897C22.8583 63.9325 24.6419 69.1549 26.7823 72.1233C29.2246 75.5041 31.1454 75.2018 34.4383 75.0094C35.6457 74.9269 36.6885 74.1848 37.1275 73.0579C38.3349 69.9794 39.213 68.2478 36.7708 64.8945C34.603 61.926 30.2124 58.6002 26.2335 56.7861C30.4868 57.6657 36.0299 57.5832 39.5149 56.4563C43.4664 55.1645 43.7682 53.2404 44.6189 50.0521C44.9208 48.8976 44.5091 47.6333 43.6036 46.8912L43.5213 46.9187Z" fill="#C2678B"/>
<path d="M491 42.9881C491.137 39.9371 489.491 37.0786 486.774 35.6768C479.365 31.8562 475.249 29.1626 466.139 34.4399C458.098 39.1126 448.576 49.3374 442.978 58.9025C446.299 48.3754 447.561 34.385 445.64 25.3146C443.445 14.9798 438.698 13.7155 430.904 10.7745C428.051 9.7025 424.84 10.3897 422.672 12.5336C416.745 18.3881 412.931 21.494 415.126 31.8288C417.074 40.9266 423.852 53.1579 431.206 61.4312C422.233 55.027 409.363 49.4748 400.143 48.5128C389.661 47.4133 386.999 51.5362 381.785 58.0504C379.892 60.4142 379.535 63.7126 380.907 66.4337C384.639 73.9099 386.423 78.5 396.905 79.5995C406.153 80.5615 419.873 77.8953 429.999 73.4426C421.135 80.0118 411.915 90.5664 408.128 99.0596C403.848 108.707 406.921 112.528 411.504 119.482C413.178 122.01 416.169 123.385 419.187 122.917C427.447 121.653 432.331 121.406 436.64 111.758C440.426 103.237 442.1 89.357 441.003 78.3351C444.488 88.8073 451.677 100.874 458.565 107.086C466.386 114.149 470.968 112.39 479.008 110.164C481.945 109.367 484.14 106.893 484.634 103.897C485.978 95.6513 487.241 90.8962 479.42 83.8598C472.505 77.6205 459.855 71.7385 449.043 69.3747C460.074 69.2922 473.74 66.1863 481.752 61.5412C490.863 56.2638 490.616 51.3438 491 43.0156V42.9881ZM458.922 65.2243C455.19 67.3682 448.851 68.825 443.747 68.8524C448.768 69.9519 454.641 72.7005 457.824 75.5865C461.446 78.8574 460.87 81.0562 460.239 84.8768C460.019 86.2786 458.976 87.4055 457.632 87.7903C453.9 88.8073 451.787 89.6319 448.137 86.361C444.927 83.475 441.606 77.8953 439.987 73.0303C440.481 78.1427 439.713 84.5745 437.957 88.5324C435.981 93.0127 433.703 93.1226 429.862 93.6998C428.462 93.9197 427.063 93.2875 426.294 92.1056C424.181 88.8623 422.727 87.1032 424.73 82.6229C426.486 78.6924 430.767 73.7999 434.883 70.749C430.191 72.8104 423.825 74.0473 419.544 73.6075C414.687 73.0853 413.864 70.9689 412.135 67.5056C411.504 66.2413 411.668 64.7295 412.546 63.6301C414.961 60.6066 416.196 58.6826 421.053 59.2048C425.334 59.6446 431.316 62.2283 435.46 65.1968C432.057 61.3488 428.901 55.6866 427.996 51.4538C426.98 46.6712 428.737 45.2419 431.508 42.5208C432.496 41.5313 434.005 41.2015 435.322 41.6962C438.945 43.0705 441.14 43.6478 442.155 48.4303C443.061 52.6357 442.457 59.1224 440.92 64.0149C443.5 59.5897 447.918 54.8346 451.65 52.6632C455.876 50.2169 457.797 51.4538 461.227 53.2404C462.489 53.9 463.257 55.2194 463.175 56.6212C463.01 60.4967 463.12 62.778 458.894 65.2243H458.922Z" fill="#C2678B"/>
</g>
<path d="M92.48 34.24C92.48 33.4933 92.2133 32.8667 91.68 32.36C91.1733 31.8267 90.56 31.56 89.84 31.56C89.0933 31.56 88.4533 31.8267 87.92 32.36C87.4133 32.8667 87.16 33.4933 87.16 34.24C87.16 34.9867 87.4133 35.6133 87.92 36.12C88.4533 36.6267 89.0933 36.88 89.84 36.88C90.5867 36.88 91.2133 36.6267 91.72 36.12C92.2267 35.6133 92.48 34.9867 92.48 34.24ZM87.24 39.12C87.1333 41.3333 86.6667 43.6 85.84 45.92C85.0133 48.24 84.0533 50.36 82.96 52.28C81.1733 55.4267 78.9333 58.0267 76.24 60.08C73.5733 62.1333 70.4533 63.56 66.88 64.36C66.3733 64.4667 65.8533 64.56 65.32 64.64C64.8133 64.72 64.2933 64.76 63.76 64.76C63.0933 64.76 62.4667 64.5733 61.88 64.2C61.2933 63.8533 61 63.2933 61 62.52C61 61.8 61.2533 61.2267 61.76 60.8C62.2933 60.3467 62.9067 60.12 63.6 60.12C64.4 60.12 65.0133 60.3733 65.44 60.88C65.8667 61.3867 66.0533 62.0267 66 62.8C67.76 62.24 69.3867 61.3733 70.88 60.2C72.4 59.0267 73.76 57.6933 74.96 56.2C76.16 54.68 77.1733 53.12 78 51.52C78.5067 50.56 78.9733 49.4933 79.4 48.32C79.8533 47.1467 80.24 45.9467 80.56 44.72C80.9067 43.4933 81.1467 42.3467 81.28 41.28L62.2 41.44V39.24L87.24 39.12ZM93.96 34.24C93.96 35.36 93.56 36.3333 92.76 37.16C91.96 37.9867 90.9867 38.4 89.84 38.4C88.6933 38.4 87.72 37.9867 86.92 37.16C86.12 36.3333 85.72 35.36 85.72 34.24C85.72 33.0933 86.12 32.12 86.92 31.32C87.72 30.52 88.6933 30.12 89.84 30.12C90.9867 30.12 91.96 30.52 92.76 31.32C93.56 32.12 93.96 33.0933 93.96 34.24ZM167.88 38.32C167.773 40.5067 167.307 42.76 166.48 45.08C165.68 47.4 164.733 49.52 163.64 51.44C161.88 54.5867 159.653 57.2 156.96 59.28C154.267 61.36 151.147 62.8 147.6 63.6C147.067 63.7067 146.533 63.7867 146 63.84C145.467 63.8933 144.933 63.92 144.4 63.92C143.733 63.92 143.107 63.7467 142.52 63.4C141.96 63.0267 141.68 62.4667 141.68 61.72C141.68 60.9733 141.933 60.3867 142.44 59.96C142.947 59.5067 143.547 59.28 144.24 59.28C145.067 59.28 145.693 59.5467 146.12 60.08C146.547 60.5867 146.733 61.2267 146.68 62C148.44 61.4133 150.067 60.5467 151.56 59.4C153.08 58.2267 154.44 56.88 155.64 55.36C156.84 53.84 157.84 52.28 158.64 50.68C159.387 49.24 160.067 47.5867 160.68 45.72C161.32 43.8533 161.747 42.1067 161.96 40.48L142.84 40.6V38.4L167.88 38.32ZM203.6 43.48C202.96 44.5733 202.067 45.6667 200.92 46.76C199.8 47.8533 198.733 48.7867 197.72 49.56V65.72H193.92L193.96 52.08C193.453 52.4267 192.773 52.8267 191.92 53.28C191.067 53.7333 190.16 54.1733 189.2 54.6C188.24 55.0267 187.32 55.3867 186.44 55.68C185.56 55.9467 184.813 56.08 184.2 56.08C183.64 56.08 183.16 55.9333 182.76 55.64C182.387 55.32 182.2 54.8667 182.2 54.28C182.2 53.8 182.4 53.36 182.8 52.96C183.227 52.56 183.68 52.36 184.16 52.36C184.693 52.36 185.133 52.56 185.48 52.96C185.827 53.3333 186.013 53.7733 186.04 54.28C186.573 54.04 187.093 53.7733 187.6 53.48C188.133 53.1867 188.64 52.8667 189.12 52.52C190.427 51.5867 191.733 50.52 193.04 49.32C194.373 48.12 195.627 46.8533 196.8 45.52C198 44.16 199.04 42.8133 199.92 41.48L203.6 43.48ZM252.28 46.68C252.28 47.1333 252.107 47.6 251.76 48.08C251.413 48.5333 251.053 48.8933 250.68 49.16C249.347 50.0933 247.84 50.8 246.16 51.28C244.507 51.7333 242.867 51.96 241.24 51.96C239.827 51.96 238.427 51.8533 237.04 51.64C235.653 51.4 234.267 51.1333 232.88 50.84C232.027 50.6533 231.16 50.5333 230.28 50.48C229.4 50.4 228.533 50.36 227.68 50.36C226.08 50.36 224.48 50.4533 222.88 50.64C221.307 50.8267 219.733 51.0533 218.16 51.32L217.96 47.44C219.88 47.1467 221.787 46.9067 223.68 46.72C225.6 46.5333 227.533 46.44 229.48 46.44C231 46.44 232.52 46.5733 234.04 46.84C235.56 47.1067 237.053 47.3867 238.52 47.68C239.72 47.92 240.92 48.16 242.12 48.4C243.347 48.64 244.573 48.76 245.8 48.76C246.36 48.76 247 48.7067 247.72 48.6C248.44 48.4667 249.027 48.2267 249.48 47.88C249.24 47.8 249.013 47.64 248.8 47.4C248.613 47.1333 248.52 46.8667 248.52 46.6C248.52 46.0667 248.707 45.6533 249.08 45.36C249.453 45.0667 249.893 44.92 250.4 44.92C250.907 44.92 251.347 45.08 251.72 45.4C252.093 45.72 252.28 46.1467 252.28 46.68ZM271.4 40.92C271.32 43.2933 271.067 45.6933 270.64 48.12C270.213 50.5467 269.533 52.8933 268.6 55.16C267.667 57.4 266.4 59.4533 264.8 61.32C264.16 62.0667 263.373 62.7467 262.44 63.36C261.533 63.9467 260.573 64.24 259.56 64.24C258.813 64.24 258.213 64.04 257.76 63.64C257.307 63.2133 257.08 62.6267 257.08 61.88C257.08 61.2133 257.347 60.6667 257.88 60.24C258.44 59.8133 259.027 59.6 259.64 59.6C260.173 59.6 260.627 59.8 261 60.2C261.4 60.5733 261.653 61.0133 261.76 61.52C262.533 60.7733 263.187 59.7467 263.72 58.44C264.253 57.1067 264.693 55.6267 265.04 54C265.387 52.3733 265.653 50.72 265.84 49.04C266.027 47.3333 266.16 45.7333 266.24 44.24C266.347 42.72 266.413 41.4267 266.44 40.36L271.4 40.92ZM293.2 44.68C293.2 45.72 293.04 46.76 292.72 47.8C292.4 48.84 292.027 49.8267 291.6 50.76C290.56 53.0533 289.173 55.04 287.44 56.72C285.733 58.4 283.773 59.72 281.56 60.68C279.347 61.6133 276.987 62.1467 274.48 62.28V36.8H279.12L278.96 57.44C280.213 57.1733 281.44 56.7067 282.64 56.04C283.867 55.3467 285 54.5067 286.04 53.52C287.107 52.5333 288.027 51.4667 288.8 50.32C289.6 49.1467 290.187 47.96 290.56 46.76C289.973 46.7067 289.4 46.5067 288.84 46.16C288.307 45.7867 288.04 45.2667 288.04 44.6C288.04 43.9867 288.293 43.44 288.8 42.96C289.333 42.48 289.893 42.24 290.48 42.24C291.093 42.24 291.693 42.48 292.28 42.96C292.893 43.44 293.2 44.0133 293.2 44.68Z" fill="#5E3449"/>
<path d="M107.2 41.4L107.36 59.44H119.12C119.92 59.44 120.587 59.2 121.12 58.72C121.653 58.2133 122.053 57.6 122.32 56.88C122.587 56.16 122.733 55.4667 122.76 54.8C122.813 54.0267 122.84 53.24 122.84 52.44C122.84 51.64 122.84 50.8533 122.84 50.08C122.867 48.6133 122.88 47.16 122.88 45.72C122.88 44.28 122.893 42.84 122.92 41.4H107.2ZM127.88 39.44C127.88 41.5467 127.853 43.68 127.8 45.84C127.747 47.9733 127.693 50.1067 127.64 52.24C127.613 53.0133 127.573 53.8933 127.52 54.88C127.493 55.84 127.347 56.68 127.08 57.4C126.707 58.4667 126.12 59.32 125.32 59.96C124.547 60.5733 123.653 61.0133 122.64 61.28C121.653 61.52 120.64 61.64 119.6 61.64H102.92L102.64 39.44H127.88Z" fill="#C2678B"/>
<defs>
<clipPath id="clip0_55_332">
<rect width="491" height="123" fill="white"/>
</clipPath>
</defs>
</svg>
